<svg xmlns="http://www.w3.org/2000/svg" xmlns:xlink="http://www.w3.org/1999/xlink" viewBox="0 0 6000 6000"><defs><style>.cls-1{fill:#e52;}.cls-2,.cls-61{fill:url(#radial-gradient);}.cls-3{opacity:0.5;}.cls-4{fill:url(#radial-gradient-2);}.cls-5{fill:url(#radial-gradient-3);}.cls-6{fill:url(#radial-gradient-4);}.cls-7{fill:url(#radial-gradient-5);}.cls-8{fill:url(#radial-gradient-6);}.cls-9{fill:url(#radial-gradient-7);}.cls-10{fill:url(#radial-gradient-8);}.cls-11{fill:url(#radial-gradient-9);}.cls-12{fill:url(#radial-gradient-10);}.cls-13{fill:url(#radial-gradient-11);}.cls-14{fill:url(#radial-gradient-12);}.cls-15{fill:url(#radial-gradient-13);}.cls-16{fill:url(#linear-gradient);}.cls-17{fill:url(#linear-gradient-2);}.cls-18{fill:url(#linear-gradient-3);}.cls-19{fill:url(#linear-gradient-4);}.cls-20{fill:url(#linear-gradient-5);}.cls-21{fill:url(#linear-gradient-6);}.cls-22{fill:url(#linear-gradient-7);}.cls-23{fill:url(#linear-gradient-8);}.cls-24{fill:url(#linear-gradient-9);}.cls-25{fill:url(#linear-gradient-10);}.cls-26{fill:url(#linear-gradient-11);}.cls-27{fill:url(#linear-gradient-12);}.cls-28{fill:url(#linear-gradient-13);}.cls-29{fill:url(#linear-gradient-14);}.cls-30{fill:url(#linear-gradient-15);}.cls-31{fill:url(#linear-gradient-16);}.cls-32{fill:url(#linear-gradient-17);}.cls-33{fill:url(#linear-gradient-18);}.cls-34{fill:url(#linear-gradient-19);}.cls-35{fill:url(#linear-gradient-20);}.cls-36{fill:url(#linear-gradient-21);}.cls-37{fill:url(#linear-gradient-22);}.cls-38{fill:url(#linear-gradient-23);}.cls-39{fill:url(#linear-gradient-24);}.cls-40{fill:url(#linear-gradient-25);}.cls-41{fill:url(#linear-gradient-26);}.cls-42{fill:url(#linear-gradient-27);}.cls-43{fill:url(#linear-gradient-28);}.cls-44{fill:url(#linear-gradient-29);}.cls-45{fill:url(#linear-gradient-30);}.cls-46{fill:url(#linear-gradient-31);}.cls-47{fill:url(#linear-gradient-32);}.cls-48{fill:url(#linear-gradient-33);}.cls-49{fill:url(#linear-gradient-34);}.cls-50{fill:url(#linear-gradient-35);}.cls-51{fill:url(#linear-gradient-36);}.cls-52{fill:url(#linear-gradient-37);}.cls-53{fill:url(#linear-gradient-38);}.cls-54{fill:url(#linear-gradient-39);}.cls-55{fill:url(#linear-gradient-40);}.cls-56{fill:url(#linear-gradient-41);}.cls-57{fill:url(#linear-gradient-42);}.cls-58{fill:url(#linear-gradient-43);}.cls-59{fill:url(#linear-gradient-44);}.cls-60{fill:url(#linear-gradient-45);}.cls-61{fill-opacity:0.1;}</style><radialGradient id="radial-gradient" cx="6002.03" cy="2978.43" r="0.5" gradientTransform="matrix(6000, 0, 0, -6000, -36009171.5, 17873573)" gradientUnits="userSpaceOnUse"><stop offset="0" stop-color="#fb3"/><stop offset="1" stop-color="#e52"/></radialGradient><radialGradient id="radial-gradient-2" cx="6001.79" cy="2978.39" r="0.5" gradientTransform="matrix(4000, 0, 0, -4000, -24004171.5, 11916573)" xlink:href="#radial-gradient"/><radialGradient id="radial-gradient-3" cx="6001.71" cy="2978.38" r="0.5" gradientTransform="matrix(3600, 0, 0, -3600, -21603171.5, 10725173)" xlink:href="#radial-gradient"/><radialGradient id="radial-gradient-4" cx="6001.67" cy="2978.37" r="0.5" gradientTransform="matrix(3400, 0, 0, -3400, -20402671.5, 10129473)" xlink:href="#radial-gradient"/><radialGradient id="radial-gradient-5" cx="6001.64" cy="2978.37" r="0.5" gradientTransform="matrix(3302, 0, 0, -3302, -19814426.5, 9837580)" xlink:href="#radial-gradient"/><radialGradient id="radial-gradient-6" cx="6001.52" cy="2978.35" r="0.5" gradientTransform="matrix(2900, 0, 0, -2900, -17401421.5, 8640223)" xlink:href="#radial-gradient"/><radialGradient id="radial-gradient-7" cx="6001.37" cy="2978.33" r="0.5" gradientTransform="matrix(2500, 0, 0, -2500, -15000421.5, 7448823)" xlink:href="#radial-gradient"/><radialGradient id="radial-gradient-8" cx="6001.3" cy="2978.32" r="0.5" gradientTransform="matrix(2350, 0, 0, -2350, -14100046.5, 7002048)" xlink:href="#radial-gradient"/><radialGradient id="radial-gradient-9" cx="6000.93" cy="2978.26" r="0.5" gradientTransform="matrix(1800, 0, 0, -1800, -10798671.5, 5363873)" xlink:href="#radial-gradient"/><radialGradient id="radial-gradient-10" cx="6000.61" cy="2978.22" r="0.5" gradientTransform="matrix(1500, 0, 0, -1500, -8997921.5, 4470323)" xlink:href="#radial-gradient"/><radialGradient id="radial-gradient-11" cx="5999.67" cy="2978.07" r="0.5" gradientTransform="matrix(1000, 0, 0, -1000, -5996671.5, 2981073)" xlink:href="#radial-gradient"/><radialGradient id="radial-gradient-12" cx="5998.78" cy="2977.94" r="0.5" gradientTransform="matrix(760, 0, 0, -760, -4556071.5, 2266233)" xlink:href="#radial-gradient"/><radialGradient id="radial-gradient-13" cx="5996.84" cy="2977.65" r="0.5" gradientTransform="matrix(500, 0, 0, -500, -2995421.5, 1491823)" xlink:href="#radial-gradient"/><linearGradient id="linear-gradient" x1="1284.04" y1="-21137.53" x2="2833.24" y2="-21137.53" gradientTransform="matrix(0.04, 0.11, 0.11, -0.04, 5246.24, 2018.46)" gradientUnits="userSpaceOnUse"><stop offset="0" stop-color="#f7882b"/><stop offset="1" stop-color="#e52"/></linearGradient><linearGradient id="linear-gradient-2" x1="-6557.39" y1="-4614.43" x2="-5008.19" y2="-4614.43" gradientTransform="matrix(0.19, 0.07, 0.07, -0.19, 4496.72, 2722.31)" xlink:href="#linear-gradient"/><linearGradient id="linear-gradient-3" x1="37.91" y1="-7536.07" x2="1587.11" y2="-7536.07" gradientTransform="matrix(0.16, 0.19, 0.19, -0.16, 4293.49, 1902.27)" xlink:href="#linear-gradient"/><linearGradient id="linear-gradient-4" x1="-3530.25" y1="2464.34" x2="-1981.05" y2="2464.34" gradientTransform="matrix(0.3, -0.05, -0.05, -0.3, 4210.44, 3765.79)" xlink:href="#linear-gradient"/><linearGradient id="linear-gradient-5" x1="-1007.91" y1="3644.22" x2="541.29" y2="3644.22" gradientTransform="matrix(0.38, -0.14, -0.14, -0.38, 3980.04, 4513.86)" xlink:href="#linear-gradient"/><linearGradient id="linear-gradient-6" x1="1529.89" y1="-1339.25" x2="3079.1" y2="-1339.25" gradientTransform="matrix(0.43, 0.25, 0.25, -0.43, 2484.81, 2362.44)" xlink:href="#linear-gradient"/><linearGradient id="linear-gradient-7" x1="5058.41" y1="-2444.44" x2="6607.61" y2="-2444.44" gradientTransform="matrix(0.21, 0.56, 0.56, -0.21, 2917.21, -199.69)" xlink:href="#linear-gradient"/><linearGradient id="linear-gradient-8" x1="2413.6" y1="273.62" x2="3962.81" y2="273.62" gradientTransform="matrix(0.66, 0.24, 0.24, -0.66, 1167.26, 3095.58)" xlink:href="#linear-gradient"/><linearGradient id="linear-gradient-9" x1="2812.72" y1="3479.68" x2="4361.92" y2="3479.68" gradientTransform="matrix(0.72, -0.42, -0.42, -0.72, 2732, 7233.04)" xlink:href="#linear-gradient"/><linearGradient id="linear-gradient-10" x1="4345.31" y1="-483.64" x2="5894.51" y2="-483.64" gradientTransform="matrix(0.58, 0.69, 0.69, -0.58, 302.45, 158.36)" xlink:href="#linear-gradient"/><linearGradient id="linear-gradient-11" x1="4028.61" y1="350.61" x2="5577.82" y2="350.61" gradientTransform="matrix(0.86, 0.6, 0.6, -0.86, -1128, 1520.53)" xlink:href="#linear-gradient"/><linearGradient id="linear-gradient-12" x1="3870.24" y1="1162.04" x2="5419.44" y2="1162.04" gradientTransform="matrix(1.14, 0.37, 0.37, -1.14, -2126.06, 3747.17)" xlink:href="#linear-gradient"/><linearGradient id="linear-gradient-13" x1="4392.68" y1="3648.4" x2="5941.88" y2="3648.4" gradientTransform="matrix(0.86, -1.02, -1.02, -0.86, 3727.74, 11254.38)" xlink:href="#linear-gradient"/><linearGradient id="linear-gradient-14" x1="4068.23" y1="2619.29" x2="5617.44" y2="2619.29" gradientTransform="matrix(1.36, -0.5, -0.5, -1.36, -872.18, 9608.62)" xlink:href="#linear-gradient"/><linearGradient id="linear-gradient-15" x1="4432.08" y1="1373.43" x2="5981.28" y2="1373.43" gradientTransform="matrix(1.5, 0.55, 0.55, -1.5, -4825.76, 3767.46)" xlink:href="#linear-gradient"/><linearGradient id="linear-gradient-16" x1="29572.83" y1="5787.17" x2="31122.04" y2="5787.17" gradientTransform="matrix(-0.12, 0, 0, 0.12, 6548.74, 2215.52)" xlink:href="#linear-gradient"/><linearGradient id="linear-gradient-17" x1="16728.13" y1="-7232.6" x2="18277.33" y2="-7232.6" gradientTransform="matrix(-0.13, 0.15, 0.15, 0.13, 6143.69, 1270.47)" xlink:href="#linear-gradient"/><linearGradient id="linear-gradient-18" x1="17217.85" y1="-35.79" x2="18767.06" y2="-35.79" gradientTransform="matrix(-0.23, 0.09, 0.09, 0.23, 6983.79, 1359.96)" xlink:href="#linear-gradient"/><linearGradient id="linear-gradient-19" x1="9040.92" y1="-6809.1" x2="10590.13" y2="-6809.1" gradientTransform="matrix(-0.05, 0.3, 0.3, 0.05, 5261.05, 644.57)" xlink:href="#linear-gradient"/><linearGradient id="linear-gradient-20" x1="7069.5" y1="-4842.42" x2="8618.7" y2="-4842.42" gradientTransform="matrix(0, 0.4, 0.4, 0, 4636.9, 172.2)" xlink:href="#linear-gradient"/><linearGradient id="linear-gradient-21" x1="10884.45" y1="-753.21" x2="12433.66" y2="-753.21" gradientTransform="matrix(-0.38, 0.32, 0.32, 0.38, 7169.97, -497.03)" xlink:href="#linear-gradient"/><linearGradient id="linear-gradient-22" x1="10716.17" y1="2940.5" x2="12265.37" y2="2940.5" gradientTransform="matrix(-0.6, 0, 0, 0.6, 9429.7, 785.6)" xlink:href="#linear-gradient"/><linearGradient id="linear-gradient-23" x1="9066.61" y1="-474.43" x2="10615.81" y2="-474.43" gradientTransform="matrix(-0.45, 0.54, 0.54, 0.45, 6931.68, -1985.86)" xlink:href="#linear-gradient"/><linearGradient id="linear-gradient-24" x1="5917.39" y1="-1195.93" x2="7466.59" y2="-1195.93" gradientTransform="matrix(0.14, 0.82, 0.82, -0.14, 2508.56, -1930.59)" xlink:href="#linear-gradient"/><linearGradient id="linear-gradient-25" x1="9117.51" y1="1599.77" x2="10666.72" y2="1599.77" gradientTransform="matrix(-0.85, 0.31, 0.31, 0.85, 9987.54, -1793.93)" xlink:href="#linear-gradient"/><linearGradient id="linear-gradient-26" x1="8441.89" y1="1016.85" x2="9991.1" y2="1016.85" gradientTransform="matrix(-0.86, 0.6, 0.6, 0.86, 9196.76, -3604)" xlink:href="#linear-gradient"/><linearGradient id="linear-gradient-27" x1="7733.57" y1="590.5" x2="9282.77" y2="590.5" gradientTransform="matrix(-0.74, 0.95, 0.95, 0.74, 7445.76, -5303.44)" xlink:href="#linear-gradient"/><linearGradient id="linear-gradient-28" x1="5218.46" y1="231.05" x2="6767.66" y2="231.05" gradientTransform="matrix(0.67, 1.15, 1.15, -0.67, -1610.83, -2370.28)" xlink:href="#linear-gradient"/><linearGradient id="linear-gradient-29" x1="6296.48" y1="278.15" x2="7845.69" y2="278.15" gradientTransform="matrix(0, 1.45, 1.45, 0, 1508.95, -6129.9)" xlink:href="#linear-gradient"/><linearGradient id="linear-gradient-30" x1="7342.77" y1="1046.16" x2="8891.97" y2="1046.16" gradientTransform="matrix(-1.03, 1.23, 1.23, 1.03, 8350.04, -7847.26)" xlink:href="#linear-gradient"/><linearGradient id="linear-gradient-31" x1="-8865.02" y1="20862.61" x2="-7315.82" y2="20862.61" gradientTransform="matrix(0.06, -0.1, -0.1, -0.06, 5777.97, 3375.49)" xlink:href="#linear-gradient"/><linearGradient id="linear-gradient-32" x1="8832.78" y1="16248.65" x2="10381.98" y2="16248.65" gradientTransform="matrix(-0.07, -0.19, -0.19, 0.07, 6798.93, 3497.23)" xlink:href="#linear-gradient"/><linearGradient id="linear-gradient-33" x1="2355.29" y1="13074.36" x2="3904.5" y2="13074.36" gradientTransform="matrix(0.04, -0.25, -0.25, -0.04, 6301.38, 4180.03)" xlink:href="#linear-gradient"/><linearGradient id="linear-gradient-34" x1="12309.62" y1="9379.59" x2="13858.82" y2="9379.59" gradientTransform="matrix(-0.23, -0.19, -0.19, 0.23, 7782.3, 3045.79)" xlink:href="#linear-gradient"/><linearGradient id="linear-gradient-35" x1="11592.13" y1="6688.94" x2="13141.34" y2="6688.94" gradientTransform="matrix(-0.35, -0.2, -0.2, 0.35, 8503.45, 2741.44)" xlink:href="#linear-gradient"/><linearGradient id="linear-gradient-36" x1="6143.3" y1="7948.19" x2="7692.5" y2="7948.19" gradientTransform="matrix(-0.09, -0.49, -0.49, 0.09, 7816.49, 5269.76)" xlink:href="#linear-gradient"/><linearGradient id="linear-gradient-37" x1="3028.6" y1="5955.59" x2="4577.8" y2="5955.59" gradientTransform="matrix(0.3, -0.52, -0.52, -0.3, 5575.83, 6585.43)" xlink:href="#linear-gradient"/><linearGradient id="linear-gradient-38" x1="6810.79" y1="6234.5" x2="8360" y2="6234.5" gradientTransform="matrix(-0.24, -0.66, -0.66, 0.24, 9225, 5807.81)" xlink:href="#linear-gradient"/><linearGradient id="linear-gradient-39" x1="9010.24" y1="3867.94" x2="10559.44" y2="3867.94" gradientTransform="matrix(-0.78, -0.29, -0.29, 0.78, 11388.69, 1949.64)" xlink:href="#linear-gradient"/><linearGradient id="linear-gradient-40" x1="4989.03" y1="5241.48" x2="6538.23" y2="5241.48" gradientTransform="matrix(0.16, -0.89, -0.89, -0.16, 7530.86, 8358.3)" xlink:href="#linear-gradient"/><linearGradient id="linear-gradient-41" x1="5831.66" y1="4947.84" x2="7380.86" y2="4947.84" gradientTransform="matrix(-0.09, -1.05, -1.05, 0.09, 9493.81, 8578.5)" xlink:href="#linear-gradient"/><linearGradient id="linear-gradient-42" x1="6555.06" y1="4547.58" x2="8104.26" y2="4547.58" gradientTransform="matrix(-0.45, -1.11, -1.11, 0.45, 11841.06, 7911.81)" xlink:href="#linear-gradient"/><linearGradient id="linear-gradient-43" x1="8123.91" y1="2549.17" x2="9673.11" y2="2549.17" gradientTransform="matrix(-1.33, 0, 0, 1.33, 13829.17, -1398.01)" xlink:href="#linear-gradient"/><linearGradient id="linear-gradient-44" x1="7544.11" y1="3459.21" x2="9093.31" y2="3459.21" gradientTransform="matrix(-1.26, -0.72, -0.72, 1.26, 15525.21, 3183.61)" xlink:href="#linear-gradient"/><linearGradient id="linear-gradient-45" x1="6355.85" y1="3981.31" x2="7905.05" y2="3981.31" gradientTransform="matrix(-0.55, -1.5, -1.5, 0.55, 13591.94, 9966.85)" xlink:href="#linear-gradient"/></defs><title>Asset 3serviceillustration</title><g id="Layer_2" data-name="Layer 2"><g id="Layer_1-2" data-name="Layer 1"><rect class="cls-1" x="3000" y="3000" width="2000" height="1500"/><circle class="cls-2" cx="3000" cy="3000" r="3000"/><g class="cls-3"><circle class="cls-4" cx="3000" cy="3000" r="2000"/><circle class="cls-5" cx="3000" cy="3000" r="1800"/><circle class="cls-6" cx="3000" cy="3000" r="1700"/><circle class="cls-7" cx="3000" cy="3000" r="1651"/><circle class="cls-8" cx="3000" cy="3000" r="1450"/><circle class="cls-9" cx="3000" cy="3000" r="1250"/><circle class="cls-10" cx="3000" cy="3000" r="1175"/><circle class="cls-11" cx="3000" cy="3000" r="900"/><circle class="cls-12" cx="3000" cy="3000" r="750"/><circle class="cls-13" cx="3000" cy="3000" r="500"/><circle class="cls-14" cx="3000" cy="3000" r="380"/><circle class="cls-15" cx="3000" cy="3000" r="250"/></g><g id="g"><path id="s" class="cls-16" d="M3057.76,3176.81a187.72,187.72,0,0,1-34.92,7.07,183.86,183.86,0,0,1-132.43-38.24,181.74,181.74,0,0,1-25.26-24.1,180.2,180.2,0,0,1-34.29-60,180.24,180.24,0,0,0,15.5,30.81,177.79,177.79,0,0,0,108.19,77.93,174.21,174.21,0,0,0,99.47-4.9,5.92,5.92,0,0,1,7.54,3.74,5.85,5.85,0,0,1-3.56,7.58l-.23.08Z"/><path class="cls-17" d="M3287.62,3115.67a312.09,312.09,0,0,1-28.39,52.15A306.42,306.42,0,0,1,3068.53,3296a300.8,300.8,0,0,1-171.14-14,300.69,300.69,0,0,0,55.94,13.21,296.35,296.35,0,0,0,215.4-54.65,290.41,290.41,0,0,0,100.32-132.24,10,10,0,0,1,18.72,7,2.06,2.06,0,0,1-.16.37Z"/><path class="cls-18" d="M3239.07,3305a390.78,390.78,0,0,1-63.33,38.72,383.1,383.1,0,0,1-286.52,19.51,376.1,376.1,0,0,1-176.49-122.16,375.91,375.91,0,0,0,52.3,49.25,370.23,370.23,0,0,0,267.33,75.47,363.12,363.12,0,0,0,191.25-80.45,12.34,12.34,0,0,1,17.44,1.95,12.22,12.22,0,0,1-1.58,17.37,3,3,0,0,1-.4.31Z"/><path class="cls-19" d="M3460.39,2934.54a469.13,469.13,0,0,1,2.23,89A459.63,459.63,0,0,1,3311,3333.05a451.16,451.16,0,0,1-232.85,110.11,450.55,450.55,0,0,0,82.57-24.79,444.37,444.37,0,0,0,238.83-232.54,435.74,435.74,0,0,0,31.14-247,15,15,0,0,1,29.6-4.88,3.93,3.93,0,0,1,.07.6Z"/><path class="cls-20" d="M3589.37,2807.45a624.5,624.5,0,0,1,23.55,116.41,612.78,612.78,0,0,1-127.46,441.45,601.64,601.64,0,0,1-280.25,198.51,600.44,600.44,0,0,0,102.68-51.68,592.51,592.51,0,0,0,259.76-360.63,580.7,580.7,0,0,0-16.31-331.58c-3.66-10.42,2.06-21.48,12.48-25.14a19.53,19.53,0,0,1,25.26,11.87,5.28,5.28,0,0,1,.24.77Z"/><path class="cls-21" d="M3657.92,3409.64a780.51,780.51,0,0,1-92.54,116.09,766.07,766.07,0,0,1-525.13,232.65A751.93,751.93,0,0,1,2625,3649.52a751.73,751.73,0,0,0,132,56.8,740.65,740.65,0,0,0,554-41,726,726,0,0,0,304.4-282c7-11.88,22.22-15.29,34.1-8.26s16,21.81,8.93,33.73a6.86,6.86,0,0,1-.55.85Z"/><path class="cls-22" d="M3288.82,3884.05a937.41,937.41,0,0,1-174.6,35.33A919.22,919.22,0,0,1,2452,3728.19a902.28,902.28,0,0,1-297.75-420.37,901.34,901.34,0,0,0,77.51,154,888.9,888.9,0,0,0,540.95,389.64A871.16,871.16,0,0,0,3270.1,3827c15.63-5.49,32.22,3.09,37.72,18.71s-2.14,32.39-17.81,37.9a9.56,9.56,0,0,1-1.15.36Z"/><path class="cls-23" d="M4006.69,3404.84a1093.8,1093.8,0,0,1-99.37,182.55,1072.54,1072.54,0,0,1-667.45,448.43,1052.8,1052.8,0,0,1-599-49.14,1051.49,1051.49,0,0,0,195.77,46.22,1036.88,1036.88,0,0,0,753.9-191.25,1016.37,1016.37,0,0,0,351.12-462.85c6.81-18.09,26.92-26.48,45-19.68s27.34,26.19,20.51,44.34a8.62,8.62,0,0,1-.55,1.29Z"/><path class="cls-24" d="M4141.82,2390.52a1304,1304,0,0,1,90.61,230.77,1279.3,1279.3,0,0,1-102,953.74,1255.58,1255.58,0,0,1-504.18,509.67,1254.54,1254.54,0,0,0,192.35-143.45,1237,1237,0,0,0,403.29-835.55A1212.39,1212.39,0,0,0,4068.17,2430c-11.31-20.09-3.56-44.9,16.53-56.21s44.89-4.9,56.24,15.25a11.6,11.6,0,0,1,.76,1.49Z"/><path class="cls-25" d="M3860.65,4097.93a1405.79,1405.79,0,0,1-228,139.38,1378.88,1378.88,0,0,1-1031.46,70.23,1353.41,1353.41,0,0,1-635.36-439.78,1352.16,1352.16,0,0,0,188.27,177.33,1333.26,1333.26,0,0,0,962.39,271.7A1306.95,1306.95,0,0,0,3805,4027.14c19.2-15.76,47-12.18,62.75,7s13.61,46.74-5.66,62.56a11.76,11.76,0,0,1-1.44,1.08Z"/><path class="cls-26" d="M4301.41,3977.4a1640.07,1640.07,0,0,1-214.84,225.9,1608.77,1608.77,0,0,1-1141.16,390.61,1579,1579,0,0,1-848.79-303.75,1577.28,1577.28,0,0,0,265.71,143,1555.49,1555.49,0,0,0,1166.56,15.58,1524.54,1524.54,0,0,0,688.43-534.31c16.88-23.56,49.29-27.92,72.84-11s29.45,48.56,12.51,72.21a13.68,13.68,0,0,1-1.29,1.66Z"/><path class="cls-27" d="M4748.92,3633.36a1874.21,1874.21,0,0,1-159.32,318.69,1838.61,1838.61,0,0,1-1116.68,808.2,1804.53,1804.53,0,0,1-1029.15-48.35A1802.39,1802.39,0,0,0,2782,4779.39a1777.79,1777.79,0,0,0,1280.17-372.77,1742.59,1742.59,0,0,0,573.86-814c10.57-31.39,44.53-47,75.92-36.4s48.41,43.24,37.8,74.74a16.42,16.42,0,0,1-.86,2.24Z"/><path class="cls-28" d="M4380.1,1462.27A2081,2081,0,0,1,4642,1759a2042.37,2042.37,0,0,1,367.73,1486.44,2004.49,2004.49,0,0,1-478.05,1039.84A2002.87,2002.87,0,0,0,4741.94,3965a1974.63,1974.63,0,0,0,148.77-1473.62,1935.55,1935.55,0,0,0-599.56-929.77c-27.93-24-29.85-65.42-5.9-93.35s64.68-31.86,92.71-7.82a18.5,18.5,0,0,1,1.95,1.81Z"/><path class="cls-29" d="M5136.46,2302a2265.11,2265.11,0,0,1,85.38,422,2221.71,2221.71,0,0,1-462,1600.28,2180.46,2180.46,0,0,1-1015.91,719.57,2177.73,2177.73,0,0,0,372.21-187.32,2148,2148,0,0,0,941.64-1307.29,2105.42,2105.42,0,0,0-59.12-1202c-13.28-37.76,7.46-77.86,45.21-91.14s78.26,5.15,91.59,43a20.3,20.3,0,0,1,.85,2.78Z"/><path class="cls-30" d="M5301,3925.35a2500,2500,0,0,1-227.12,417.25,2451.37,2451.37,0,0,1-1525.62,1025,2405.91,2405.91,0,0,1-1369.11-112.32,2403.61,2403.61,0,0,0,447.49,105.66,2370.26,2370.26,0,0,0,1723.2-437.15,2323.45,2323.45,0,0,0,802.56-1058c15.55-41.33,61.53-60.53,102.86-45s62.5,59.86,46.89,101.35a21.74,21.74,0,0,1-1.25,3Z"/></g><path class="cls-31" d="M2814.1,2993.81a186.8,186.8,0,0,1,5.3-35.23,183.86,183.86,0,0,1,81.23-111.38A180.57,180.57,0,0,1,3000,2820a180.6,180.6,0,0,0-34.25,4,177.83,177.83,0,0,0-110.23,75,174.23,174.23,0,0,0-29.42,95.15,5.93,5.93,0,0,1-6.1,5.81,5.86,5.86,0,0,1-5.9-5.94,1.93,1.93,0,0,1,0-.24Z"/><path class="cls-32" d="M2792.93,3230.72a312.88,312.88,0,0,1-39.3-44.52,306.47,306.47,0,0,1-55.17-223,300.79,300.79,0,0,1,71.73-156,300.8,300.8,0,0,0-31.55,48.05,296.42,296.42,0,0,0-22.32,221.1,290.38,290.38,0,0,0,90,139.5,10,10,0,0,1-13,15.18l-.29-.27Z"/><path class="cls-33" d="M2631.64,3120.34a390.9,390.9,0,0,1-14.72-72.75,383,383,0,0,1,79.67-275.91,375.95,375.95,0,0,1,175.15-124.06,375.73,375.73,0,0,0-64.17,32.29,370.34,370.34,0,0,0-162.35,225.4,363.11,363.11,0,0,0,10.19,207.23,12.35,12.35,0,0,1-7.79,15.72,12.22,12.22,0,0,1-15.8-7.42,2.9,2.9,0,0,1-.14-.48Z"/><path class="cls-34" d="M2904.05,3455a468.77,468.77,0,0,1-84.44-28.35,459.66,459.66,0,0,1-238.94-248.34,451,451,0,0,1-23.83-256.46,449.61,449.61,0,0,0-4.94,86.07,444.36,444.36,0,0,0,136.82,304,435.51,435.51,0,0,0,221.49,113.74,14.82,14.82,0,0,1,11.65,17.53,14.66,14.66,0,0,1-17.19,12,5.43,5.43,0,0,1-.58-.13Z"/><path class="cls-35" d="M2979.36,3619.68A624.83,624.83,0,0,1,2861.92,3602a612.86,612.86,0,0,1-371.24-270.76A601.51,601.51,0,0,1,2400,3000a600.86,600.86,0,0,0,13.44,114.16,592.56,592.56,0,0,0,250,367.44,580.82,580.82,0,0,0,317.16,98.08c11,.12,19.48,9.28,19.36,20.32a19.54,19.54,0,0,1-19.8,19.68,5.36,5.36,0,0,1-.8,0Z"/><path class="cls-36" d="M2390,3478.14a781.08,781.08,0,0,1-77.43-126.66,766,766,0,0,1-39-573,751.7,751.7,0,0,1,244.32-353,751.34,751.34,0,0,0-98.52,104.59,740.8,740.8,0,0,0-150.94,534.66,726.07,726.07,0,0,0,160.92,382.51c8.75,10.66,6.76,26.11-3.9,34.86s-26,7.56-34.76-3.15a6.83,6.83,0,0,1-.6-.79Z"/><path class="cls-37" d="M2070.48,2969A937.24,937.24,0,0,1,2097,2792.88,919.29,919.29,0,0,1,2503.14,2236,902.27,902.27,0,0,1,3000,2100a901.29,901.29,0,0,0-171.24,20.16,888.83,888.83,0,0,0-551.16,375.06A871.24,871.24,0,0,0,2130.48,2971c-.18,16.56-13.92,29.22-30.48,29s-29.7-13.08-29.52-29.7a8,8,0,0,1,.06-1.2Z"/><path class="cls-38" d="M2275.27,3807.51a1093,1093,0,0,1-137.55-155.81,1072.45,1072.45,0,0,1-193.11-780.57,1052.68,1052.68,0,0,1,251-546.06,1052.19,1052.19,0,0,0-110.4,168.16,1037,1037,0,0,0-78.12,773.85A1016.5,1016.5,0,0,0,2322,3755.33c14.66,12.58,15.67,34.35,3.09,49s-34,16.73-48.68,4.11a10.36,10.36,0,0,1-1-1Z"/><path class="cls-39" d="M3182.2,4281.41a1304.71,1304.71,0,0,1-247.84,6.23A1279.32,1279.32,0,0,1,2073,3865.58a1255.64,1255.64,0,0,1-306.49-648.09,1254.48,1254.48,0,0,0,69,229.82,1236.88,1236.88,0,0,0,647.22,664.74,1212.47,1212.47,0,0,0,687.57,86.67c22.74-3.76,43.41,12,47.16,34.75s-10.74,43.87-33.57,47.64a10.17,10.17,0,0,1-1.66.2Z"/><path class="cls-40" d="M1673.92,3433.23a1405.32,1405.32,0,0,1-53-261.91A1379,1379,0,0,1,1907.71,2178a1353.43,1353.43,0,0,1,630.56-446.62,1351.54,1351.54,0,0,0-231,116.26,1333.31,1333.31,0,0,0-584.47,811.43,1306.77,1306.77,0,0,0,36.7,746c8.24,23.43-4.63,48.33-28.07,56.57s-48.57-3.2-56.84-26.72a11.4,11.4,0,0,1-.53-1.72Z"/><path class="cls-41" d="M1636.44,3888.63a1639.63,1639.63,0,0,1-138.8-279.15,1608.67,1608.67,0,0,1,23.25-1205.93,1579,1579,0,0,1,575.73-693.71,1577.2,1577.2,0,0,0-225.24,200.78,1555.4,1555.4,0,0,0-413.63,1090.89,1524.57,1524.57,0,0,0,266.63,829.65c16.36,23.92,9.38,55.86-14.54,72.22s-55.71,11.06-72.13-12.94a13.65,13.65,0,0,1-1.12-1.78Z"/><path class="cls-42" d="M1806.67,4426.82a1875.09,1875.09,0,0,1-245-258.7,1838.52,1838.52,0,0,1-377.53-1325.76,1804.44,1804.44,0,0,1,397.42-950.55,1802.73,1802.73,0,0,0-179.08,294.7A1777.62,1777.62,0,0,0,1315,3517a1742.51,1742.51,0,0,0,568.62,817.65c25.88,20.68,28.91,57.92,8.24,83.8s-57.19,30.7-83.16,9.95a15,15,0,0,1-1.81-1.57Z"/><path class="cls-43" d="M3973,4822.81a2082.76,2082.76,0,0,1-368.39,144.66A2042.37,2042.37,0,0,1,2082,4804.62a2004.58,2004.58,0,0,1-813.64-804.87,2002.42,2002.42,0,0,0,229,307.07,1974.64,1974.64,0,0,0,1333.87,643.82A1935.53,1935.53,0,0,0,3910,4705.23c32.06-18,71.68-5.67,89.73,26.39s7.83,71.67-24.35,89.79a18.33,18.33,0,0,1-2.38,1.21Z"/><path class="cls-44" d="M2925.18,5246.34a2265.05,2265.05,0,0,1-425.72-64.09,2221.63,2221.63,0,0,1-1345.75-981.51A2180.38,2180.38,0,0,1,825,3000a2178.06,2178.06,0,0,0,48.72,413.83,2148,2148,0,0,0,906.39,1332,2105.51,2105.51,0,0,0,1149.71,355.54c40,.43,70.61,33.64,70.18,73.66s-31.61,71.77-71.78,71.34a18.86,18.86,0,0,1-2.9-.15Z"/><path class="cls-45" d="M1343.46,4845.74a2499.13,2499.13,0,0,1-314.39-356.13A2451.43,2451.43,0,0,1,587.69,2705.44a2406.16,2406.16,0,0,1,573.8-1248.13,2404.15,2404.15,0,0,0-252.34,384.36A2370.17,2370.17,0,0,0,730.58,3610.46a2323.14,2323.14,0,0,0,719.65,1116c33.52,28.76,35.83,78.53,7.08,112.05s-77.63,38.25-111.27,9.39a22,22,0,0,1-2.35-2.18Z"/><path class="cls-46" d="M3098.31,2842.1a186.65,186.65,0,0,1,27.86,22.21,183.8,183.8,0,0,1,55.84,126,180.27,180.27,0,0,1-26.13,99.66,180.19,180.19,0,0,0,13.64-31.68,177.85,177.85,0,0,0-9.85-133,174.32,174.32,0,0,0-67.69-73,6,6,0,0,1,6.12-10.33l.2.13Z"/><path class="cls-47" d="M2903.73,2705.32a312,312,0,0,1,58.2-11.78,306.43,306.43,0,0,1,220.73,63.73,300.81,300.81,0,0,1,99.25,140.12,301,301,0,0,0-25.84-51.34,296.39,296.39,0,0,0-180.32-129.88,290.46,290.46,0,0,0-165.78,8.16,9.89,9.89,0,0,1-12.58-6.24,9.78,9.78,0,0,1,5.94-12.63,2.78,2.78,0,0,1,.38-.12Z"/><path class="cls-48" d="M3080,2620.82a391.64,391.64,0,0,1,70.36,23.63,383.1,383.1,0,0,1,199.12,207,375.83,375.83,0,0,1,19.86,213.72,375.52,375.52,0,0,0,4.12-71.73,370.29,370.29,0,0,0-114-253.29,363,363,0,0,0-184.57-94.79,12.35,12.35,0,0,1-9.71-14.61,12.21,12.21,0,0,1,14.32-10,4.31,4.31,0,0,1,.49.11Z"/><path class="cls-49" d="M2653.92,2689.4a468.43,468.43,0,0,1,66.78-59,459.7,459.7,0,0,1,334.53-82.76,451.2,451.2,0,0,1,234,107.59,450.42,450.42,0,0,0-72.06-47.31,444.48,444.48,0,0,0-331.65-33.49,435.62,435.62,0,0,0-209.25,134.94,14.82,14.82,0,0,1-21,1.33,14.66,14.66,0,0,1-1.76-20.87,3.39,3.39,0,0,1,.41-.44Z"/><path class="cls-50" d="M2473.66,2672.29a624.74,624.74,0,0,1,74-92.87A612.81,612.81,0,0,1,2967.8,2393.3a601.45,601.45,0,0,1,332.2,87.08,601.05,601.05,0,0,0-105.59-45.44,592.58,592.58,0,0,0-443.23,32.83,580.95,580.95,0,0,0-243.52,225.62c-5.62,9.5-17.77,12.23-27.28,6.61a19.55,19.55,0,0,1-7.14-27,4.83,4.83,0,0,1,.44-.67Z"/><path class="cls-51" d="M2890.9,2232.69a780.88,780.88,0,0,1,148.41-3.73,766.16,766.16,0,0,1,515.77,252.73,752,752,0,0,1,183.53,388.07,751.67,751.67,0,0,0-41.33-137.61,740.67,740.67,0,0,0-387.56-398.05A726,726,0,0,0,2898,2282.21c-13.62,2.24-26-7.2-28.25-20.82s6.44-26.26,20.11-28.52a6.53,6.53,0,0,1,1-.12Z"/><path class="cls-52" d="M3491.57,2210.49a937.11,937.11,0,0,1,139.3,111.05,919.33,919.33,0,0,1,279.19,630.16A902.16,902.16,0,0,1,3779.42,3450a901.11,901.11,0,0,0,68.16-158.38,888.76,888.76,0,0,0-49.23-664.85,871.22,871.22,0,0,0-338.44-365.28c-14.25-8.43-18.35-26.66-9.91-40.91s26.18-19.18,40.48-10.72a8.26,8.26,0,0,1,1,.65Z"/><path class="cls-53" d="M2663,1968.61a1093.29,1093.29,0,0,1,203.71-41.22,1072.52,1072.52,0,0,1,772.55,223,1052.66,1052.66,0,0,1,347.38,490.44,1051.82,1051.82,0,0,0-90.43-179.69,1036.94,1036.94,0,0,0-631.11-454.58,1016.47,1016.47,0,0,0-580.26,28.54c-18.23,6.41-37.59-3.6-44-21.83s2.49-37.78,20.78-44.21a9,9,0,0,1,1.34-.41Z"/><path class="cls-54" d="M1799.17,2517.08a1304.44,1304.44,0,0,1,118.53-217.75,1279.23,1279.23,0,0,1,796.17-534.91A1255.63,1255.63,0,0,1,3428.38,1823a1254.56,1254.56,0,0,0-233.53-55.15A1237.06,1237.06,0,0,0,2295.55,1996a1212.31,1212.31,0,0,0-418.83,552.12c-8.12,21.57-32.11,31.59-53.68,23.47s-32.62-31.24-24.47-52.89a10.93,10.93,0,0,1,.65-1.54Z"/><path class="cls-55" d="M3287.85,1635A1405.31,1405.31,0,0,1,3541.17,1720,1378.94,1378.94,0,0,1,4258,2465a1353.3,1353.3,0,0,1,71.51,769.4,1351.32,1351.32,0,0,0,14.82-258.21,1333.19,1333.19,0,0,0-410.48-911.88,1306.85,1306.85,0,0,0-664.45-341.24c-24.41-4.58-39.53-28.17-35-52.59s27.05-40.47,51.56-35.87a11.67,11.67,0,0,1,1.75.4Z"/><path class="cls-56" d="M2912.2,1374.81a1640.1,1640.1,0,0,1,311.15,19.36A1608.81,1608.81,0,0,1,4256.1,2017.28,1579,1579,0,0,1,4569,2862.73a1577.21,1577.21,0,0,0-61.27-295.46,1555.34,1555.34,0,0,0-737.92-903.65A1524.74,1524.74,0,0,0,2918,1479.7c-28.9,2.21-53.07-19.81-55.28-48.71s18.27-53.77,47.27-56a14.83,14.83,0,0,1,2.11-.08Z"/><path class="cls-57" d="M2361,1253.13a1874.42,1874.42,0,0,1,346.54-82.8,1838.53,1838.53,0,0,1,1336.91,335.93,1804.56,1804.56,0,0,1,624.48,819.45,1803.13,1803.13,0,0,0-165.68-302.44,1777.67,1777.67,0,0,0-1108.43-741,1742.52,1742.52,0,0,0-992.42,83.61c-30.85,12.08-64.62-3.92-76.69-34.76s2-64.88,33-77a14.5,14.5,0,0,1,2.27-.79Z"/><path class="cls-58" d="M934.92,2931.22a2081,2081,0,0,1,58.92-391.37,2042.37,2042.37,0,0,1,902.3-1237.16A2004.48,2004.48,0,0,1,3000,1000.5a2002.45,2002.45,0,0,0-380.44,44.79,1974.58,1974.58,0,0,0-1224.49,833.26,1935.43,1935.43,0,0,0-326.85,1056.93c-.4,36.79-30.93,64.92-67.72,64.52s-66-29.06-65.58-66a18.3,18.3,0,0,1,.13-2.67Z"/><path class="cls-59" d="M1092,1812a2265.9,2265.9,0,0,1,268.37-336.64A2221.58,2221.58,0,0,1,2883.27,800.7,2180.43,2180.43,0,0,1,4087.5,1116.39a2178.5,2178.5,0,0,0-382.75-164.72,2147.92,2147.92,0,0,0-1606.71,119,2105.38,2105.38,0,0,0-882.76,817.9c-20.39,34.44-64.44,44.34-98.89,24s-46.35-63.26-25.89-97.83a19.17,19.17,0,0,1,1.58-2.44Z"/><path class="cls-60" d="M2229.81,642.53a2499.42,2499.42,0,0,1,465.62-94.21,2451.4,2451.4,0,0,1,1765.82,509.83,2406,2406,0,0,1,794,1121,2402.31,2402.31,0,0,0-206.7-410.71A2370.21,2370.21,0,0,0,3606,729.39a2323.24,2323.24,0,0,0-1326.31,65.24c-41.66,14.65-85.92-8.23-100.57-49.89s5.69-86.36,47.5-101.06a21.68,21.68,0,0,1,3.06-.95Z"/><circle class="cls-61" cx="3000" cy="3000" r="3000"/></g></g></svg>