<svg width="3000" height="198" viewBox="0 0 3000 198" fill="none" xmlns="http://www.w3.org/2000/svg">
<path d="M0 0L71.25 5.81981C142.812 11.5764 285.312 23.216 428.125 22.8997C570.938 22.5834 713.437 10.3112 856.25 8.41342C999.063 6.51566 1141.56 14.9923 1285 15.9412C1428.13 16.8901 1571.87 10.3112 1715 17.3962C1858.44 24.4811 2000.94 45.1035 2143.75 49.6581C2286.56 54.2128 2429.06 42.5732 2571.88 39.4102C2714.69 36.2473 2857.19 41.561 2928.75 44.1546L3000 46.8115V198H2928.75C2857.19 198 2714.69 198 2571.88 198C2429.06 198 2286.56 198 2143.75 198C2000.94 198 1858.44 198 1715 198C1571.87 198 1428.13 198 1285 198C1141.56 198 999.063 198 856.25 198C713.437 198 570.938 198 428.125 198C285.312 198 142.812 198 71.25 198H0V0Z" fill="#FA541C"/>
<path d="M0 62.1281L71.25 61.978C142.812 61.9029 285.312 61.6026 428.125 61.9029C570.938 62.1281 713.437 62.8788 856.25 65.6563C999.063 68.3587 1141.56 73.163 1285 66.1067C1428.13 59.1254 1571.87 40.3586 1715 29.699C1858.44 19.1145 2000.94 16.5622 2143.75 25.195C2286.56 33.8277 2429.06 53.6455 2571.88 59.2756C2714.69 64.9056 2857.19 56.3479 2928.75 52.1442L3000 47.8653V198H2928.75C2857.19 198 2714.69 198 2571.88 198C2429.06 198 2286.56 198 2143.75 198C2000.94 198 1858.44 198 1715 198C1571.87 198 1428.13 198 1285 198C1141.56 198 999.063 198 856.25 198C713.437 198 570.938 198 428.125 198C285.312 198 142.812 198 71.25 198H0V62.1281Z" fill="#FB7435"/>
<path d="M0 34L71.25 40.3642C142.812 46.8099 285.312 59.5383 428.125 60.9254C570.938 62.3124 713.437 52.195 856.25 50.5632C999.063 48.9313 1141.56 55.7851 1285 54.6428C1428.13 53.5821 1571.87 44.607 1715 50.3184C1858.44 56.0299 2000.94 76.4279 2143.75 88.0955C2286.56 99.8448 2429.06 102.782 2571.88 99.6816C2714.69 96.5811 2857.19 87.2796 2928.75 82.7105L3000 78.0597V198H2928.75C2857.19 198 2714.69 198 2571.88 198C2429.06 198 2286.56 198 2143.75 198C2000.94 198 1858.44 198 1715 198C1571.87 198 1428.13 198 1285 198C1141.56 198 999.063 198 856.25 198C713.437 198 570.938 198 428.125 198C285.312 198 142.812 198 71.25 198H0V34Z" fill="#FB8E4F"/>
<path d="M0 100.686L71.25 105.628C142.812 110.57 285.312 120.453 428.125 122.354C570.938 124.255 713.437 118.172 856.25 113.383C999.063 108.517 1141.56 105.02 1285 100.914C1428.13 96.885 1571.87 92.3235 1715 93.0837C1858.44 93.844 2000.94 99.9261 2143.75 102.359C2286.56 104.716 2429.06 103.499 2571.88 108.289C2714.69 113.079 2857.19 124.026 2928.75 129.424L3000 134.898V198H2928.75C2857.19 198 2714.69 198 2571.88 198C2429.06 198 2286.56 198 2143.75 198C2000.94 198 1858.44 198 1715 198C1571.87 198 1428.13 198 1285 198C1141.56 198 999.063 198 856.25 198C713.437 198 570.938 198 428.125 198C285.312 198 142.812 198 71.25 198H0V100.686Z" fill="#FBA56C"/>
<path d="M0 163.829L71.25 161.982C142.812 160.134 285.312 156.44 428.125 149.237C570.938 141.941 713.437 131.227 856.25 129.196C999.063 127.164 1141.56 133.998 1285 135.014C1428.13 136.122 1571.87 131.504 1715 129.011C1858.44 126.61 2000.94 126.24 2143.75 128.549C2286.56 130.858 2429.06 135.845 2571.88 138.431C2714.69 141.017 2857.19 141.386 2928.75 141.479L3000 141.664V198H2928.75C2857.19 198 2714.69 198 2571.88 198C2429.06 198 2286.56 198 2143.75 198C2000.94 198 1858.44 198 1715 198C1571.87 198 1428.13 198 1285 198C1141.56 198 999.063 198 856.25 198C713.437 198 570.938 198 428.125 198C285.312 198 142.812 198 71.25 198H0V163.829Z" fill="#FABB8B"/>
</svg>
