<svg xmlns="http://www.w3.org/2000/svg" viewBox="0 0 405.5 345.6"><defs><style>.cls-1{fill:#e5f3f9;}.cls-2{fill:#262262;}.cls-3{fill:#fff;}.cls-4{fill:#acd4f7;}.cls-5{fill:#fdaf38;}.cls-6{fill:#fe6f2c;}</style></defs><title>Asset 2serviceillustration</title><g id="Layer_2" data-name="Layer 2"><g id="Layer_1-2" data-name="Layer 1"><path class="cls-1" d="M383.44,204.75c-12.88,7.92-30.45,8.5-42,17.93S328,247.54,320.58,259.91c-14,23.49-46.73,33.6-76.29,33.78-26.84.17-56-7.7-69.1-28.13-5.67-8.81-8.92-20.25-19.44-24.26-9.94-3.8-21.76,1.19-30,7.78s-15,14.93-24.48,20c-12.5,6.66-28.44,6.53-41.59,1.72S35.86,257,27.38,246.91a109.74,109.74,0,0,1-17.52-112c5-12,12.29-23.62,23.35-31.91,24.66-18.5,60.29-16.13,91.07-24.07C135,76.12,146,71.55,152.1,63.2c4.63-6.29,6-13.91,8.69-21C168.5,22.13,188.77,6,212,1.38s48.58,2.53,64,18c9.72,9.75,18.46,23.74,33.36,23.21,4.68-.16,9.15-1.87,13.75-2.76,16.13-3.12,32.66,4.34,43.07,15.32s31.89,34,37.21,70.51C409.94,170.44,400.53,194.25,383.44,204.75Z"/><path class="cls-1" d="M112.77,73c12.55-1,26.32-10.63,26.26-22.71,0-7.67-5.64-15.91-14.14-18-11.22-2.79-21.43,6.64-26.61,11.43-4.81,4.45-11.63,10.75-10.1,17.53C90,69.29,102.75,73.76,112.77,73Z"/><path class="cls-1" d="M364.65,269.63c12.1-.94,25.38-10.24,25.32-21.89a18.55,18.55,0,0,0-13.63-17.38c-10.83-2.68-20.67,6.41-25.66,11-4.64,4.29-11.21,10.37-9.75,16.91C342.69,266.08,355,270.39,364.65,269.63Z"/><path class="cls-1" d="M132.46,271.87c-2.67,7.48.65,17.63,9.46,20.34,5.59,1.72,13.1.36,16.92-4.08,5-5.85.93-13.9-1.16-18-1.94-3.8-4.7-9.17-10-9.83C141.26,259.54,134.58,265.9,132.46,271.87Z"/><path class="cls-2" d="M318,37.44h-.08a.39.39,0,0,1-.29-.45,18.15,18.15,0,0,1,6.05-10,.38.38,0,0,1,.49.58,17.3,17.3,0,0,0-5.8,9.62A.38.38,0,0,1,318,37.44Z"/><path class="cls-2" d="M312.36,35.44h0A.38.38,0,0,1,312,35a12.6,12.6,0,0,1,3.79-7.49.39.39,0,0,1,.53,0,.38.38,0,0,1,0,.53,11.86,11.86,0,0,0-3.55,7A.38.38,0,0,1,312.36,35.44Z"/><path class="cls-2" d="M357.59,238.17a.37.37,0,0,1-.27-.12,35.06,35.06,0,0,1-6.36-9.3.36.36,0,0,1,.18-.49.37.37,0,0,1,.5.18,34.5,34.5,0,0,0,6.22,9.1.37.37,0,0,1,0,.53A.4.4,0,0,1,357.59,238.17Z"/><path class="cls-2" d="M349,239.38a.38.38,0,0,1-.35-.23,31.15,31.15,0,0,1-1.94-7.84.37.37,0,0,1,.74-.08,30.44,30.44,0,0,0,1.9,7.64.38.38,0,0,1-.21.49Z"/><path class="cls-2" d="M24.12,202.83a.36.36,0,0,1-.2-.06,34.92,34.92,0,0,1-8.4-7.5.38.38,0,0,1,.06-.53.37.37,0,0,1,.52,0,34.07,34.07,0,0,0,8.22,7.35.37.37,0,0,1-.2.69Z"/><path class="cls-2" d="M20.93,206.63h-.09a31.34,31.34,0,0,1-7.52-2.94.38.38,0,0,1,.37-.66A29.64,29.64,0,0,0,21,205.89a.38.38,0,0,1,.27.46A.36.36,0,0,1,20.93,206.63Z"/><path class="cls-3" d="M43,200.35c-15.6-2.88-27.07-17.46-23.52-36.72,2.85-15.49,15.47-28,34.49-24.52C71.4,142.32,80.62,157,77.22,175.44,74.78,188.68,65.06,204.41,43,200.35Z"/><path class="cls-2" d="M49.86,201.38a37.77,37.77,0,0,1-6.94-.67,29.46,29.46,0,0,1-19.19-12.37c-4.74-7-6.34-15.51-4.64-24.78A32.13,32.13,0,0,1,30.41,144c6.44-5.06,14.6-6.87,23.6-5.21,17.56,3.23,27,18,23.57,36.77-.83,4.51-3.21,13-9.86,19.15A25.42,25.42,0,0,1,49.86,201.38ZM43.05,200c20.87,3.84,31.14-10.19,33.8-24.61,3.37-18.32-5.86-32.74-23-35.89-8.78-1.62-16.74.13-23,5.06a31.36,31.36,0,0,0-11,19.16C16.09,184,28.68,197.33,43.05,200Z"/><path class="cls-3" d="M45.47,186.05c-8.54-1.58-14.85-9.39-13-19.66,1.52-8.27,8.39-14.92,18.81-13C60.87,155.14,66,163,64.14,172.84,62.84,179.9,57.56,188.27,45.47,186.05Z"/><path class="cls-2" d="M49.32,186.79a21.82,21.82,0,0,1-3.92-.38,16.49,16.49,0,0,1-10.63-6.72,17.32,17.32,0,0,1-2.63-13.37,17.08,17.08,0,0,1,6.21-10.55,16,16,0,0,1,13-2.75,16.08,16.08,0,0,1,10.92,6.85,17.48,17.48,0,0,1,2.2,13,18.5,18.5,0,0,1-5.4,10.3A14.11,14.11,0,0,1,49.32,186.79ZM47.8,153.43a14.48,14.48,0,0,0-9,2.94,16.27,16.27,0,0,0-5.93,10.09,16.56,16.56,0,0,0,2.51,12.8,15.73,15.73,0,0,0,10.15,6.42h0c5.34,1,9.74,0,13.06-3a17.9,17.9,0,0,0,5.17-9.88c.87-4.76.15-9.07-2.09-12.49a15.39,15.39,0,0,0-10.43-6.53A19.78,19.78,0,0,0,47.8,153.43Z"/><path class="cls-2" d="M38.32,173.4h-.16a.91.91,0,0,1-.66-.61.91.91,0,0,1,1.19-1.1h0a1,1,0,0,1,.5,1,.93.93,0,0,1-.38.55A1,1,0,0,1,38.32,173.4Zm.06-1a.2.2,0,0,0-.12.06.16.16,0,0,0,0,.14.12.12,0,0,0,.09.08.11.11,0,0,0,.09,0,.1.1,0,0,0,.05-.07.22.22,0,0,0-.05-.18Z"/><path class="cls-2" d="M47.78,181.12l-.16,0a.87.87,0,0,1-.66-.61.91.91,0,0,1,1.19-1.09h0a1,1,0,0,1,.5,1,.91.91,0,0,1-.38.54A.88.88,0,0,1,47.78,181.12Zm.06-1a.16.16,0,0,0-.12.06.14.14,0,0,0,0,.13.14.14,0,0,0,.09.09.15.15,0,0,0,.09,0s0,0,0-.07a.23.23,0,0,0,0-.19Z"/><path class="cls-2" d="M58.15,173.89H58a.91.91,0,0,1-.66-.61.91.91,0,0,1,1.19-1.1h0a1,1,0,0,1,.5,1,.93.93,0,0,1-.38.55A1,1,0,0,1,58.15,173.89Zm.06-1a.2.2,0,0,0-.12.06.16.16,0,0,0,0,.14.12.12,0,0,0,.09.08.11.11,0,0,0,.09,0,.1.1,0,0,0,.05-.07.22.22,0,0,0-.05-.18Z"/><path class="cls-2" d="M55,162.25l-.17,0a.88.88,0,0,1-.65-.61.9.9,0,0,1,1.18-1.09h0a.92.92,0,0,1,.5,1,.85.85,0,0,1-.38.55A.91.91,0,0,1,55,162.25Zm0-1a.21.21,0,0,0-.12.05.15.15,0,0,0,0,.14.11.11,0,0,0,.09.08.09.09,0,0,0,.08,0,.19.19,0,0,0,.06-.07.26.26,0,0,0-.06-.18Z"/><path class="cls-2" d="M42.56,161.71l-.16,0a.86.86,0,0,1-.66-.61.93.93,0,0,1,.19-.84.91.91,0,0,1,1-.25h0a.93.93,0,0,1,.49,1,.88.88,0,0,1-.86.69Zm.06-1a.14.14,0,0,0-.12.06.14.14,0,0,0,0,.13.14.14,0,0,0,.09.09l.08,0s.06-.05.06-.07a.33.33,0,0,0,0-.19Z"/><path class="cls-3" d="M47.48,174.47a4.67,4.67,0,0,1-3.68-5.72,4.46,4.46,0,0,1,5.39-3.81c2.73.5,4.17,2.78,3.64,5.66C52.45,172.66,50.93,175.1,47.48,174.47Z"/><path class="cls-2" d="M48.54,174.94a6.57,6.57,0,0,1-1.13-.1h0a5.08,5.08,0,0,1-4-6.16,5,5,0,0,1,9.12-2,5.43,5.43,0,0,1,.65,4C52.82,172.74,51.37,174.94,48.54,174.94Zm-1-.84c3,.56,4.53-1.48,4.91-3.57a4.68,4.68,0,0,0-.55-3.45,4.07,4.07,0,0,0-2.79-1.77,4.13,4.13,0,0,0-5,3.51,4.29,4.29,0,0,0,3.39,5.28Z"/><path class="cls-2" d="M51.14,197.72h0a.13.13,0,0,1-.07-.17l3.25-8.67a.12.12,0,0,1,.16-.07.12.12,0,0,1,.08.16l-3.26,8.67A.13.13,0,0,1,51.14,197.72Z"/><path class="cls-2" d="M71.72,182.81a.14.14,0,0,1-.11-.06L67,174.91a.13.13,0,0,1,0-.17.12.12,0,0,1,.17,0l4.59,7.84a.13.13,0,0,1,0,.17Z"/><path class="cls-2" d="M44,150.89h0a.12.12,0,0,1-.1-.15l1.52-9.15a.12.12,0,1,1,.24,0l-1.52,9.15A.13.13,0,0,1,44,150.89Z"/><path class="cls-2" d="M25.17,184.54a.12.12,0,0,1,0-.24l8.53-2.65a.13.13,0,0,1,.08.24l-8.53,2.64Z"/><path class="cls-2" d="M30.2,162.89l-.09,0-6.57-6.09a.12.12,0,1,1,.17-.18l6.57,6.08a.13.13,0,0,1,0,.18A.11.11,0,0,1,30.2,162.89Z"/><path class="cls-4" d="M80.26,172.94,74,165.5a18.56,18.56,0,0,1-3.7-5.72c-.39-1.11-.56-2.3-.94-3.41A9.71,9.71,0,0,0,66,151.65c-1.4-1.05-3.33-1.28-4.57-2.54a85.54,85.54,0,0,1-10.24-13c5.7-1.36,12.08-1.05,16.83,2.4,2.15,1.56,3.82,4.47,6.09,5.85a12.11,12.11,0,0,1,3.51,2.47c.76.95.82,2.92,1.15,4.1.59,2.08,3.26,5.18,3.84,7.26C84.13,163.63,83.72,168.19,80.26,172.94Z"/><path class="cls-2" d="M80.26,173.32a.37.37,0,0,1-.29-.14l-6.25-7.44A19.06,19.06,0,0,1,70,159.9c-.2-.59-.35-1.19-.49-1.78s-.27-1.11-.44-1.63A9.49,9.49,0,0,0,65.78,152a9.23,9.23,0,0,0-2-1,7.72,7.72,0,0,1-2.63-1.55,85.82,85.82,0,0,1-10.3-13,.39.39,0,0,1,0-.35.34.34,0,0,1,.26-.22c6.57-1.57,12.82-.68,17.14,2.46A18.22,18.22,0,0,1,71.08,141a15.08,15.08,0,0,0,3.23,3c.27.17.56.33.84.48a9,9,0,0,1,2.77,2.08,6.9,6.9,0,0,1,1,3c.08.47.15.91.25,1.27A16.2,16.2,0,0,0,81,154.37a16.7,16.7,0,0,1,2,3.73c1.65,5.87.91,10.52-2.41,15.06a.41.41,0,0,1-.29.16ZM51.8,136.37a83,83,0,0,0,9.9,12.48,7.06,7.06,0,0,0,2.39,1.39,9.06,9.06,0,0,1,5.64,6c.19.56.32,1.13.46,1.69s.28,1.16.47,1.72a18.21,18.21,0,0,0,3.64,5.6l5.93,7.07c3-4.26,3.57-8.49,2-14a16.79,16.79,0,0,0-1.87-3.53,16.52,16.52,0,0,1-2-3.72,13.41,13.41,0,0,1-.27-1.35,6.43,6.43,0,0,0-.81-2.62,8.27,8.27,0,0,0-2.55-1.89l-.86-.5a15.9,15.9,0,0,1-3.4-3.18,18.63,18.63,0,0,0-2.72-2.69C63.77,135.9,58,135,51.8,136.37Z"/><path class="cls-2" d="M60,143.84a.11.11,0,0,1-.09,0,31.07,31.07,0,0,1-4.49-6.22.12.12,0,0,1,.05-.17.13.13,0,0,1,.17.05A31,31,0,0,0,60,143.63a.13.13,0,0,1,0,.18A.16.16,0,0,1,60,143.84Z"/><path class="cls-2" d="M58.84,138.92a.16.16,0,0,1-.1,0l-1.31-1.61a.12.12,0,0,1,0-.18.12.12,0,0,1,.17,0l1.32,1.61a.14.14,0,0,1,0,.18A.11.11,0,0,1,58.84,138.92Z"/><path class="cls-3" d="M188.62,260c-1.26-1-2.2-1-3.24-1.77-.1-1.22-.42-3.32-.57-4.55,1.17-1.05,1.79-1.3,2.8-2.18a.88.88,0,0,0-.21-.49c-.25-.39-.5-.78-.77-1.16a23.53,23.53,0,0,0-3.36-3.88c-1.16,1.06-2.11,2.09-3.07,3.12a16.45,16.45,0,0,0-4.42-1,32.89,32.89,0,0,0-.78-4.19,19,19,0,0,0-5.87,1.76,20.61,20.61,0,0,0,1.12,3.3,31.45,31.45,0,0,0-3.28,3.24c-1.37-.75-2.5-1.12-3.79-1.84a12,12,0,0,0-2.3,6.63c1.46.19,2.32.14,3.66.24a17.26,17.26,0,0,0,1.3,4.5c-1.08,1-1.68,1.91-2.63,2.68a11.08,11.08,0,0,0,3.58,4.49c1-1,1.55-1.62,2.42-2.49a19.62,19.62,0,0,0,4.27,1.35,14.17,14.17,0,0,1,.64,3.32,16.37,16.37,0,0,0,6.35-.27,28.12,28.12,0,0,0-.37-3.54,14.49,14.49,0,0,0,3.21-3.13,19.32,19.32,0,0,1,3.14.91A12.93,12.93,0,0,0,188.62,260Zm-12,1.79c-.92.33-1.85.61-4.27-.93-1-.61-3-3.16-.49-6.33a3.75,3.75,0,0,1,3.43-1.39,5.75,5.75,0,0,1,3,1.17,4.32,4.32,0,0,1,1.33,4.21A4.72,4.72,0,0,1,176.64,261.79Z"/><path class="cls-2" d="M176.54,271.61a15.66,15.66,0,0,1-2.48-.2.37.37,0,0,1-.31-.33l0-.18a13.15,13.15,0,0,0-.54-2.84,19.78,19.78,0,0,1-3.71-1.18l-.18-.07c-.82.82-1.41,1.43-2.24,2.31a.39.39,0,0,1-.5,0,11.5,11.5,0,0,1-3.69-4.65.35.35,0,0,1,.1-.43,12.11,12.11,0,0,0,1.34-1.34c.33-.36.67-.74,1.09-1.14a17.28,17.28,0,0,1-1.19-4.06l-1.06-.05a19,19,0,0,1-2.32-.17.37.37,0,0,1-.32-.37,12.28,12.28,0,0,1,2.36-6.84.37.37,0,0,1,.5-.12c.63.36,1.22.62,1.85.91s1.07.48,1.66.79a28.78,28.78,0,0,1,2.66-2.63l.26-.24a19.86,19.86,0,0,1-1-3.11.37.37,0,0,1,.2-.42,19.43,19.43,0,0,1,6-1.8.37.37,0,0,1,.42.28,32.81,32.81,0,0,1,.75,3.93,16.69,16.69,0,0,1,4,1c.89-1,1.82-2,2.91-3a.38.38,0,0,1,.51,0,23.7,23.7,0,0,1,3.42,3.93l.78,1.18a1.32,1.32,0,0,1,.27.7.37.37,0,0,1-.13.28c-.49.42-.89.7-1.28,1a15.8,15.8,0,0,0-1.37,1.06c0,.4.11.87.18,1.36.13,1,.27,2,.34,2.84a7.9,7.9,0,0,0,1.2.6,8.51,8.51,0,0,1,1.92,1.07.39.39,0,0,1,.13.38,13,13,0,0,1-2.23,5.15.39.39,0,0,1-.42.14l-.9-.31a13.85,13.85,0,0,0-2-.55,14.66,14.66,0,0,1-2.95,2.88,9.4,9.4,0,0,1,.2,1.84c0,.45.05.92.12,1.49a.39.39,0,0,1-.29.42A18,18,0,0,1,176.54,271.61Zm-2.08-.89a16.14,16.14,0,0,0,5.6-.24c-.05-.46-.07-.86-.09-1.22a8.91,8.91,0,0,0-.23-1.94.38.38,0,0,1,.14-.4,14.13,14.13,0,0,0,3.13-3,.38.38,0,0,1,.36-.15,12.74,12.74,0,0,1,2.3.63l.63.21a12.48,12.48,0,0,0,1.9-4.41,7.61,7.61,0,0,0-1.57-.84,7.51,7.51,0,0,1-1.47-.78.4.4,0,0,1-.16-.28c-.06-.78-.22-1.94-.36-3-.07-.58-.15-1.13-.2-1.57a.38.38,0,0,1,.12-.32,15.18,15.18,0,0,1,1.59-1.24c.34-.24.66-.47,1-.79l-.1-.15c-.23-.36-.5-.77-.77-1.16a23.66,23.66,0,0,0-3-3.58c-1,1-1.93,1.93-2.79,2.86a.4.4,0,0,1-.41.1,16.17,16.17,0,0,0-4.33-1,.39.39,0,0,1-.34-.33,32.67,32.67,0,0,0-.68-3.81,18.94,18.94,0,0,0-5.16,1.54,20.05,20.05,0,0,0,1,2.8l.06.16a.38.38,0,0,1-.09.42l-.46.41a28.12,28.12,0,0,0-2.78,2.79.37.37,0,0,1-.47.09c-.67-.37-1.28-.64-1.88-.91s-1-.48-1.61-.77a11.63,11.63,0,0,0-2,5.81c.73.08,1.31.1,1.91.13l1.4.06a.37.37,0,0,1,.34.33,16.27,16.27,0,0,0,1.28,4.4.38.38,0,0,1-.09.43c-.48.44-.86.87-1.23,1.27a13.93,13.93,0,0,1-1.2,1.23,10.73,10.73,0,0,0,3.08,3.89c.77-.82,1.35-1.41,2.19-2.26a.37.37,0,0,1,.4-.08l.41.16a17.89,17.89,0,0,0,3.78,1.17.36.36,0,0,1,.31.25A14,14,0,0,1,174.46,270.72Zm.94-8.3a6.15,6.15,0,0,1-3.23-1.25,4.45,4.45,0,0,1-1.81-2.89,5,5,0,0,1,1.23-4,4.1,4.1,0,0,1,3.78-1.53,6.08,6.08,0,0,1,3.2,1.25,4.71,4.71,0,0,1,1.45,4.59,5.1,5.1,0,0,1-3.25,3.54h0A4.12,4.12,0,0,1,175.4,262.42Zm1.24-.63h0Zm-1.82-8.32a3.46,3.46,0,0,0-2.64,1.3,4.25,4.25,0,0,0-1.08,3.39,3.79,3.79,0,0,0,1.47,2.38c2.31,1.48,3.1,1.2,4,.9h0a4.37,4.37,0,0,0,2.77-3,3.93,3.93,0,0,0-1.21-3.84,5.33,5.33,0,0,0-2.82-1.08A2.25,2.25,0,0,0,174.82,253.47Z"/><path class="cls-3" d="M284.86,81.44c.88,1.18,1.69,2.15,2.42,3.15,2.1-1,6-3.08,7.92-4.35.81-.51.95-2,.8-2.84,10.61-8.31,26.74-21.52,26.85-22-2.69-4-2.81-3.13-2.87-3.08-6.5,5.12-17.35,14.4-26.49,21.94a3.17,3.17,0,0,0-2.84.41C288.71,76.71,286.18,79.83,284.86,81.44Z"/><path class="cls-2" d="M287.28,85a.37.37,0,0,1-.3-.15c-.38-.52-.78-1-1.2-1.57s-.8-1-1.22-1.59a.38.38,0,0,1,0-.46l.34-.41c1.37-1.68,3.67-4.49,5.47-6.39a3.42,3.42,0,0,1,3-.56c3.36-2.77,7-5.79,10.44-8.71,6.06-5.07,11.78-9.86,15.87-13.08a.46.46,0,0,1,.4-.22c.27,0,.77,0,3.05,3.35a.39.39,0,0,1,.06.3c0,.17-.12.49-9.62,8.27-5.71,4.68-12.28,10-17.2,13.82a3.24,3.24,0,0,1-1,3c-1.89,1.21-5.71,3.28-7.95,4.37A.33.33,0,0,1,287.28,85Zm-1.94-3.52c.35.47.7.91,1,1.34s.7.89,1,1.33c2.25-1.11,5.8-3,7.6-4.19.63-.41.77-1.69.63-2.46a.36.36,0,0,1,.13-.36c10.67-8.36,24.95-20.07,26.63-21.74a12.88,12.88,0,0,0-2.2-2.75c-4.08,3.22-9.81,8-15.86,13.09-3.54,3-7.2,6-10.61,8.83a.37.37,0,0,1-.35.07,2.76,2.76,0,0,0-2.44.31c-1.79,1.88-4.08,4.68-5.45,6.35Z"/><path class="cls-4" d="M317.86,61c1.08,1.29,3.32-.05,6.07-2.35,6.21-5.18,16.91-14.13,17.58-15,1.58-2,2-3.11-1.06-6.82-1.77-2.11-4-2.65-6.7-.39-3.13,2.61-12,9.93-16.73,14.14-2.42,2.15-4.37,4-3.3,5.25L311,58.29l4.09,5Z"/><path class="cls-2" d="M315.12,63.63h0a.35.35,0,0,1-.25-.14l-4.09-5a.37.37,0,0,1,0-.51l2.45-2.21c-.86-1.57,1.38-3.55,3.54-5.47,4-3.53,10.75-9.17,14.8-12.54l1.94-1.61c2.64-2.21,5.14-2.06,7.23.44,3.2,3.84,2.78,5.17,1.06,7.3-.63.78-8.84,7.67-17.63,15a17,17,0,0,1-3.75,2.57,2.41,2.41,0,0,1-2.58,0l-2.49,2A.33.33,0,0,1,315.12,63.63Zm-3.57-5.31,3.62,4.4,2.45-2a.38.38,0,0,1,.53,0c.25.29.72.62,2,.07a17.13,17.13,0,0,0,3.57-2.46c5-4.22,16.86-14.08,17.53-14.91,1.45-1.79,2-2.73-1.06-6.35-1.82-2.18-3.84-2.29-6.17-.35l-1.94,1.62c-4,3.36-10.81,9-14.78,12.52-2.35,2.08-4.08,3.75-3.26,4.73a.38.38,0,0,1,0,.52Z"/><path class="cls-2" d="M317.25,59.93a.14.14,0,0,1-.11-.07,7.6,7.6,0,0,0-2.45-2.94.12.12,0,0,1,0-.17.12.12,0,0,1,.17,0,7.78,7.78,0,0,1,2.54,3,.14.14,0,0,1-.06.17Z"/><path class="cls-2" d="M295.47,76.67a.12.12,0,0,1-.12-.1,2,2,0,0,0-1.21-1.44.12.12,0,0,1-.06-.16.11.11,0,0,1,.16-.07,2.2,2.2,0,0,1,1.35,1.62.12.12,0,0,1-.09.15Z"/><path class="cls-2" d="M321.5,56a.12.12,0,0,1-.08-.22c5.14-4.49,10.41-9,15.65-13.36a.12.12,0,0,1,.17,0,.13.13,0,0,1,0,.18C332,47,326.72,51.47,321.58,56A.11.11,0,0,1,321.5,56Z"/><path class="cls-2" d="M319.39,53.64a.13.13,0,0,1-.1,0,.14.14,0,0,1,0-.18L335.19,40a.13.13,0,0,1,.18,0,.14.14,0,0,1,0,.18L319.47,53.61A.11.11,0,0,1,319.39,53.64Z"/><path class="cls-4" d="M155.44,102.44c1.5-.51,2.06-1.28,3.26-1.73,1.07.59,3,1.47,4.11,2,.23,1.55.1,2.2.28,3.53a.9.9,0,0,0,.53.1H165a23.53,23.53,0,0,0,5.09-.68c-.25-1.55-.58-2.91-.92-4.27a16.61,16.61,0,0,0,3.3-3.13,34.71,34.71,0,0,0,3.93,1.65,19.3,19.3,0,0,0,1.75-5.88,21.75,21.75,0,0,0-3.37-.87,34.09,34.09,0,0,0-.91-4.52c1.38-.73,2.31-1.48,3.62-2.15a12,12,0,0,0-4.28-5.57c-1,1.12-1.39,1.87-2.21,2.93a16.66,16.66,0,0,0-4.48-1.38c-.25-1.47-.66-2.46-.79-3.68a11.13,11.13,0,0,0-5.72.53c.32,1.34.51,2.19.76,3.39a19.76,19.76,0,0,0-3.48,2.83,15,15,0,0,1-3.13-1.29,16.35,16.35,0,0,0-3.26,5.45,26.56,26.56,0,0,0,3.16,1.63,14.52,14.52,0,0,0,.86,4.41,20.3,20.3,0,0,1-2.48,2.12A12.61,12.61,0,0,0,155.44,102.44Zm5.08-11c.23-1,.5-1.88,3.12-3,1-.46,4.29-.78,5.56,3.06a3.78,3.78,0,0,1-.72,3.64A5.81,5.81,0,0,1,165.85,97a4.29,4.29,0,0,1-4.25-1.2A4.74,4.74,0,0,1,160.52,91.45Z"/><path class="cls-2" d="M164.22,106.75h-.61a1.23,1.23,0,0,1-.73-.16.35.35,0,0,1-.16-.26,14.76,14.76,0,0,1-.12-1.6,15.54,15.54,0,0,0-.13-1.73l-1.23-.6c-.88-.42-1.87-.89-2.57-1.27a8.13,8.13,0,0,0-1.16.66,8.12,8.12,0,0,1-1.95,1,.37.37,0,0,1-.39-.09A13.06,13.06,0,0,1,152.1,98a.36.36,0,0,1,.11-.42L153,97a12.36,12.36,0,0,0,1.53-1.33,15.22,15.22,0,0,1-.78-4,9.79,9.79,0,0,1-1.65-.84c-.39-.23-.79-.47-1.31-.72a.39.39,0,0,1-.19-.47A16.73,16.73,0,0,1,153.9,84a.38.38,0,0,1,.44-.08l.17.09a13.87,13.87,0,0,0,2.67,1.11,19,19,0,0,1,3-2.45l.16-.12c-.24-1.14-.42-2-.7-3.14a.37.37,0,0,1,.24-.43,11.39,11.39,0,0,1,5.91-.54.37.37,0,0,1,.31.33,11.05,11.05,0,0,0,.38,1.85c.12.47.25,1,.35,1.53a17.18,17.18,0,0,1,4.05,1.24c.23-.3.43-.59.62-.86a21.27,21.27,0,0,1,1.41-1.84.36.36,0,0,1,.49-.07,12.31,12.31,0,0,1,4.43,5.74.37.37,0,0,1-.18.47c-.65.34-1.19.68-1.77,1s-1,.63-1.58,1a29.78,29.78,0,0,1,.74,3.67l.05.35a20.09,20.09,0,0,1,3.18.84.38.38,0,0,1,.24.4,19.38,19.38,0,0,1-1.78,6,.38.38,0,0,1-.47.19,33.91,33.91,0,0,1-3.7-1.53,16.55,16.55,0,0,1-3,2.81c.32,1.28.64,2.6.87,4.06a.37.37,0,0,1-.28.42,23.66,23.66,0,0,1-5.17.7Zm-.79-.76h.19l0,.38V106c.45,0,.91,0,1.37,0a23.49,23.49,0,0,0,4.66-.59c-.24-1.4-.55-2.67-.85-3.9a.38.38,0,0,1,.14-.4,16.11,16.11,0,0,0,3.23-3,.37.37,0,0,1,.46-.1,32.75,32.75,0,0,0,3.56,1.51,19,19,0,0,0,1.54-5.15,20.48,20.48,0,0,0-2.87-.73l-.17,0a.36.36,0,0,1-.29-.3l-.1-.61a27.71,27.71,0,0,0-.8-3.86.37.37,0,0,1,.18-.44c.67-.36,1.24-.72,1.8-1.07s1-.62,1.52-.92a11.56,11.56,0,0,0-3.74-4.9c-.46.56-.8,1-1.15,1.53s-.5.72-.82,1.13a.39.39,0,0,1-.46.11,16.32,16.32,0,0,0-4.38-1.36.37.37,0,0,1-.31-.3c-.11-.65-.25-1.2-.39-1.74a15.49,15.49,0,0,1-.36-1.67,10.81,10.81,0,0,0-4.94.44c.25,1.09.43,1.91.67,3.07A.35.35,0,0,1,161,83l-.36.26a16.66,16.66,0,0,0-3,2.51.39.39,0,0,1-.39.12,14.06,14.06,0,0,1-2.94-1.19,16.11,16.11,0,0,0-2.88,4.81c.41.21.75.41,1.06.6a9.29,9.29,0,0,0,1.76.86.39.39,0,0,1,.25.34,14.26,14.26,0,0,0,.83,4.29.36.36,0,0,1-.08.38,12.8,12.8,0,0,1-1.78,1.58l-.53.41a12.5,12.5,0,0,0,2.65,4,8,8,0,0,0,1.56-.85,6.93,6.93,0,0,1,1.46-.8.4.4,0,0,1,.32,0c.68.38,1.74.89,2.68,1.33l1.42.69a.36.36,0,0,1,.2.29,15.61,15.61,0,0,1,.17,2C163.36,105.11,163.38,105.5,163.43,106Zm1.33-8.49A4.77,4.77,0,0,1,161.32,96a5.11,5.11,0,0,1-1.17-4.67h0c.29-1.15.72-2.13,3.34-3.3a4.53,4.53,0,0,1,3.41.07,5,5,0,0,1,2.65,3.21,4.13,4.13,0,0,1-.79,4,6.06,6.06,0,0,1-2.81,2A4,4,0,0,1,164.76,97.5Zm-3.88-6a4.41,4.41,0,0,0,1,4,3.93,3.93,0,0,0,3.87,1.09,5.39,5.39,0,0,0,2.46-1.76,3.39,3.39,0,0,0,.64-3.27,4.26,4.26,0,0,0-2.24-2.76,3.76,3.76,0,0,0-2.8-.08c-2.5,1.12-2.7,1.94-2.92,2.8Z"/><path class="cls-3" d="M126.43,46.69c-1.17,1.12-3,4.52-2,6.84a7.26,7.26,0,0,0,6.42,4.25,78.85,78.85,0,0,1-1.36,8.87c-.61-.55-3.74-.34-5.69,1.09a7.13,7.13,0,0,0-2.57,9A58.38,58.38,0,0,1,112,79a7.09,7.09,0,0,0-5.13-5.61,7.54,7.54,0,0,0-7.37,2.44A34.13,34.13,0,0,1,94,69.3c1.48-1.24,3.07-2.67,3.32-4.59a5.23,5.23,0,0,0-1.52-4.12A19.94,19.94,0,0,0,92.1,57.8a47.24,47.24,0,0,1,2.84-7.87,6.8,6.8,0,0,0,5,.13,4.25,4.25,0,0,0,2.17-1.62,5.7,5.7,0,0,0,.68-2.51,6.57,6.57,0,0,0-.6-4,29.1,29.1,0,0,1,7.27-2.56,8.34,8.34,0,0,0,3.09,4.75,4,4,0,0,0,1.72.81,4.29,4.29,0,0,0,3.15-1.12,13.43,13.43,0,0,0,2.7-2.83A39.31,39.31,0,0,1,126.43,46.69Z"/><path class="cls-2" d="M112,79.37a.38.38,0,0,1-.37-.31,6.73,6.73,0,0,0-4.85-5.31,7.19,7.19,0,0,0-7,2.33.36.36,0,0,1-.26.12.37.37,0,0,1-.28-.1,35.31,35.31,0,0,1-5.52-6.6.36.36,0,0,1,.08-.48c1.55-1.31,3-2.62,3.19-4.36a4.89,4.89,0,0,0-1.42-3.82,15.2,15.2,0,0,0-3-2.26l-.7-.46a.38.38,0,0,1-.16-.41,47.32,47.32,0,0,1,2.86-7.94.38.38,0,0,1,.49-.19,6.37,6.37,0,0,0,4.72.13,3.94,3.94,0,0,0,2-1.47,5.33,5.33,0,0,0,.62-2.35,6.06,6.06,0,0,0-.55-3.8.39.39,0,0,1,.16-.53A30,30,0,0,1,109.39,39a.37.37,0,0,1,.43.28,8,8,0,0,0,3,4.54,3.43,3.43,0,0,0,1.54.74,3.87,3.87,0,0,0,2.88-1.05,13,13,0,0,0,2.62-2.75.37.37,0,0,1,.24-.15.43.43,0,0,1,.29.06,40.69,40.69,0,0,1,6.36,5.8.37.37,0,0,1,0,.52c-1.11,1.07-2.79,4.3-1.87,6.42a6.92,6.92,0,0,0,6.09,4,.37.37,0,0,1,.35.38,46.59,46.59,0,0,1-.93,6.53c-.14.79-.29,1.6-.43,2.41a.37.37,0,0,1-.62.21c-.39-.36-3.3-.3-5.21,1.11a6.74,6.74,0,0,0-2.46,8.56.42.42,0,0,1,0,.31.36.36,0,0,1-.23.2,57.91,57.91,0,0,1-9.33,2.26Zm-6.75-6.56A7.1,7.1,0,0,1,107,73a7.52,7.52,0,0,1,5.33,5.55,56.63,56.63,0,0,0,8.48-2,7.51,7.51,0,0,1,2.85-9.08,7.88,7.88,0,0,1,5.63-1.32c.11-.65.23-1.3.34-1.94a55.21,55.21,0,0,0,.91-6.06,7.6,7.6,0,0,1-6.37-4.45c-1-2.3.54-5.57,1.79-7a40.44,40.44,0,0,0-5.71-5.21,13.43,13.43,0,0,1-2.56,2.6,4.5,4.5,0,0,1-3.44,1.2,4.09,4.09,0,0,1-1.88-.88,8.81,8.81,0,0,1-3.15-4.62,29,29,0,0,0-6.48,2.3,7.21,7.21,0,0,1,.46,3.9,6.08,6.08,0,0,1-.73,2.67,4.61,4.61,0,0,1-2.36,1.77,7.17,7.17,0,0,1-4.94,0,45.29,45.29,0,0,0-2.59,7.23L93,58a15.64,15.64,0,0,1,3.1,2.38,5.58,5.58,0,0,1,1.61,4.43c-.25,1.89-1.69,3.32-3.2,4.62a34.72,34.72,0,0,0,5,5.92A8.12,8.12,0,0,1,105.24,72.81Z"/><path class="cls-5" d="M120,63.6a9.45,9.45,0,0,0-.84-8.66,9.56,9.56,0,0,0-7.83-4.63,9.75,9.75,0,0,0-8.21,4.34,10.23,10.23,0,0,0-1.34,7.84,10,10,0,0,0,4.75,5.92c1.13.72,5.66,2.36,9.31.16A10.47,10.47,0,0,0,120,63.6Z"/><path class="cls-3" d="M115.1,64.7A5.2,5.2,0,0,0,117,59.92a7.38,7.38,0,0,0-2.62-4.58,5.28,5.28,0,0,0-1.9-1.11,4.76,4.76,0,0,0-2.19-.11,6.11,6.11,0,0,0-4.87,5,6,6,0,0,0,3.37,6.11A6.39,6.39,0,0,0,115.1,64.7Z"/><path class="cls-2" d="M111.5,66.21a7,7,0,0,1-2.83-.6,6.38,6.38,0,0,1-3.59-6.51,6.45,6.45,0,0,1,5.18-5.35,5.15,5.15,0,0,1,2.36.12,5.69,5.69,0,0,1,2,1.18,7.75,7.75,0,0,1,2.74,4.83A5.56,5.56,0,0,1,115.32,65h0A6.51,6.51,0,0,1,111.5,66.21Zm-.26-11.79a5,5,0,0,0-.85.07,5.77,5.77,0,0,0-4.57,4.71A5.62,5.62,0,0,0,109,64.92a6,6,0,0,0,5.91-.52h0A4.8,4.8,0,0,0,116.66,60a7,7,0,0,0-2.49-4.35,5.08,5.08,0,0,0-1.77-1A3.92,3.92,0,0,0,111.24,54.42Z"/><path class="cls-2" d="M166.7,75a.4.4,0,0,1-.23-.08c-11-8.22-22.38-16.33-33.75-24.09a.38.38,0,0,1-.1-.52.37.37,0,0,1,.52-.1c11.38,7.77,22.75,15.88,33.78,24.11a.38.38,0,0,1,.08.53A.37.37,0,0,1,166.7,75Z"/><path class="cls-2" d="M148.26,98.76a.41.41,0,0,1-.19-.05c-9.71-5.49-19.63-10.83-29.49-15.87a.38.38,0,0,1,.34-.67c9.87,5,19.8,10.39,29.52,15.89a.37.37,0,0,1,.14.51A.37.37,0,0,1,148.26,98.76Z"/><path class="cls-3" d="M298.7,249.11a3.71,3.71,0,0,1,4.14,1.34c6,5.72,12.94,11.45,17.55,16.71l3.75-3.9c-4.92-4.26-11.94-11.87-16.62-16.37a6.25,6.25,0,0,1-2.24-3.38,9.55,9.55,0,0,1,.16-2.32c.35-2.9.4-3.8-3-7.08-4.85-4.67-7.67-3.35-12,1.13-4.71,4.9-3.88,7.54.34,11.6C295.28,251.17,296,249.86,298.7,249.11ZM292.83,237a5.49,5.49,0,0,1,8,0,5.24,5.24,0,0,1,.15,7.75c-2.29,2.38-5.45,2.36-7.9,0C291.31,243,289.93,240,292.83,237Z"/><path class="cls-2" d="M320.39,267.53h0a.34.34,0,0,1-.27-.13,141.66,141.66,0,0,0-10.91-10.57c-2.21-2-4.49-4.07-6.62-6.11l-.19-.2a3.22,3.22,0,0,0-3.59-1.05h0c-.39.11-.74.23-1.07.35-2.12.74-3.39,1-7.2-2.71-2.44-2.34-3.49-4-3.63-5.72-.16-1.91.85-3.89,3.28-6.41,4.46-4.64,7.47-6,12.51-1.14,3.44,3.31,3.49,4.34,3.12,7.4,0,.18,0,.36-.07.53a6,6,0,0,0-.08,1.69c.15,1.18,1,2.13,2.12,3.16,1.75,1.69,3.81,3.79,6,6,3.71,3.78,7.54,7.69,10.62,10.35a.36.36,0,0,1,.12.26.35.35,0,0,1-.1.28l-3.75,3.9A.39.39,0,0,1,320.39,267.53Zm-20.46-19a4,4,0,0,1,3,1.44l.17.18c2.12,2,4.4,4.1,6.61,6.1A147.14,147.14,0,0,1,320.4,266.6l3.2-3.32c-3.05-2.67-6.76-6.45-10.36-10.12-2.18-2.22-4.24-4.32-6-6-.91-.87-2.15-2.07-2.35-3.6a6.94,6.94,0,0,1,.09-1.89c0-.17.05-.34.07-.52.33-2.81.42-3.57-2.9-6.77-4.64-4.46-7.18-3.32-11.45,1.12-2.26,2.35-3.21,4.15-3.08,5.83.13,1.52,1.11,3,3.41,5.24,3.65,3.52,4.64,3.17,6.43,2.55.33-.12.7-.25,1.12-.37h0A4.79,4.79,0,0,1,299.93,248.56Zm-1.23.55Zm-1.62-2.23A6.22,6.22,0,0,1,292.8,245c-2-1.9-3.21-5.2-.24-8.28h0a5.86,5.86,0,0,1,4.06-1.84,6.15,6.15,0,0,1,4.45,1.82,5.61,5.61,0,0,1,.16,8.28A5.71,5.71,0,0,1,297.08,246.88Zm-.29-11.25h-.15a5.08,5.08,0,0,0-3.54,1.61h0c-2.58,2.68-1.58,5.48.22,7.22,2.33,2.24,5.22,2.24,7.37,0a4.89,4.89,0,0,0-.14-7.22A5.36,5.36,0,0,0,296.79,235.63Zm-4,1.35Z"/><path class="cls-4" d="M339.64,265.11s-16.88-15.39-16.9-15.61a21.48,21.48,0,0,1-12,16.33,9.43,9.43,0,0,1-4.2.93l16.4,15.89Z"/><path class="cls-2" d="M322.92,283a.36.36,0,0,1-.26-.11L306.26,267a.36.36,0,0,1-.08-.43.38.38,0,0,1,.37-.22,9,9,0,0,0,4-.89,21.14,21.14,0,0,0,11.81-16,.36.36,0,0,1,.37-.32h0a.37.37,0,0,1,.31.17c.55.63,10.34,9.6,16.84,15.53a.38.38,0,0,1,.13.26.43.43,0,0,1-.11.28l-16.72,17.54a.4.4,0,0,1-.27.12Zm-15.49-15.91,15.48,15,16.2-17c-1-.93-4.61-4.21-8.16-7.47-5-4.61-7.11-6.53-8-7.38a21.84,21.84,0,0,1-12.1,15.89A10.79,10.79,0,0,1,307.43,267.12Zm15.68-17.66Zm0,0Z"/><path class="cls-2" d="M322.18,279.3a.11.11,0,0,1-.08,0,.14.14,0,0,1,0-.18c4.77-4.78,9.48-9.73,14-14.71a.13.13,0,0,1,.18,0,.12.12,0,0,1,0,.17c-4.55,5-9.26,9.94-14,14.73A.12.12,0,0,1,322.18,279.3Z"/><path class="cls-2" d="M320.12,277.32a.12.12,0,0,1-.09,0,.12.12,0,0,1,0-.17c4.76-4.78,9.48-9.73,14-14.72a.13.13,0,0,1,.19.17c-4.55,5-9.27,9.94-14,14.72A.12.12,0,0,1,320.12,277.32Z"/><path class="cls-3" d="M320.46,263.51a2.46,2.46,0,0,1,3.57-.05,2.48,2.48,0,0,1-3.51,3.51A2.28,2.28,0,0,1,320.46,263.51Z"/><path class="cls-2" d="M322.28,268.11a3.14,3.14,0,0,1-2.94-2.59,2.68,2.68,0,0,1,.85-2.27,2.85,2.85,0,0,1,4.1-.06,2.71,2.71,0,0,1,0,4A2.83,2.83,0,0,1,322.28,268.11Zm0-5h-.09a2.19,2.19,0,0,0-1.45.68h0a2,2,0,0,0-.65,1.65,2.33,2.33,0,0,0,.7,1.28,2.11,2.11,0,0,0,3-3A2.16,2.16,0,0,0,322.27,263.09Zm-1.81.42Z"/><path class="cls-4" d="M390.72,106.5c2.8,5.81,4.39,9.31,4.2,10.76a4.7,4.7,0,0,1-4.32,3.7,4.05,4.05,0,0,1-4.18-4.15C386.55,115.2,389.41,108.87,390.72,106.5Z"/><path class="cls-2" d="M390.4,121.34a4.12,4.12,0,0,1-3-1.26,4.65,4.65,0,0,1-1.31-3.3c.14-1.78,3.12-8.26,4.34-10.46a.37.37,0,0,1,.34-.19.37.37,0,0,1,.32.21c3.09,6.39,4.43,9.49,4.24,11a5.07,5.07,0,0,1-4.68,4Zm.3-14c-1.39,2.67-3.79,8.1-3.91,9.51a4,4,0,0,0,1.11,2.72,3.35,3.35,0,0,0,2.68,1,4.33,4.33,0,0,0,4-3.37C394.72,115.87,393,112.13,390.7,107.33Z"/><path class="cls-3" d="M341.31,92.11,361.76,106c5.86-3.16,22.91-5.54,23.95-5.46a19.59,19.59,0,0,1,4.32,1.3,22.13,22.13,0,0,0-.25-3.42c-2.47-1.65-4.47-2.16-19.9-4.85l-1-5.86L352,77Z"/><path class="cls-2" d="M361.76,106.42a.33.33,0,0,1-.21-.07L341.1,92.42a.37.37,0,0,1-.16-.24.35.35,0,0,1,.07-.28l10.67-15.09a.37.37,0,0,1,.51-.1l16.87,10.73a.37.37,0,0,1,.17.25l1,5.6c15,2.61,17.24,3.17,19.78,4.85a.38.38,0,0,1,.16.26,13.12,13.12,0,0,1,.21,2.22c0,.32,0,.67.05,1.23a.39.39,0,0,1-.15.33.39.39,0,0,1-.35,0l-.85-.31a14.21,14.21,0,0,0-3.38-1h-.05c-1.39,0-17.94,2.32-23.69,5.42A.41.41,0,0,1,361.76,106.42ZM341.84,92l20,13.59c6-3.11,22.5-5.4,23.9-5.4h.05a14.25,14.25,0,0,1,3.59,1l.3.11c0-.28,0-.5,0-.69a12.82,12.82,0,0,0-.17-2c-2.39-1.55-4.8-2.12-19.62-4.7a.37.37,0,0,1-.31-.3l-1-5.7L352.09,77.53Z"/><path class="cls-2" d="M344.25,88a.36.36,0,0,1-.35-.27l-2.84-9.44c-.59-2-1.26-4.21-.8-6.43s2.38-4.37,4.84-4.19,4,2.7,4.7,4.19a20,20,0,0,1,1.67,6.25.38.38,0,0,1-.33.41.37.37,0,0,1-.41-.34,19.41,19.41,0,0,0-1.61-6c-.6-1.34-1.92-3.6-4.07-3.76S341.37,70.15,341,72c-.42,2,.22,4.18.79,6.07l2.83,9.43a.38.38,0,0,1-.25.47Z"/><path class="cls-2" d="M361.17,83.22a.34.34,0,0,1-.19,0,.39.39,0,0,1-.13-.52c.65-1.06,1.35-2.11,2.08-3.13a.38.38,0,0,1,.61.44c-.72,1-1.41,2-2.05,3.08A.36.36,0,0,1,361.17,83.22Z"/><path class="cls-2" d="M367.09,82.33a.39.39,0,0,1-.21-.06,85.8,85.8,0,0,0-7.41-4.63.38.38,0,0,1,.36-.66c2.56,1.43,5.08,3,7.48,4.67a.37.37,0,0,1,.09.52A.36.36,0,0,1,367.09,82.33Z"/><path class="cls-2" d="M366.8,90.33h-.07c-3.51-2.18-7.06-4.42-10.53-6.66a.12.12,0,0,1,0-.17.12.12,0,0,1,.17,0c3.48,2.24,7,4.48,10.53,6.65a.13.13,0,0,1,0,.18A.12.12,0,0,1,366.8,90.33Z"/><path class="cls-2" d="M366.68,93.21l-.07,0-2.41-1.58a.12.12,0,0,1,.13-.21L366.75,93a.13.13,0,0,1,0,.17A.14.14,0,0,1,366.68,93.21Z"/><path class="cls-5" d="M81.8,222.41a20.94,20.94,0,0,1-2.87-4.86,3.67,3.67,0,0,1-.45-1.9c.29-1.06,5.59-3.75,7.19-4.44a2.24,2.24,0,0,1,1.87-.11,2.59,2.59,0,0,1,.83.85q1.74,2.55,3.3,5.19Z"/><path class="cls-3" d="M99,214.72c1,.26,10.26,2.73,15.14,4a4.66,4.66,0,0,1,3.14,4.84c-.26,4.28-9.06,35.25-10.68,40.84a8.07,8.07,0,0,1-1.73,3.56,4.52,4.52,0,0,1-4.31.94C93.35,267,77.7,263.15,70.14,261a4.88,4.88,0,0,1-2.68-2.39,5,5,0,0,1-.15-3C68.5,248.33,74,230.4,74.38,228,74.9,224.78,94.63,213.59,99,214.72Z"/><path class="cls-2" d="M101.9,269.44a5.9,5.9,0,0,1-1.43-.18l-7.22-1.84c-7.87-2-17.66-4.48-23.22-6.09a5.26,5.26,0,0,1-2.91-2.59,5.4,5.4,0,0,1-.18-3.23c.76-4.6,3.24-13.49,5-20,1.05-3.77,1.88-6.75,2-7.62.24-1.45,3.46-3.82,6.11-5.55,5.94-3.87,15.84-8.81,19-8l3,.79c3.3.88,8.82,2.35,12.18,3.21a5.08,5.08,0,0,1,3.41,5.23c-.28,4.78-10.59,40.56-10.69,40.92a8.22,8.22,0,0,1-1.83,3.72A4.52,4.52,0,0,1,101.9,269.44ZM98.25,215c-3.27,0-11.61,4-17.72,8-4.09,2.66-5.66,4.35-5.78,5-.15.91-1,3.91-2,7.7-1.81,6.48-4.28,15.35-5,19.91a3.92,3.92,0,0,0,2.56,5c5.55,1.6,15.33,4.09,23.19,6.08l7.22,1.84a4.16,4.16,0,0,0,3.95-.84,7.75,7.75,0,0,0,1.64-3.4c1.7-5.87,10.41-36.56,10.66-40.76a4.28,4.28,0,0,0-2.85-4.45c-3.36-.87-8.89-2.34-12.19-3.22l-3-.78h0A2.62,2.62,0,0,0,98.25,215Z"/><path class="cls-2" d="M83.28,219.24a.11.11,0,0,1-.1-.06c-.36-.57-.76-1.18-1.15-1.77-.27-.41-.54-.82-.8-1.23a.12.12,0,0,1,0-.17.12.12,0,0,1,.17,0l.8,1.22c.39.59.79,1.2,1.15,1.78a.12.12,0,0,1,0,.17Z"/><path class="cls-2" d="M85.56,218a.11.11,0,0,1-.11-.06c-.36-.57-.76-1.18-1.15-1.77-.27-.41-.54-.82-.8-1.23a.12.12,0,0,1,0-.17.12.12,0,0,1,.17,0l.8,1.22c.39.59.79,1.2,1.15,1.78a.12.12,0,0,1,0,.17Z"/><path class="cls-2" d="M87.83,216.72a.11.11,0,0,1-.11-.06c-.36-.57-.76-1.18-1.15-1.77-.26-.41-.54-.82-.8-1.23a.13.13,0,0,1,0-.17.12.12,0,0,1,.17,0l.8,1.22c.39.59.79,1.2,1.15,1.77a.13.13,0,0,1,0,.18Z"/><path class="cls-2" d="M116.31,228.87h-.09a.37.37,0,0,1-.27-.46c1-4.05,1.93-8.19,2.65-12.3a4.25,4.25,0,0,0-.3-3.24c-.62-.84-1.49-1.19-3.11-1.6l-3.37-.9c-1.08-.29-2.21-.6-3.35-.89a4.41,4.41,0,0,0-4,.86,5.6,5.6,0,0,1-.55.34c-1.84.85-7.73,3.84-11.8,6.08a.38.38,0,0,1-.36-.66c4.08-2.24,10-5.25,11.84-6.1a4.14,4.14,0,0,0,.44-.28,5.23,5.23,0,0,1,4.57-1l3.36.9,3.36.89c1.5.39,2.71.77,3.52,1.88a4.89,4.89,0,0,1,.44,3.82c-.73,4.13-1.62,8.29-2.67,12.36A.36.36,0,0,1,116.31,228.87Z"/><path class="cls-2" d="M96,250.35h-.1l-10.4-2.83a.38.38,0,0,1-.27-.46l3.35-13a.37.37,0,0,1,.45-.27l10.08,2.51a.38.38,0,0,1,.28.45l-3,13.29a.37.37,0,0,1-.17.24A.41.41,0,0,1,96,250.35Zm-10-3.47,9.67,2.63L98.62,237l-9.37-2.33Z"/><path class="cls-2" d="M99,237a.39.39,0,0,1-.33-.19.37.37,0,0,1,.14-.51l5.87-3.31a.37.37,0,0,1,.51.15.38.38,0,0,1-.14.51L99.13,237A.41.41,0,0,1,99,237Z"/><path class="cls-2" d="M99,256.32a.37.37,0,0,1-.34-.21l-3-6.07a.38.38,0,0,1,.17-.5.37.37,0,0,1,.5.17l3,6.07a.37.37,0,0,1-.17.5A.32.32,0,0,1,99,256.32Z"/><path class="cls-2" d="M89.08,234.72a.37.37,0,0,1-.32-.17l-3.53-5.74a.36.36,0,0,1,.12-.51.37.37,0,0,1,.52.12l3.53,5.73a.39.39,0,0,1-.13.52A.34.34,0,0,1,89.08,234.72Z"/><path class="cls-2" d="M79.77,251.36a.37.37,0,0,1-.32-.17.38.38,0,0,1,.11-.52l5.87-3.84a.38.38,0,0,1,.52.11.37.37,0,0,1-.11.52L80,251.3A.36.36,0,0,1,79.77,251.36Z"/><path class="cls-2" d="M78.93,261h0l-8.81-2.19a.12.12,0,0,1-.09-.15.13.13,0,0,1,.15-.1L79,260.7a.13.13,0,0,1,0,.25Z"/><path class="cls-2" d="M72.29,257.15h0l-2.46-.56a.13.13,0,0,1-.1-.15.12.12,0,0,1,.15-.09l2.47.56a.12.12,0,0,1,.09.14A.12.12,0,0,1,72.29,257.15Z"/><path class="cls-3" d="M224.21,115.72c.5,7.3,0,12.15-.63,19.37-.06.61-9.09,1.66-8.62,2,3.21,2.67,14.34,14.75,18.22,14.17s14.16-9.25,14.82-13.8c-5.16-2-5.56-15.28-4.92-28.19C238.27,111,229.92,114.63,224.21,115.72Z"/><path class="cls-2" d="M232.9,151.7c-3,0-8.68-5.22-14.74-11.06-1.44-1.39-2.68-2.58-3.44-3.21a.42.42,0,0,1-.14-.43c.1-.36.35-.46,4-1.1a34.39,34.39,0,0,0,4.61-1l0-.54a105.68,105.68,0,0,0,.57-18.64.39.39,0,0,1,.31-.39c3.92-.74,9-2.7,13.55-4.43,1.95-.75,3.79-1.45,5.27-2a.37.37,0,0,1,.35.06.37.37,0,0,1,.15.31c-.85,17.21.68,26.3,4.68,27.82a.37.37,0,0,1,.23.41c-.7,4.81-11.26,13.53-15.13,14.11Zm-17.27-14.47c.78.68,1.85,1.71,3.05,2.87,4.37,4.21,11.68,11.24,14.45,10.84,3.54-.54,13.43-8.67,14.45-13.2-4.14-1.94-5.7-10.83-4.9-27.88-1.37.48-3,1.1-4.72,1.76A94.85,94.85,0,0,1,224.6,116a107.34,107.34,0,0,1-.59,18.43l-.06.68c0,.53-.73.72-5.21,1.5C217.64,136.83,216.32,137.06,215.63,137.23Z"/><path class="cls-3" d="M222.2,134.78s-22.42,5.64-28.8,16.55-14,32.74-15,44.91c-.82,10.58-8.45,20.81,1,21.52,5.21.4,8.52-1.74,13.51-9.5,8.55-13.33,10.62-32.5,10.62-32.5a164.34,164.34,0,0,0,3.33,20.34c2.29,9.69-4.12,18.47,1.1,21.52,9.54,5.57,41.81,13.52,52.33,4.56,5.08-4.34,5.27-42,5.27-42s5.91,17,6.69,22.87,18.62,5.06,18.62,5.06,3.06-3.88,1.69-13.88c-1.69-12.39-8-32-14.36-45.41-5.5-11.59-31.5-13.55-31.5-13.55s-9.68,13.5-17.21,12.18S222.2,134.78,222.2,134.78Z"/><path class="cls-2" d="M244.61,226.58a76.09,76.09,0,0,1-10.91-.86c-11.09-1.64-21.44-5.15-25.93-7.78-3.07-1.79-2.44-5.27-1.64-9.69.65-3.62,1.39-7.73.37-12.06a164.21,164.21,0,0,1-3-17.43c-1,5.93-3.75,19.56-10.26,29.7-5,7.74-8.33,10.09-13.85,9.67-2.09-.15-3.48-.78-4.26-1.9-1.5-2.16-.42-5.87.83-10.16a49.94,49.94,0,0,0,2.14-9.86c1-12.63,8.86-34.6,15-45.07,6.39-10.91,28.11-16.49,29-16.72a.4.4,0,0,1,.33.07.37.37,0,0,1,.14.3c0,.11-.15,11.08,7,12.33a5.66,5.66,0,0,0,1,.09c7.05,0,15.73-12,15.83-12.12a.33.33,0,0,1,.33-.15,83.1,83.1,0,0,1,13.76,2.44c9.65,2.6,15.72,6.41,18.05,11.32,6.55,13.81,12.74,33.38,14.4,45.52,1.37,10-1.64,14-1.77,14.16a.35.35,0,0,1-.28.14c-.74,0-18.19.8-19-5.38-.61-4.59-4.38-16-6-20.74-.13,8.18-.89,36.23-5.38,40.06C256.78,225.65,250.57,226.58,244.61,226.58Zm-41.08-51.2h0a.37.37,0,0,1,.37.34A165.46,165.46,0,0,0,207.23,196c1.06,4.49.27,8.86-.37,12.37-.77,4.29-1.33,7.39,1.29,8.92,9.86,5.75,41.74,13.25,51.89,4.59,4.9-4.18,5.14-41.3,5.15-41.68a.37.37,0,0,1,.72-.12c.25.7,5.93,17.07,6.71,22.95.6,4.51,13.05,5,18.05,4.74.49-.76,2.71-4.77,1.52-13.46-1.65-12.08-7.81-31.55-14.33-45.3-5.08-10.72-28.52-13.1-31-13.32-1.15,1.57-9.26,12.25-16.32,12.25a7.08,7.08,0,0,1-1.13-.09c-6.83-1.2-7.53-10.35-7.6-12.59-3.22.88-22.38,6.46-28.11,16.25-6.09,10.4-13.92,32.21-14.9,44.75a50,50,0,0,1-2.16,10c-1.2,4.1-2.23,7.65-.93,9.52.64.93,1.85,1.45,3.7,1.59.36,0,.72,0,1.08,0,4.56,0,7.64-2.45,12.08-9.37,8.41-13.11,10.55-32.15,10.57-32.34A.38.38,0,0,1,203.53,175.38Z"/><path class="cls-6" d="M258,90.67A150.89,150.89,0,0,1,253.16,107a41.06,41.06,0,0,1-4.81,9.39,5.82,5.82,0,0,1-3.26,2.55c0-1.41-1.34-2.24-1.44-3.65-.13-1.74,1.09-3.15.21-4.76a25.33,25.33,0,0,1-3.07-9.66A12.38,12.38,0,0,1,242.2,93a8.86,8.86,0,0,1,7.58-4.1C252.25,88.94,256.22,88.93,258,90.67Z"/><path class="cls-3" d="M218.49,95.31c-.42,4.61-2,9-2.67,13.62s-.38,9.55,2.59,13.56a16.71,16.71,0,0,0,12,6.29,15.69,15.69,0,0,0,12.45-4.52c2.72-2.93,4.16-10,5-13.53a6.46,6.46,0,0,0,5.95-1,3.64,3.64,0,0,0,.53-5c-1.26-1.54-3.07-2-5.47-.34a33.94,33.94,0,0,0,.45-7.22c-.09-3.68.6-9-1.65-10.89A27.8,27.8,0,0,0,242,83.33c-2.74-1.17-7,.08-10-.37s-6.24.55-8.86,1.7C220.05,86,218.8,91.86,218.49,95.31Z"/><path class="cls-2" d="M231.62,129.2c-.42,0-.83,0-1.24,0a17.13,17.13,0,0,1-12.27-6.45c-2.61-3.52-3.5-8.17-2.66-13.83.3-2,.78-4,1.23-6a54.71,54.71,0,0,0,1.43-7.64h0c.14-1.53,1-9.25,4.92-11,3.47-1.53,6.52-2.11,9.07-1.73a19.33,19.33,0,0,0,4,0c2.12-.15,4.31-.31,6,.42l.18.08A26.79,26.79,0,0,1,247.93,86c1.91,1.61,1.84,5.39,1.78,8.73,0,.86,0,1.68,0,2.44v.09a34.48,34.48,0,0,1-.31,6.37,3.83,3.83,0,0,1,5.25.88,4,4,0,0,1-.57,5.57,6.78,6.78,0,0,1-5.92,1.14c-.07.25-.13.52-.2.81-.92,3.9-2.31,9.8-4.82,12.51A15.85,15.85,0,0,1,231.62,129.2ZM218.86,95.34a55.46,55.46,0,0,1-1.45,7.75c-.45,1.93-.92,3.92-1.22,5.9-.81,5.45,0,9.92,2.52,13.28a16.32,16.32,0,0,0,11.72,6.14,15.29,15.29,0,0,0,12.15-4.4c2.38-2.56,3.8-8.58,4.64-12.18.11-.42.2-.82.29-1.19a.35.35,0,0,1,.18-.23.33.33,0,0,1,.29,0,6.08,6.08,0,0,0,5.6-.88,3.24,3.24,0,0,0,.48-4.53c-1.29-1.59-3-1.68-5-.28a.38.38,0,0,1-.42,0,.4.4,0,0,1-.17-.39,33.32,33.32,0,0,0,.45-7v-.09c0-.78,0-1.6,0-2.48.06-3.17.13-6.76-1.52-8.14A26.3,26.3,0,0,0,242,83.76l-.18-.08c-1.53-.66-3.64-.51-5.67-.36a20.24,20.24,0,0,1-4.19,0c-2.4-.35-5.31.21-8.65,1.67-2.71,1.2-4.1,6.32-4.47,10.34Z"/><path class="cls-6" d="M233.31,89.81c-.63,2-4,4.6-6,4.62s-2.64-1-3.26-2.94c-1.89,1.41-3.33,2.89-5.17,3.42a5.59,5.59,0,0,1-6.68-4.21,6.09,6.09,0,0,1,4.25-7c-1.9.28-3.59-1.79-3.45-3.81a5.48,5.48,0,0,1,3.5-4.46,17.37,17.37,0,0,1,5.73-.76,5.16,5.16,0,0,1,2.28-5.41,7.69,7.69,0,0,1,5.81-.79,6.94,6.94,0,0,1,3.5,1.73,4.73,4.73,0,0,1,1.34,3.86c1.92-2,4.83-3.28,7.4-2.41s4.26,4.3,4.27,6.55c1.41-1.47,3.2-2.63,5.16-2.34,3.88.56,4.47,4,2.33,8.17a4.52,4.52,0,0,1,5.91,3.48,9.24,9.24,0,0,1-2.33,7.54c-1.73,1.65-7.38,2.67-11-.48a10.57,10.57,0,0,1-3.29-6c-1.32,1.89-2.28,3.19-5.23,3.88C236.24,93,233.83,91.89,233.31,89.81Z"/><path class="cls-2" d="M222.12,102.37a1.08,1.08,0,1,1,1.11,1A1.07,1.07,0,0,1,222.12,102.37Z"/><path class="cls-2" d="M237.05,104.53a1.09,1.09,0,1,1,1.11,1A1.06,1.06,0,0,1,237.05,104.53Z"/><path class="cls-2" d="M231.53,122a5.42,5.42,0,0,1-1.87-.33.36.36,0,0,1-.22-.48.37.37,0,0,1,.48-.22,4.91,4.91,0,0,0,5.06-1.12.37.37,0,0,1,.52.54A5.68,5.68,0,0,1,231.53,122Z"/><path class="cls-2" d="M229.43,116a6.49,6.49,0,0,1-2.69-.65,3,3,0,0,1-1.17-.88,2.4,2.4,0,0,1-.25-2.12,6.55,6.55,0,0,1,.76-1.52l.12-.22a20,20,0,0,0,2.72-8.49.38.38,0,1,1,.75.06,20.76,20.76,0,0,1-2.82,8.81l-.13.22a6,6,0,0,0-.68,1.36,1.67,1.67,0,0,0,.14,1.46,2.16,2.16,0,0,0,.88.64,5.52,5.52,0,0,0,2.63.58,3.18,3.18,0,0,0,2.27-1.11.38.38,0,1,1,.59.47,3.89,3.89,0,0,1-2.81,1.38Z"/><path class="cls-2" d="M248.3,107.17l-.09,0a.37.37,0,0,1-.27-.45c.26-1,.38-1.53.59-2.5a.38.38,0,0,1,.74.16c-.22,1-.34,1.52-.6,2.52A.39.39,0,0,1,248.3,107.17Z"/><path class="cls-2" d="M252.55,94.86a.36.36,0,0,1-.36-.28.38.38,0,0,1,.27-.46A4.78,4.78,0,0,0,255.93,90a.38.38,0,1,1,.75.07,5.56,5.56,0,0,1-4,4.74Z"/><path class="cls-3" d="M215,76.37c.5,4.63,6.91.08,26.48,8.27,10.81,4.53,11.48,7.81,17,14a23,23,0,0,0,2.26-8.13,34.19,34.19,0,0,0,.17-9.79A22.27,22.27,0,0,0,249.76,65c.36-2.17-2.59-3.75-4.61-4.38s-4.37-2.12-7.48,1.62a23.88,23.88,0,0,0-7.14,1.4C224.3,65.89,219.07,70.74,215,76.37Z"/><path class="cls-2" d="M258.52,99.05a.38.38,0,0,1-.28-.12c-1.19-1.34-2.18-2.57-3.05-3.66-3.27-4.07-5.43-6.76-13.84-10.28a69.22,69.22,0,0,0-21.1-5.54c-3.55-.39-5.34-.58-5.6-3a.36.36,0,0,1,.07-.26c4.57-6.36,10-10.8,15.69-12.86a23.89,23.89,0,0,1,7.08-1.41c2.86-3.36,5.29-2.49,7.07-1.86l.7.24c2.39.74,5,2.36,4.9,4.53A22.73,22.73,0,0,1,261.32,80.7a34.55,34.55,0,0,1-.17,9.9,23.3,23.3,0,0,1-2.3,8.26.35.35,0,0,1-.28.19ZM215.41,76.47c.24,1.65,1.34,1.84,4.92,2.24a69.86,69.86,0,0,1,21.31,5.59c8.59,3.59,10.91,6.49,14.14,10.5.77,1,1.64,2,2.66,3.22a23.76,23.76,0,0,0,2-7.52,34.13,34.13,0,0,0,.17-9.68,22,22,0,0,0-11-15.49.39.39,0,0,1-.19-.39c.33-2-2.58-3.41-4.36-4l-.72-.25c-1.77-.63-3.78-1.35-6.35,1.75a.35.35,0,0,1-.27.14,23.52,23.52,0,0,0-7,1.37C225.14,66,219.88,70.3,215.41,76.47Z"/><path class="cls-3" d="M213.26,81.3c.12-.48-.31-.76.35-1.44,1.22-1.22,5.27-1.24,7.95-.58C232.12,81.85,243,85.19,251,92.64c2.19,2,4.7,6.8,4.7,6.8s2.38,2.34,3.91,1c.62-.55.27-2.77-.11-3.79-4-10.74-21.91-22-41.71-23.68C207.81,72.06,209.33,79.24,213.26,81.3Z"/><path class="cls-2" d="M258.43,101.21a5.25,5.25,0,0,1-3-1.5.36.36,0,0,1-.07-.1s-2.5-4.73-4.62-6.7c-7.85-7.31-18.68-10.7-29.23-13.27-2.65-.65-6.54-.57-7.59.49-.31.31-.29.44-.25.68a1.6,1.6,0,0,1,0,.58.38.38,0,0,1-.21.25.35.35,0,0,1-.33,0c-2.31-1.21-3.69-3.91-3.07-6,.39-1.35,1.93-3.56,7.76-3,18.88,1.65,37.73,12.38,42,23.93.3.81.89,3.41,0,4.2A2,2,0,0,1,258.43,101.21Zm-2.47-2c.29.27,2.19,2,3.35.91.39-.35.21-2.26-.21-3.38-3.66-9.86-20.53-21.62-41.39-23.44-3.87-.34-6.41.58-7,2.51-.46,1.58.49,3.65,2.13,4.8a1.36,1.36,0,0,1,.49-1c1.41-1.43,5.73-1.32,8.3-.69,10.64,2.6,21.59,6,29.56,13.45C253.32,94.32,255.65,98.64,256,99.21Z"/><path class="cls-2" d="M244.3,71.2a.34.34,0,0,1-.18,0,.37.37,0,0,1-.15-.51,16.49,16.49,0,0,1,5.59-6,.37.37,0,0,1,.52.11.38.38,0,0,1-.12.52A15.94,15.94,0,0,0,244.62,71,.36.36,0,0,1,244.3,71.2Z"/><path class="cls-2" d="M233.41,68.63a.34.34,0,0,1-.17,0,.38.38,0,0,1-.16-.5A31.53,31.53,0,0,1,237.39,62a.38.38,0,0,1,.57.49,31.21,31.21,0,0,0-4.22,5.94A.35.35,0,0,1,233.41,68.63Z"/><path class="cls-5" d="M265.5,220.47c-.17-4.44-.82-35.89.06-40.25a28.28,28.28,0,0,1-12.17-17.94c-.95-5.2,2-11.18,5.87-24.77-.93-.84-5.62-1.49-6.85-1.45a189.24,189.24,0,0,0-7.64,25.63c-9.09-.76-20.84.12-30,.45-.76-5.9-.3-19.33,1.33-25.48-1.25-.22-5.93,1.26-6.61,2.38-1.61,10.11-1.62,17.8-2.92,28.71-.55,4.58-1.15,7.85-5,11.06,1.83,12.39,1.83,20,3.48,31.19.46,3.06-1.71,5.18,0,7.88A57.43,57.43,0,0,0,265.5,220.47Z"/><path class="cls-5" d="M203.89,345.33h30c.89-18-3.16-72.94-2.3-87.81a17.86,17.86,0,0,0,6.76,0c4.44,15.14,13.73,70,18.14,87.83H290c-4.25-16.62-20.77-106.43-23.27-120.15-.23-1.29.15-2.7-.08-4-.18-1-1-1.88-1.15-2.89-.06.07-.08.07-.1.07a49.05,49.05,0,0,1-11.83,5,56.3,56.3,0,0,1-38.26-2.55c-1-.46-2-1-3.07-1.44l-7.88-3.79c-.15,1.92-1.11,4.2-1.26,6.12s.41,3.23.26,5.15C201.64,249.74,205.43,320,203.89,345.33Z"/><path class="cls-2" d="M265.56,180.59a.38.38,0,0,1-.37-.32c-.1-.64-.21-1.34-.32-2.07-.74-4.78-1.77-11.33-1.18-15.66a.36.36,0,0,1,.42-.32.37.37,0,0,1,.32.42c-.57,4.23.44,10.71,1.18,15.44.12.74.22,1.43.32,2.08a.38.38,0,0,1-.31.43Z"/><path class="cls-2" d="M203.57,176.1a.37.37,0,0,1-.37-.33,62.66,62.66,0,0,1,.08-15.3.38.38,0,0,1,.42-.32.37.37,0,0,1,.33.42,61.69,61.69,0,0,0-.09,15.12.37.37,0,0,1-.33.41Z"/><path class="cls-2" d="M210,160.3c-1.16,0-2.27,0-3.23-.13a.37.37,0,0,1-.34-.41.38.38,0,0,1,.41-.34,44.57,44.57,0,0,0,8.83-.21.38.38,0,0,1,.42.32.37.37,0,0,1-.33.42A46.06,46.06,0,0,1,210,160.3Z"/><path class="cls-2" d="M255.13,160.43h0a70,70,0,0,1-11.1-1,.37.37,0,1,1,.12-.74,69.75,69.75,0,0,0,11,.94.38.38,0,0,1,.38.37A.39.39,0,0,1,255.13,160.43Z"/><path class="cls-2" d="M256,156.06h0a68.91,68.91,0,0,1-11.1-.94.39.39,0,0,1-.31-.43.38.38,0,0,1,.44-.31,68.47,68.47,0,0,0,11,.93.38.38,0,0,1,.37.38A.37.37,0,0,1,256,156.06Z"/><path class="cls-2" d="M209,156.34a10.67,10.67,0,0,1-2.14-.17.38.38,0,0,1-.28-.45.36.36,0,0,1,.44-.28,18,18,0,0,0,4.11.08l.54,0,4-.19a.38.38,0,0,1,.39.36.37.37,0,0,1-.36.39l-4,.18-.54,0C210.47,156.3,209.7,156.34,209,156.34Z"/><path class="cls-3" d="M227.91,219.22h0a58.83,58.83,0,0,1-20.1-6.37.13.13,0,0,1,.12-.22,58.76,58.76,0,0,0,20,6.35.12.12,0,0,1,.11.13A.13.13,0,0,1,227.91,219.22Z"/><path class="cls-3" d="M211.17,217.41h0a11.5,11.5,0,0,1-4.33-2,.12.12,0,0,1,0-.17.12.12,0,0,1,.17,0,11.34,11.34,0,0,0,4.24,2,.13.13,0,0,1,0,.25Z"/><path class="cls-3" d="M217.77,93.31h0a3.79,3.79,0,0,1-3.44-2.77,5.1,5.1,0,0,1,.95-4.41.14.14,0,0,1,.18,0,.14.14,0,0,1,0,.18,4.84,4.84,0,0,0-.91,4.18,3.58,3.58,0,0,0,3.2,2.59.12.12,0,0,1,.12.12A.12.12,0,0,1,217.77,93.31Z"/><path class="cls-3" d="M218.7,91.79a2,2,0,0,1-2-1.91.13.13,0,0,1,.13-.13.12.12,0,0,1,.12.12,1.81,1.81,0,0,0,1.73,1.67h0a.12.12,0,0,1,.12.12.12.12,0,0,1-.12.13Z"/><path class="cls-3" d="M226.92,93.06h0a1.8,1.8,0,0,1-1.06-1.53.14.14,0,0,1,.12-.14.12.12,0,0,1,.13.12,1.54,1.54,0,0,0,.91,1.32A.13.13,0,0,1,227,93,.11.11,0,0,1,226.92,93.06Z"/><path class="cls-2" d="M250.37,109.29a.12.12,0,0,1-.1-.05.13.13,0,0,1,0-.18,6,6,0,0,0,1.61-1.44,2,2,0,0,0,.26-2,.13.13,0,0,1,.23-.11,2.26,2.26,0,0,1-.28,2.23,6.47,6.47,0,0,1-1.68,1.51Z"/><path class="cls-2" d="M250.89,82.41a.08.08,0,0,1-.07,0,.12.12,0,0,1,0-.17,18.8,18.8,0,0,0,2.12-5.31.12.12,0,0,1,.15-.09.12.12,0,0,1,.09.15A18.88,18.88,0,0,1,251,82.35.11.11,0,0,1,250.89,82.41Z"/><path class="cls-2" d="M253.25,84.13a.1.1,0,0,1-.07,0,.12.12,0,0,1,0-.17,13.31,13.31,0,0,0,1.79-4,.12.12,0,0,1,.15-.08.11.11,0,0,1,.09.15,13.41,13.41,0,0,1-1.83,4A.12.12,0,0,1,253.25,84.13Z"/><path class="cls-2" d="M255.3,86.62a.11.11,0,0,1-.07,0,.12.12,0,0,1,0-.17,9.81,9.81,0,0,0,1.51-3.55.12.12,0,0,1,.14-.1.13.13,0,0,1,.1.15,9.79,9.79,0,0,1-1.55,3.64A.11.11,0,0,1,255.3,86.62Z"/><path class="cls-2" d="M236.69,224.86c-.88,0-1.76,0-2.66-.05a67,67,0,0,1-31.18-9.16.37.37,0,1,1,.38-.64,66,66,0,0,0,63.5,1.87.38.38,0,0,1,.34.67A67.19,67.19,0,0,1,236.69,224.86Z"/><path class="cls-3" d="M258.9,245.85a7.56,7.56,0,0,0-6-4c-3.94-7-10.91-20.62-15.29-30.45a8.85,8.85,0,0,0,1.22-11.55c-1.54-2.38-6.67-6.3-8.87-6.31a1,1,0,0,0-1,.67,1.33,1.33,0,0,0,.21.94q1.86,3.66,3.42,7.44a2,2,0,0,1,.2.94c-.06.55-.56.92-1,1.21-1,.63-2,1.21-3.08,1.74a2,2,0,0,1-3.22-.73q-1.69-2.94-3.23-6a2.61,2.61,0,0,0-.93-1.18,1.27,1.27,0,0,0-1.85,1c-.68,4-.42,8.35,1.85,11.7,2.14,3.15,4.86,4.47,7.91,4.2a338.69,338.69,0,0,1,16.36,30.25,7.56,7.56,0,1,0,13.33.13Zm-5.28,6.56a3.32,3.32,0,1,1,1.51-4.54A3.4,3.4,0,0,1,253.62,252.41Z"/><path class="cls-2" d="M252.21,257.29a8.18,8.18,0,0,1-2.38-.36,7.94,7.94,0,0,1-4.68-11.22A336.93,336.93,0,0,0,229,215.86c-3.21.2-5.91-1.27-8-4.38-2.61-3.85-2.48-8.64-1.91-12a1.62,1.62,0,0,1,.88-1.28,1.76,1.76,0,0,1,1.51,0,2.77,2.77,0,0,1,1.09,1.35c1,2,2.1,4,3.23,5.95a2.25,2.25,0,0,0,.73.9c.57.33,1.37,0,2-.31,1-.53,2.07-1.11,3.05-1.73.42-.26.81-.56.85-.93a1.6,1.6,0,0,0-.18-.76c-1-2.5-2.17-5-3.4-7.41a1.63,1.63,0,0,1-.24-1.21,1.39,1.39,0,0,1,1.33-1h0c2.32,0,7.53,3.94,9.18,6.49A9.18,9.18,0,0,1,238,211.45c4.2,9.41,10.91,22.55,15.07,30a7.9,7.9,0,0,1,6.14,4.2h0a7.92,7.92,0,0,1-7,11.62Zm-23-42.19a.36.36,0,0,1,.32.18,337,337,0,0,1,16.38,30.29.38.38,0,0,1,0,.33,7.19,7.19,0,1,0,12.67.12h0a7.17,7.17,0,0,0-5.74-3.83.38.38,0,0,1-.3-.19c-4.19-7.51-11.07-21-15.3-30.48a.37.37,0,0,1,.08-.41A8.48,8.48,0,0,0,238.48,200c-1.51-2.33-6.53-6.13-8.56-6.15h0a.66.66,0,0,0-.61.4,1.06,1.06,0,0,0,.19.67c1.23,2.43,2.38,5,3.42,7.47a2.3,2.3,0,0,1,.24,1.13A2.24,2.24,0,0,1,232,205a34,34,0,0,1-3.11,1.76,2.86,2.86,0,0,1-2.7.3,3.05,3.05,0,0,1-1-1.17c-1.14-2-2.23-4-3.25-6a2.24,2.24,0,0,0-.77-1,1,1,0,0,0-.83,0,.92.92,0,0,0-.47.74c-.55,3.2-.68,7.78,1.79,11.43,2,2.94,4.54,4.3,7.57,4ZM252,253.19a3.89,3.89,0,0,1-1.07-.15,3.62,3.62,0,0,1-2.43-4.64,3.85,3.85,0,0,1,1.9-2.2,3.69,3.69,0,1,1,3.42,6.54h0A3.89,3.89,0,0,1,252,253.19Zm.21-6.69a3.16,3.16,0,0,0-1.47.36,3.12,3.12,0,0,0-1.53,1.78,2.86,2.86,0,0,0,1.93,3.68,3.11,3.11,0,0,0,2.33-.25h0a3,3,0,0,0,1.36-4A2.93,2.93,0,0,0,252.18,246.5Z"/><path class="cls-2" d="M230.66,214.53a.14.14,0,0,1-.13-.11.13.13,0,0,1,.11-.14,9.41,9.41,0,0,0,4.79-2.37.13.13,0,0,1,.18,0,.12.12,0,0,1,0,.17,9.68,9.68,0,0,1-4.92,2.44Z"/><path class="cls-3" d="M277,219.1c-5,2-21.54,7.73-22.41,8.74-.61.72-1.57,3.13-2.12,3.89-1.34,1.83-4.5,3.8-6.62,4.76-1.81.83-3.93,1.63-5.77,2.38-1.28.53-2.1.4-2.72-.68-.51-.88.39-2.07,1.33-2.7-1.05.71-2.89,1.21-4-.22s1.26-2.56,2.11-3.18c-.86.21-2.62,1-3.45.83a2,2,0,0,1-1.69-1.52c-.29-1.58,2.39-3,3.19-3.73-2.81,1.32-5,.89-5-.68s.73-2.67,3.28-3.78c5.35-2.33,9-3.92,6.72-6.84a8.8,8.8,0,0,1,4.1-.81c.75.15,2.28,1.17,3.05,1.24,3.68.33,25.67-14.25,28.21-15.43,3.36-1.57,13.4-.51,15.35,2.45C292.31,206.48,293.21,212.6,277,219.1Z"/><path class="cls-2" d="M238.87,239.55a2,2,0,0,1-1.81-1.17,1.84,1.84,0,0,1,.16-1.88,2.74,2.74,0,0,1-2.79-1,1.45,1.45,0,0,1-.32-1.13,2.39,2.39,0,0,1,.76-1.26,4,4,0,0,1-1.56.19,2.39,2.39,0,0,1-2-1.82c-.2-1.07.63-2,1.55-2.74a3.66,3.66,0,0,1-2.57-.28,1.67,1.67,0,0,1-.82-1.45c0-1.85.94-3,3.5-4.13,3.76-1.64,6.73-2.94,7.13-4.49a2.1,2.1,0,0,0-.56-1.79.37.37,0,0,1-.06-.32.4.4,0,0,1,.21-.25,9.29,9.29,0,0,1,4.33-.83,7.23,7.23,0,0,1,1.45.61,6,6,0,0,0,1.55.62c2.54.23,15.34-7.67,22.21-11.91,2.95-1.83,5.09-3.15,5.81-3.48,3.39-1.58,13.66-.69,15.82,2.59a5.8,5.8,0,0,1,.7,5c-1.2,3.84-6.05,7.48-14.4,10.84-1.65.66-4.62,1.75-7.77,2.9-5.54,2-13.91,5.11-14.5,5.74a13.91,13.91,0,0,0-1.14,2.06,13.18,13.18,0,0,1-1,1.8c-1.35,1.85-4.45,3.83-6.76,4.88-1.24.56-2.61,1.11-3.95,1.65l-1.84.74A3.67,3.67,0,0,1,238.87,239.55Zm0-3.74c-.86.58-1.57,1.58-1.21,2.19.5.87,1.09,1,2.26.53.59-.25,1.21-.5,1.85-.75,1.32-.53,2.69-1.07,3.91-1.63,2.29-1.05,5.25-3,6.46-4.65a13.7,13.7,0,0,0,.9-1.68,13.43,13.43,0,0,1,1.24-2.22c.6-.7,6.26-2.81,14.81-5.95,3.14-1.15,6.11-2.24,7.75-2.9h0c10.13-4.07,13.18-7.88,14-10.37a5,5,0,0,0-.6-4.35c-1.79-2.71-11.55-3.88-14.89-2.32-.68.31-2.9,1.69-5.72,3.43-10.06,6.22-20.11,12.26-22.68,12a5.91,5.91,0,0,1-1.81-.7,7.81,7.81,0,0,0-1.27-.55,8.16,8.16,0,0,0-3.45.62,2.53,2.53,0,0,1,.4,2c-.49,1.9-3.45,3.2-7.55,5-2.59,1.13-3.08,2.11-3.05,3.42a.94.94,0,0,0,.46.83c.79.49,2.37.3,4-.48a.37.37,0,0,1,.46.13.38.38,0,0,1-.05.49c-.2.18-.5.4-.84.65-1,.69-2.43,1.75-2.24,2.73a1.63,1.63,0,0,0,1.38,1.22,6.74,6.74,0,0,0,2.33-.53c.36-.12.7-.23,1-.3a.38.38,0,0,1,.43.21.39.39,0,0,1-.12.46l-.4.27c-.63.44-1.69,1.16-1.8,1.82a.73.73,0,0,0,.17.56c1,1.29,2.65.7,3.48.15h0a.37.37,0,0,1,.42.62ZM277,219.1Z"/><polygon class="cls-3" points="125.42 127.53 102.76 117.96 101.21 120.9 124 130.45 125.42 127.53"/><path class="cls-2" d="M124,130.83l-.14,0-22.8-9.55a.41.41,0,0,1-.21-.22.39.39,0,0,1,0-.3l1.55-2.94a.37.37,0,0,1,.47-.17l22.67,9.57a.35.35,0,0,1,.2.21.36.36,0,0,1,0,.29l-1.42,2.93A.38.38,0,0,1,124,130.83Zm-22.27-10.12L123.82,130l1.09-2.25-22-9.28Z"/><path class="cls-3" d="M137.1,127c-4.24-1-9.3-1.15-13.6-1.45-.41,0-.83-.25-1.21-.11a1.58,1.58,0,0,0-.83,1c-1.18,3.06.1-.74-1.08,2.32a1.23,1.23,0,0,0,.29,1.42c2.13,2.2,9.41,8.32,12.48,9.25Z"/><path class="cls-2" d="M133.15,139.81l-.11,0c-3.12-.95-10.4-7-12.64-9.35a1.6,1.6,0,0,1-.37-1.81c.43-1.13.57-1.47.77-1.53l.31-.79a2,2,0,0,1,1.06-1.28,1.8,1.8,0,0,1,1,0,1.8,1.8,0,0,0,.38.07l2.63.17a63.17,63.17,0,0,1,11,1.29.4.4,0,0,1,.24.18.39.39,0,0,1,0,.3l-4,12.49A.39.39,0,0,1,133.15,139.81ZM121,128.1l-.31.8a.85.85,0,0,0,.21,1c2.06,2.13,8.83,7.81,12,9l3.71-11.73a65.36,65.36,0,0,0-10.5-1.18l-2.65-.17a3.85,3.85,0,0,1-.49-.08,1.06,1.06,0,0,0-.57-.05c-.3.11-.46.47-.6.84C121.37,127.7,121.24,128,121,128.1Z"/><path class="cls-3" d="M134,147.72c.8-1.08,2.3-1.33,3.64-1.36a7.38,7.38,0,0,1,2.15.21,3.16,3.16,0,0,1,1.75,1.21,3.84,3.84,0,0,1,.44,1.09,2.18,2.18,0,0,1,0,1.49,1.6,1.6,0,0,1-1.21.79,3.78,3.78,0,0,1-1.49-.16A11.61,11.61,0,0,1,134,147.72Z"/><path class="cls-2" d="M140.39,151.55a4.73,4.73,0,0,1-1.24-.2,12,12,0,0,1-5.41-3.37.37.37,0,0,1,0-.48c.72-1,2-1.47,3.93-1.51a7.56,7.56,0,0,1,2.27.22,3.46,3.46,0,0,1,2,1.37,4,4,0,0,1,.49,1.19,2.54,2.54,0,0,1-.07,1.77,1.94,1.94,0,0,1-1.49,1Zm-5.87-3.85a11,11,0,0,0,4.83,2.93,3.29,3.29,0,0,0,1.33.15,1.26,1.26,0,0,0,.94-.59,1.75,1.75,0,0,0,0-1.23,3,3,0,0,0-.39-1,2.73,2.73,0,0,0-1.53-1.06,6.56,6.56,0,0,0-2-.19A4.42,4.42,0,0,0,134.52,147.7Z"/><path class="cls-3" d="M133.8,163.92c7.86,5.73,10.69,4.39,12.66,7.46,1.38,2.16,20.12,38.2,28.29,43.88,2.64,1.78,6.28.49,6.94-5.51,1.28-11.67-.85-17.53-2.4-19.53-.56-1.12-25.2-28.81-25.51-29.74-.48-1.43-.66-4.1-1.26-5.2-1.58-2.91-4-4.07-6.25-6.13-.58-.54-.48-.84-1.27-1a3.74,3.74,0,0,0-2.54.63c-2.33,1.39-3.78,3.85-5,6.27A60.26,60.26,0,0,0,133.8,163.92Z"/><path class="cls-2" d="M177,216.37a4.48,4.48,0,0,1-2.49-.8c-6.89-4.79-21.07-30.68-26.41-40.43-1-1.86-1.76-3.21-2-3.55-.89-1.39-2-1.81-3.75-2.51a35.51,35.51,0,0,1-8.82-4.85.39.39,0,0,1-.13-.43,60.61,60.61,0,0,1,3.66-8.9c1.27-2.5,2.78-5,5.15-6.42a4,4,0,0,1,2.81-.68,1.49,1.49,0,0,1,1.09.66,2.58,2.58,0,0,0,.37.42c.67.62,1.38,1.17,2.06,1.7a14.26,14.26,0,0,1,4.26,4.52,11.56,11.56,0,0,1,.79,3,16.54,16.54,0,0,0,.49,2.24c.39.7,7.3,8.61,13.4,15.6,7.16,8.2,11.62,13.32,12.07,14.06,2,2.55,3.63,9.08,2.46,19.78-.34,3.15-1.55,5.36-3.39,6.22A3.91,3.91,0,0,1,177,216.37Zm-42.78-52.59a34.84,34.84,0,0,0,8.42,4.6c1.86.73,3.09,1.21,4.11,2.8.23.37.94,1.66,2,3.6,5.32,9.71,19.45,35.48,26.18,40.17a3.42,3.42,0,0,0,3.4.38c1.59-.74,2.64-2.74,3-5.63,1.48-13.55-1.68-18.41-2.32-19.25a.21.21,0,0,1,0-.06c-.31-.57-6.52-7.68-12-13.95-9.07-10.39-13.37-15.34-13.54-15.84a18.71,18.71,0,0,1-.52-2.36,10.77,10.77,0,0,0-.71-2.78,13.49,13.49,0,0,0-4.06-4.29c-.7-.54-1.42-1.1-2.11-1.74a3.73,3.73,0,0,1-.46-.51.76.76,0,0,0-.62-.39,3.37,3.37,0,0,0-2.29.59c-2.22,1.33-3.65,3.72-4.87,6.12A58.14,58.14,0,0,0,134.25,163.78Zm19.88-3.42Z"/><path class="cls-4" d="M137.45,143.42c-2.09,6.06-2.72,14.38-4.88,19.6-1,2.34-2,4.71-2.17,7.22s.81,3.66,3.09,4.64c1.22.53,6,1.88,6.78-.55,2.6-8.56,2.66-22.31,7.63-27.5-1-.25,5.75,3,6.39,1.87,1.88-3.27,7.38-13,6.12-14.24-1.87-1.79-25.87-10.32-26.2-9.58-1.48,3.32-5.67,13.13-6,13.84C128.92,139.14,138.28,143.78,137.45,143.42Z"/><path class="cls-2" d="M137.6,176.1a12.74,12.74,0,0,1-4.26-.88c-2.55-1.09-3.44-2.45-3.31-5a20.4,20.4,0,0,1,1.94-6.73l.25-.61a56.52,56.52,0,0,0,2.57-10,78.5,78.5,0,0,1,2.2-9.26l-3.55-1.8c-2.48-1.24-5-2.53-5.41-2.75a.39.39,0,0,1-.15-.48c.1-.22.59-1.34,1.26-2.9,1.48-3.45,3.71-8.66,4.73-10.93a.44.44,0,0,1,.33-.26c1.23-.24,12.64,3.89,13.12,4.07,2,.72,12,4.4,13.35,5.64.38.37,1.55,1.49-6,14.7-.62,1.07-3.88-.21-5.76-1.07-.41-.18-.72-.33-.94-.45-3,3.4-4.08,10.18-5.17,16.75a83.64,83.64,0,0,1-2.12,10.33,2.08,2.08,0,0,1-1.18,1.32A4.39,4.39,0,0,1,137.6,176.1Zm.14-32.37a77.06,77.06,0,0,0-2.22,9.26,56.36,56.36,0,0,1-2.6,10.18l-.26.61a20.16,20.16,0,0,0-1.89,6.47c-.11,2.23.61,3.31,2.87,4.29.89.38,4,1.25,5.49.54a1.33,1.33,0,0,0,.78-.86A81.08,81.08,0,0,0,142,164c1.11-6.71,2.25-13.64,5.41-17.18l0-.1c0-.08.14-.33.54-.24a.37.37,0,0,1,.26.24c1.11.65,5.24,2.24,5.72,1.8,5.77-10,6.6-13.37,6.18-13.77-1.82-1.74-23.38-9.34-25.68-9.52-1,2.36-3.2,7.39-4.65,10.74-.5,1.19-.91,2.12-1.11,2.6.84.45,3.15,1.61,5.07,2.57l2.72,1.37.86.44c.37.2.63.33.48.67A.88.88,0,0,1,137.74,143.73Z"/><path class="cls-3" d="M129.67,158.09a1.74,1.74,0,0,0-.6,2.26,5.25,5.25,0,0,0,1.75,1.91c.45.35,3.88,1.47,4.56,1.27a2,2,0,0,0,1.53-2.19c0-.44-2.51-.39-3.48-1.45S131,157.48,129.67,158.09Z"/><path class="cls-2" d="M135.17,163.92a14,14,0,0,1-4.58-1.36,5.66,5.66,0,0,1-1.86-2.06,2.09,2.09,0,0,1,.79-2.75h0c1.73-.77,3.39,1,4.19,1.89a4.74,4.74,0,0,0,2.25.92c.78.17,1.35.29,1.33.8a2.41,2.41,0,0,1-1.8,2.53A1.39,1.39,0,0,1,135.17,163.92Zm-5.35-5.49c-.56.25-.68,1.14-.4,1.77a5,5,0,0,0,1.63,1.77,13.45,13.45,0,0,0,4.23,1.2,1.59,1.59,0,0,0,1.25-1.7,6,6,0,0,0-.73-.18,5.22,5.22,0,0,1-2.64-1.14c-1-1.12-2.24-2.21-3.34-1.72Z"/><path class="cls-3" d="M130.61,154.29a1.72,1.72,0,0,0-.9,2.31,5.72,5.72,0,0,0,1.87,2.18c.5.42,5.77,4.41,6.16,1.51.06-.46-.63-1.46-.89-1.87-.54-.83-1.36-1.1-2-1.86C133.77,155.33,132.26,153.79,130.61,154.29Z"/><path class="cls-2" d="M136.6,161.71c-2,0-5.22-2.61-5.26-2.64a6.15,6.15,0,0,1-2-2.34,2.38,2.38,0,0,1,.07-1.87,1.73,1.73,0,0,1,1.07-.93h0c1.79-.54,3.34.9,4.62,2.39a5.15,5.15,0,0,0,.87.75,4.39,4.39,0,0,1,1.17,1.15l.09.13a3.84,3.84,0,0,1,.86,2,1.44,1.44,0,0,1-.89,1.27A1.72,1.72,0,0,1,136.6,161.71Zm-5.88-7.06a1,1,0,0,0-.62.54,1.67,1.67,0,0,0,0,1.28,5.59,5.59,0,0,0,1.76,2c1.06.88,4,2.83,5.13,2.41.15-.06.35-.19.42-.67a4,4,0,0,0-.75-1.48l-.09-.13a3.76,3.76,0,0,0-1-1,5.91,5.91,0,0,1-1-.86c-1.12-1.31-2.46-2.58-3.83-2.16Z"/><path class="cls-3" d="M132.55,150.35a1.87,1.87,0,0,0-1.43,2.44,9.16,9.16,0,0,0,2,3.41,19.1,19.1,0,0,0,4.4,2.51c1,.31,2,.21,2.24-.63a2.17,2.17,0,0,0-.39-1.54,23.94,23.94,0,0,0-1.9-3C136.34,152,134.67,150.06,132.55,150.35Z"/><path class="cls-2" d="M138.52,159.24a3.59,3.59,0,0,1-1.08-.18,18.91,18.91,0,0,1-4.55-2.59,9.43,9.43,0,0,1-2.13-3.58,2.47,2.47,0,0,1,.28-2,2,2,0,0,1,1.45-.92h0c2.23-.31,3.93,1.53,5.31,3.38a24.63,24.63,0,0,1,1.93,3,2.52,2.52,0,0,1,.43,1.82,1.4,1.4,0,0,1-.67.85A2.1,2.1,0,0,1,138.52,159.24Zm-5.92-8.52h0a1.29,1.29,0,0,0-.93.59,1.74,1.74,0,0,0-.19,1.38,8.72,8.72,0,0,0,1.93,3.24,18.42,18.42,0,0,0,4.25,2.42,2,2,0,0,0,1.47,0,.57.57,0,0,0,.3-.39,1.86,1.86,0,0,0-.36-1.26,23.16,23.16,0,0,0-1.87-2.91C136,152.14,134.43,150.47,132.6,150.72Z"/><path class="cls-3" d="M134.89,147.21a2.08,2.08,0,0,0-1.42,2.56,8.06,8.06,0,0,0,1.63,3.3,16.72,16.72,0,0,0,3.92,2.61c.9.29,2.07,0,2.31-.85a2,2,0,0,0-.14-1.47c-.49-1-1.82-1.59-2.51-2.47a22.09,22.09,0,0,1-1.64-2c-.1-.58.13-.93-.31-1.31A2.32,2.32,0,0,0,134.89,147.21Z"/><path class="cls-2" d="M139.71,156.17a2.68,2.68,0,0,1-.8-.13,16.63,16.63,0,0,1-4.08-2.71,8.54,8.54,0,0,1-1.73-3.47,3,3,0,0,1,.47-2.19,2.51,2.51,0,0,1,1.55-1.23.37.37,0,0,1,.45.28.38.38,0,0,1-.28.45,1.86,1.86,0,0,0-1.09.89,2.32,2.32,0,0,0-.37,1.62,7.72,7.72,0,0,0,1.54,3.13,16.57,16.57,0,0,0,3.76,2.52,1.92,1.92,0,0,0,1.4-.1.87.87,0,0,0,.43-.5,1.59,1.59,0,0,0-.11-1.21,4.46,4.46,0,0,0-1.29-1.32,7.14,7.14,0,0,1-1.18-1.08c-.59-.75-1.26-1.75-1.69-2.44a.38.38,0,0,1,.64-.4c.42.68,1.07,1.65,1.64,2.38a6.12,6.12,0,0,0,1.05,1,4.94,4.94,0,0,1,1.51,1.58,2.43,2.43,0,0,1,.16,1.74,1.58,1.58,0,0,1-.8.95A2.61,2.61,0,0,1,139.71,156.17Z"/><path class="cls-3" d="M145.37,160.35a7.26,7.26,0,0,1-2.83-2.88c-.37-1,.54-3.27.06-4.22-1.36-2.72,0,.05-1.38-2.66-.45-.88-2.08-.15-3-.41-1.53-.41-3.64-2.65-2.91-3,2.31-1.16,5.77-1.22,10,1.21,2,1.13,2,2.34,2.42,4.35.08.4,1.19,2.4,1.25,2.8s1,.24.88.7a4.34,4.34,0,0,1-1.61,2.45C147.44,159.24,146.52,161,145.37,160.35Z"/><path class="cls-2" d="M144.06,159.83a.36.36,0,0,1-.2-.06c-1.89-1.21-1.66-3.77-1.49-5.63a6.53,6.53,0,0,0-1.45-3.32,5.51,5.51,0,0,0-.87,0,5.35,5.35,0,0,1-4.54-2,1.84,1.84,0,0,1-.5-1.94,1.07,1.07,0,0,1,1-.59,18.47,18.47,0,0,0,1.94-.1,10.42,10.42,0,0,1,3.77.08l.51.19a12.34,12.34,0,0,1,5.32,3.35.37.37,0,1,1-.52.54,11.59,11.59,0,0,0-5.07-3.19l-.51-.19a10.41,10.41,0,0,0-3.44,0,19.68,19.68,0,0,1-2,.1c-.24,0-.3.12-.32.16a1.16,1.16,0,0,0,.38,1.12,4.66,4.66,0,0,0,4,1.7,6.09,6.09,0,0,1,1.08.08l.11,0c.83.48,1.95,3.11,1.87,4.07-.19,2.09-.25,4,1.14,4.93a.38.38,0,0,1,.12.52A.39.39,0,0,1,144.06,159.83Z"/><polygon class="cls-3" points="98.75 114.82 105.56 117.63 103.25 123.32 96.46 120.64 98.75 114.82"/><path class="cls-2" d="M103.25,123.7l-.14,0L96.32,121a.37.37,0,0,1-.21-.48l2.29-5.82a.41.41,0,0,1,.2-.21.37.37,0,0,1,.29,0l6.81,2.81a.37.37,0,0,1,.2.49l-2.3,5.69A.38.38,0,0,1,103.25,123.7ZM97,120.43l6.09,2.41,2-5L99,115.31Z"/><path class="cls-2" d="M152.28,145.79h-.05a.13.13,0,0,1-.06-.17c1.59-3.25,3.28-6.51,5-9.68a.12.12,0,0,1,.17-.05.13.13,0,0,1,.05.17c-1.76,3.17-3.45,6.42-5,9.67A.11.11,0,0,1,152.28,145.79Z"/><path class="cls-2" d="M150.09,145.62l-.06,0a.13.13,0,0,1-.05-.17l1.11-2.2a.12.12,0,0,1,.16,0,.11.11,0,0,1,.06.16l-1.11,2.21A.14.14,0,0,1,150.09,145.62Z"/><path class="cls-2" d="M101.9,121.66h-.05a.12.12,0,0,1-.06-.16l1.57-3.7a.12.12,0,0,1,.16-.06.11.11,0,0,1,.07.16l-1.57,3.7A.14.14,0,0,1,101.9,121.66Z"/><path class="cls-2" d="M273.16,199.47a.14.14,0,0,1-.11-.07.13.13,0,0,1,.06-.17,16.88,16.88,0,0,1,10.81-1,.13.13,0,0,1,.09.15.12.12,0,0,1-.15.09,16.69,16.69,0,0,0-10.64,1Z"/><path class="cls-2" d="M272.58,197.09a.12.12,0,0,1-.11-.07.13.13,0,0,1,.06-.17,9,9,0,0,1,3.55-.73.13.13,0,0,1,.14.12.12.12,0,0,1-.12.13h0a8.66,8.66,0,0,0-3.47.71Z"/><path class="cls-2" d="M237.16,225.13a.13.13,0,0,1-.11-.06l-.59-1.1a.13.13,0,0,1,0-.17.13.13,0,0,1,.17,0l.59,1.1a.13.13,0,0,1-.05.17Z"/><path class="cls-2" d="M239,229.21a.13.13,0,0,1-.12-.08l-.5-1.18a.12.12,0,0,1,.06-.16.12.12,0,0,1,.17.07l.5,1.17a.13.13,0,0,1-.06.17Z"/><path class="cls-2" d="M240.68,233a.14.14,0,0,1-.12-.09l-.23-.74a.12.12,0,0,1,.08-.16.14.14,0,0,1,.16.08l.23.74a.13.13,0,0,1-.08.16Z"/><path class="cls-2" d="M242,236.19a.13.13,0,0,1-.12-.1l-.15-.62a.13.13,0,0,1,.1-.15.12.12,0,0,1,.15.09l.14.62a.11.11,0,0,1-.09.15Z"/><path class="cls-2" d="M182.08,215.39l-.06,0a.13.13,0,0,1-.05-.17,21.2,21.2,0,0,0,2.49-12.55.11.11,0,0,1,.11-.13.12.12,0,0,1,.14.11,21.49,21.49,0,0,1-2.52,12.69A.12.12,0,0,1,182.08,215.39Z"/><path class="cls-2" d="M184.91,214.53l0,0a.12.12,0,0,1-.06-.16,18,18,0,0,0,1.73-6.8.12.12,0,0,1,.13-.12.12.12,0,0,1,.12.13,18.36,18.36,0,0,1-1.75,6.9A.15.15,0,0,1,184.91,214.53Z"/><path class="cls-2" d="M172.36,345.6a.37.37,0,0,1-.36-.27c-.47-1.61-1.64-7.2-3.13-14.27-3.73-17.74-10-47.44-12.78-50.52-1.19-1.3-2.49-2.55-3.75-3.75a53,53,0,0,1-5.53-5.86,30.18,30.18,0,0,1-5.87-15.79A47,47,0,0,1,142.68,238c.19-.67.39-1.36.59-2,.93-3.06,1.88-6.21,1.68-9.38a13.29,13.29,0,0,0-3.89-8.57,27.16,27.16,0,0,0-3-2.45,19,19,0,0,1-4.22-3.83c-2.53-3.43-2.42-7.91-1.89-11.06a56,56,0,0,1,1.38-5.68c.48-1.7,1-3.47,1.29-5.23a19.5,19.5,0,0,0-.48-7.22,21.9,21.9,0,0,1-.56-7.43.37.37,0,1,1,.74.11,21.59,21.59,0,0,0,.55,7.18,20.32,20.32,0,0,1,.49,7.5c-.33,1.79-.83,3.57-1.31,5.29a55.91,55.91,0,0,0-1.36,5.61c-.51,3-.62,7.27,1.75,10.49a18.44,18.44,0,0,0,4.07,3.67,29.25,29.25,0,0,1,3.07,2.51,14.14,14.14,0,0,1,4.12,9.07c.21,3.3-.77,6.52-1.71,9.63-.2.66-.4,1.34-.59,2-3.58,12.55-2.11,24.32,4,32.31a51.12,51.12,0,0,0,5.44,5.76c1.27,1.22,2.59,2.47,3.79,3.8,3,3.22,9,31.89,13,50.87,1.49,7,2.66,12.63,3.12,14.21a.38.38,0,0,1-.25.47Z"/><path class="cls-2" d="M2,160.44c-1.06,0-1.62,0-1.63,0a.38.38,0,1,1,0-.75s2.54.11,7.16-.14c.31-7.83,5.22-17.22,12.89-24.59,8.75-8.39,19.57-13.09,30.47-13.23,3.12,0,14.09.28,24.1,6.2A32.57,32.57,0,0,1,86.6,139.3c3.23,5.43,5,12,5.1,19.58l12.17-.4a.37.37,0,0,1,.39.36.37.37,0,0,1-.36.38l-12.56.42a.34.34,0,0,1-.27-.1.42.42,0,0,1-.12-.27c-.18-14.08-5.67-24.42-16.33-30.72-9.84-5.82-20.62-6.14-23.7-6.1-10.71.14-21.35,4.76-30,13-7.65,7.35-12.5,16.7-12.67,24.41a.37.37,0,0,1-.35.37C5.27,160.4,3.26,160.44,2,160.44Z"/><path class="cls-3" d="M338,210.89a19.86,19.86,0,0,0-1.59,4.53,4.55,4.55,0,0,0,1.6,4.63c1.76,1.5,5,.37,6.36-2.06,2.86-5.28,10.31-19.91,15.75-30.94-2.78-1.52-5.72-2.71-8.5-4.24C351,183.89,341.73,202.45,338,210.89Z"/><path class="cls-2" d="M340,221.1a3.32,3.32,0,0,1-2.21-.77,4.94,4.94,0,0,1-1.73-5,19.65,19.65,0,0,1,1.62-4.62h0c3.83-8.59,13.08-27.07,13.63-28.1a.41.41,0,0,1,.22-.19.41.41,0,0,1,.29,0c1.38.76,2.83,1.45,4.23,2.11s2.87,1.37,4.27,2.14a.36.36,0,0,1,.16.49c-5.38,10.89-12.89,25.64-15.76,30.95a5.76,5.76,0,0,1-3.9,2.86A4.62,4.62,0,0,1,340,221.1ZM338.32,211h0a19.66,19.66,0,0,0-1.57,4.45,4.14,4.14,0,0,0,1.48,4.27,2.8,2.8,0,0,0,2.41.53,5.06,5.06,0,0,0,3.37-2.48c2.84-5.24,10.23-19.75,15.59-30.6-1.29-.69-2.62-1.32-3.92-1.94s-2.64-1.25-3.93-2C350.35,186.07,341.92,203,338.32,211Z"/><path class="cls-5" d="M364.12,169.38c-3.46-1.71-11.62-4.13-14.71-.25s-5,15.91-5,16.62a1.81,1.81,0,0,0,1.1,1.7c4,2,15.58,7.44,15.58,7.44a1.87,1.87,0,0,0,2-.57c.83-.84,7.19-8.35,9.33-12.67C373.74,178.93,371.66,173.12,364.12,169.38Zm-11.76,2.8c2.33-1.58,5.26-1.14,7.79-.37a16.59,16.59,0,0,1,5.41,2.59,8.5,8.5,0,0,1,3.23,5.12Z"/><path class="cls-2" d="M342.57,211.41h-.06a.13.13,0,0,1-.06-.17l9.43-19.31a.13.13,0,0,1,.17,0,.12.12,0,0,1,.06.16l-9.43,19.31A.12.12,0,0,1,342.57,211.41Z"/><path class="cls-2" d="M350.87,199.63h-.05a.12.12,0,0,1-.06-.17l3.3-6.45a.12.12,0,1,1,.22.11l-3.3,6.45A.11.11,0,0,1,350.87,199.63Z"/><path class="cls-2" d="M362.91,173.87h0a.36.36,0,0,1-.33-.41c.06-.54.11-1,.15-1.32a33.08,33.08,0,0,0,.26-3.67.38.38,0,0,1,.75,0,33.78,33.78,0,0,1-.27,3.74l-.15,1.31A.37.37,0,0,1,362.91,173.87Z"/><path class="cls-3" d="M338.58,126.71l-31.65-16.52a2.28,2.28,0,0,0-3,.53l-.38.71A71.5,71.5,0,0,0,293,106.79a4.13,4.13,0,0,0-2.69-.28,2.22,2.22,0,0,0-1.32,2.7,4.25,4.25,0,0,0,1.93,2,102.38,102.38,0,0,0,9.87,5.52l-5.92,11.4c-.62,1.19.29,2.74,1.48,3.36l31.45,16.35a2.37,2.37,0,0,0,3.05-.63L340,130.06A2.64,2.64,0,0,0,338.58,126.71Z"/><path class="cls-2" d="M329,148.48a3,3,0,0,1-1.37-.33L296.2,131.8c-1.35-.71-2.35-2.46-1.63-3.86l5.74-11.06a102.49,102.49,0,0,1-9.56-5.38,4.49,4.49,0,0,1-2.09-2.17,2.58,2.58,0,0,1,1.55-3.17,4.44,4.44,0,0,1,3,.28,71.41,71.41,0,0,1,10.24,4.48l.19-.38a2,2,0,0,1,1.18-.91,3.07,3.07,0,0,1,2.33.23l31.65,16.52h0a3,3,0,0,1,1.54,3.85l-9.08,17.13a2.08,2.08,0,0,1-1.28,1A2.83,2.83,0,0,1,329,148.48Zm-37.87-41.73a2.26,2.26,0,0,0-.69.11,1.85,1.85,0,0,0-1.09,2.23,3.88,3.88,0,0,0,1.78,1.78,101.32,101.32,0,0,0,9.83,5.5.41.41,0,0,1,.19.22.36.36,0,0,1,0,.29l-5.92,11.41c-.5,1,.28,2.3,1.32,2.85L328,147.48a2.23,2.23,0,0,0,1.7.15,1.5,1.5,0,0,0,.85-.61l9.08-17.14a2.27,2.27,0,0,0-1.22-2.84l-31.66-16.52a2.39,2.39,0,0,0-1.75-.18,1.21,1.21,0,0,0-.74.55l-.37.71a.39.39,0,0,1-.23.19.34.34,0,0,1-.28,0,71,71,0,0,0-10.47-4.61A5.4,5.4,0,0,0,291.15,106.75Z"/><path class="cls-3" d="M302.17,127.08,307.4,117c.24-.46,1.12-.62,1.89-.22L330,127.58a1.66,1.66,0,0,1,1,2l-5.27,9.92a1.5,1.5,0,0,1-1.93.28l-20.56-10.68C302.44,128.72,301.81,127.77,302.17,127.08Z"/><path class="cls-2" d="M324.63,140.4a2.34,2.34,0,0,1-1-.25L303,129.46c-1-.5-1.67-1.64-1.2-2.55h0l5.23-10.08a1.2,1.2,0,0,1,.73-.57,2.25,2.25,0,0,1,1.67.19l20.69,10.79a2,2,0,0,1,1.14,2.54L326,139.71a1.31,1.31,0,0,1-.79.6A2,2,0,0,1,324.63,140.4ZM302.5,127.26c-.24.47.29,1.22.89,1.53l20.55,10.69a1.42,1.42,0,0,0,1.08.11.53.53,0,0,0,.34-.23l5.28-9.93a1.3,1.3,0,0,0-.83-1.52l-20.69-10.8A1.5,1.5,0,0,0,308,117a.46.46,0,0,0-.29.19Z"/><path class="cls-2" d="M329.35,143.59l-.15,0a.89.89,0,0,1-.67-.59.91.91,0,0,1,.18-.84.88.88,0,0,1,1-.28h0a1,1,0,0,1,.52,1,.87.87,0,0,1-.37.55A.9.9,0,0,1,329.35,143.59Zm.06-1a.18.18,0,0,0-.13.06.15.15,0,0,0,0,.13.14.14,0,0,0,.09.09l.09,0a.1.1,0,0,0,.05-.07.26.26,0,0,0-.06-.18Z"/><path class="cls-2" d="M335.38,132.27l-.15,0a.88.88,0,0,1-.67-.59.91.91,0,0,1,.17-.84.92.92,0,0,1,1-.28h0a.94.94,0,0,1,.51,1,.86.86,0,0,1-.36.55A.93.93,0,0,1,335.38,132.27Zm.05-1a.17.17,0,0,0-.12.06.13.13,0,0,0,0,.13.14.14,0,0,0,.09.09l.08,0a.13.13,0,0,0,.06-.07.26.26,0,0,0-.06-.18Z"/><path class="cls-2" d="M332.42,137.9h-.15a.89.89,0,0,1-.67-.6.92.92,0,0,1,.17-.84.9.9,0,0,1,1-.27h0a.92.92,0,0,1,.52,1,.9.9,0,0,1-.36.56A.91.91,0,0,1,332.42,137.9Zm.05-1a.2.2,0,0,0-.12.06.15.15,0,0,0,0,.14.12.12,0,0,0,.09.08.09.09,0,0,0,.08,0,.17.17,0,0,0,.06-.07.27.27,0,0,0-.06-.19Z"/><path class="cls-2" d="M317,124.37a.1.1,0,0,1-.07,0,34.07,34.07,0,0,0-6.46-3.2.13.13,0,0,1,.08-.24,34.41,34.41,0,0,1,6.52,3.23.13.13,0,0,1,0,.17A.11.11,0,0,1,317,124.37Z"/><path class="cls-2" d="M312.05,124.78H312l-2.87-1.4a.13.13,0,0,1-.05-.17.12.12,0,0,1,.16,0l2.87,1.4a.12.12,0,0,1,.06.16A.13.13,0,0,1,312.05,124.78Z"/><path class="cls-2" d="M312.6,131h-.05l-5.95-2.89a.12.12,0,0,1-.06-.16.12.12,0,0,1,.17-.06l5.94,2.89a.11.11,0,0,1,.06.16A.11.11,0,0,1,312.6,131Z"/><path class="cls-2" d="M338.87,137.22a4.33,4.33,0,0,1-2.31-.8.37.37,0,0,1-.12-.52.39.39,0,0,1,.52-.12,3.58,3.58,0,0,0,2,.69,2.82,2.82,0,0,0,2-1.14,2.22,2.22,0,0,0,0-1.94,3.17,3.17,0,0,0-1.72-1.84.37.37,0,1,1,.19-.72,3.86,3.86,0,0,1,2.22,2.28,2.85,2.85,0,0,1,0,2.6,3.52,3.52,0,0,1-2.64,1.51Z"/><path class="cls-2" d="M363.33,169a.38.38,0,0,1-.37-.35,43.86,43.86,0,0,0-1.59-10.15c-2.93-9.3-10.79-15.63-20-22.36a.37.37,0,0,1-.08-.53.38.38,0,0,1,.52-.08c9.31,6.81,17.27,13.23,20.27,22.74a45.14,45.14,0,0,1,1.62,10.33.38.38,0,0,1-.35.4Z"/><path class="cls-3" d="M310.21,172c3.74,3.12,7.85,6.22,11.36,9.6l2.6-3.3-11.24-9.64Z"/><path class="cls-2" d="M321.57,182a.36.36,0,0,1-.26-.11c-2.5-2.4-5.33-4.69-8.07-6.91-1.08-.87-2.2-1.78-3.27-2.67a.37.37,0,0,1-.05-.52l2.72-3.34a.38.38,0,0,1,.26-.14.37.37,0,0,1,.28.09L324.41,178a.37.37,0,0,1,0,.51l-2.6,3.3a.36.36,0,0,1-.27.15Zm-10.83-10c1,.81,2,1.63,3,2.43,2.65,2.14,5.38,4.34,7.82,6.67l2.12-2.7L313,169.17Z"/><path class="cls-3" d="M318.15,183.7s7.48-9.06,8-9.26a6.73,6.73,0,0,1-.18,8.28C324,185,320.42,185.62,318.15,183.7Z"/><path class="cls-2" d="M321.39,185.22a5.33,5.33,0,0,1-3.48-1.23.38.38,0,0,1-.05-.53c2.82-3.41,7.62-9.16,8.14-9.36a.37.37,0,0,1,.43.11,7.1,7.1,0,0,1-.18,8.75A6.45,6.45,0,0,1,321.39,185.22Zm-2.71-1.58a5.36,5.36,0,0,0,7-1.17,6.36,6.36,0,0,0,.4-7.48C325,176.07,321.21,180.59,318.68,183.64Z"/><path class="cls-2" d="M319.53,178.58a.11.11,0,0,1-.07,0,.12.12,0,0,1,0-.17,10.38,10.38,0,0,1,1.46-1.64.12.12,0,1,1,.17.18,10,10,0,0,0-1.43,1.61A.12.12,0,0,1,319.53,178.58Z"/><path class="cls-2" d="M317.77,177.2a.09.09,0,0,1-.07,0,.12.12,0,0,1,0-.17,10.38,10.38,0,0,1,1.46-1.64.12.12,0,1,1,.17.18,10,10,0,0,0-1.43,1.61A.12.12,0,0,1,317.77,177.2Z"/><path class="cls-2" d="M316.27,175.85l-.07,0a.13.13,0,0,1,0-.18,10.39,10.39,0,0,1,1.47-1.64.12.12,0,0,1,.17,0,.13.13,0,0,1,0,.18,10.35,10.35,0,0,0-1.43,1.6A.12.12,0,0,1,316.27,175.85Z"/><path class="cls-2" d="M314.67,174.41a.09.09,0,0,1-.07,0,.12.12,0,0,1,0-.17,10.38,10.38,0,0,1,1.46-1.64.12.12,0,1,1,.17.18,10,10,0,0,0-1.43,1.61A.12.12,0,0,1,314.67,174.41Z"/><path class="cls-2" d="M313,173a.11.11,0,0,1-.07,0,.13.13,0,0,1,0-.17,10.46,10.46,0,0,1,1.47-1.65.12.12,0,0,1,.17,0,.13.13,0,0,1,0,.18,9.41,9.41,0,0,0-1.43,1.6A.14.14,0,0,1,313,173Z"/><path class="cls-3" d="M34.19,222.64l-7,2.77-1.24,7,5.72,4.25,7-2.77,1.25-7Zm-.26,9.52a2.69,2.69,0,1,1,1.68-3.56A2.77,2.77,0,0,1,33.93,232.16Z"/><path class="cls-2" d="M31.7,237a.39.39,0,0,1-.23-.07l-5.72-4.25a.36.36,0,0,1-.14-.36l1.24-7a.41.41,0,0,1,.23-.28l7-2.76a.38.38,0,0,1,.36,0l5.72,4.25a.38.38,0,0,1,.15.36L39,234a.37.37,0,0,1-.23.28l-7,2.77Zm-5.31-4.78,5.36,4,6.58-2.61,1.17-6.58-5.37-4-6.57,2.61Zm6.43.49a3.32,3.32,0,0,1-1.2-.23,2.95,2.95,0,0,1-1.6-4,3.3,3.3,0,0,1,1.79-1.67A3.15,3.15,0,0,1,36,228.46a3,3,0,0,1-.08,2.38,3.33,3.33,0,0,1-1.8,1.66h0A3.21,3.21,0,0,1,32.82,232.75Zm.24-5.43a2.77,2.77,0,0,0-1,.18,2.59,2.59,0,0,0-1.4,1.3,2.25,2.25,0,0,0-.07,1.78,2.2,2.2,0,0,0,1.28,1.24,2.55,2.55,0,0,0,1.9,0h0a2.62,2.62,0,0,0,1.39-1.29,2.25,2.25,0,0,0,.07-1.78A2.32,2.32,0,0,0,33.06,227.32Z"/><path class="cls-3" d="M380.29,205.73l-7,2.76-1.25,7,5.72,4.25,7-2.77,1.25-7Zm-.25,9.51a2.7,2.7,0,1,1,1.67-3.56A2.79,2.79,0,0,1,380,215.24Z"/><path class="cls-2" d="M377.8,220.13a.35.35,0,0,1-.22-.08l-5.72-4.24a.39.39,0,0,1-.15-.37l1.25-7a.38.38,0,0,1,.23-.29l7-2.76a.41.41,0,0,1,.37,0l5.71,4.25a.39.39,0,0,1,.15.37l-1.25,7a.37.37,0,0,1-.23.28l-7,2.77A.35.35,0,0,1,377.8,220.13Zm-5.31-4.79,5.37,4,6.57-2.62,1.17-6.58-5.36-4-6.58,2.61Zm6.43.49a3.23,3.23,0,0,1-1.19-.23,2.93,2.93,0,0,1-1.61-4,3.33,3.33,0,0,1,1.79-1.67,3.17,3.17,0,0,1,4.15,1.65,3,3,0,0,1-.09,2.38,3.3,3.3,0,0,1-1.79,1.67h0A3.48,3.48,0,0,1,378.92,215.83Zm.25-5.43a2.59,2.59,0,0,0-1,.19,2.52,2.52,0,0,0-1.39,1.29,2.21,2.21,0,0,0-.07,1.78,2.26,2.26,0,0,0,1.27,1.25,2.6,2.6,0,0,0,1.9,0h0a2.59,2.59,0,0,0,1.39-1.29,2.21,2.21,0,0,0,.07-1.78A2.32,2.32,0,0,0,379.17,210.4Z"/><path class="cls-3" d="M392.1,157.47a2.84,2.84,0,1,1,2.84,2.84A2.84,2.84,0,0,1,392.1,157.47Z"/><path class="cls-2" d="M394.94,160.68a3.21,3.21,0,1,1,3.21-3.21A3.21,3.21,0,0,1,394.94,160.68Zm0-5.67a2.46,2.46,0,1,0,2.46,2.46A2.47,2.47,0,0,0,394.94,155Z"/><path class="cls-3" d="M258.4,41.62a2.84,2.84,0,1,1,2.83,2.83A2.84,2.84,0,0,1,258.4,41.62Z"/><path class="cls-2" d="M261.23,44.83a3.21,3.21,0,1,1,3.21-3.21A3.21,3.21,0,0,1,261.23,44.83Zm0-5.67a2.46,2.46,0,1,0,2.46,2.46A2.46,2.46,0,0,0,261.23,39.16Z"/><path class="cls-3" d="M122.59,279.18a2.84,2.84,0,1,1,2.83,2.83A2.84,2.84,0,0,1,122.59,279.18Z"/><path class="cls-2" d="M125.42,282.39a3.21,3.21,0,1,1,3.21-3.21A3.21,3.21,0,0,1,125.42,282.39Zm0-5.67a2.46,2.46,0,1,0,2.46,2.46A2.46,2.46,0,0,0,125.42,276.72Z"/><circle class="cls-3" cx="69.83" cy="99.46" r="4.08"/><path class="cls-2" d="M69.83,103.92a4.46,4.46,0,1,1,4.45-4.46A4.46,4.46,0,0,1,69.83,103.92Zm0-8.16a3.71,3.71,0,1,0,3.7,3.7A3.71,3.71,0,0,0,69.83,95.76Z"/><path class="cls-3" d="M182.5,115.67a2.42,2.42,0,1,1,2.41,2.62A2.52,2.52,0,0,1,182.5,115.67Z"/><path class="cls-2" d="M184.91,118.67a3,3,0,1,1,2.79-3A2.91,2.91,0,0,1,184.91,118.67Zm0-5.25a2.26,2.26,0,1,0,2,2.25A2.16,2.16,0,0,0,184.91,113.42Z"/><path class="cls-3" d="M188.62,32.05a8.24,8.24,0,1,0,8.24,8.24A8.24,8.24,0,0,0,188.62,32.05Zm0,12.12a3.89,3.89,0,1,1,3.88-3.88A3.89,3.89,0,0,1,188.62,44.17Z"/><path class="cls-2" d="M188.62,48.9a8.62,8.62,0,1,1,8.61-8.61A8.63,8.63,0,0,1,188.62,48.9Zm0-16.48a7.87,7.87,0,1,0,7.86,7.87A7.88,7.88,0,0,0,188.62,32.42Zm0,12.13a4.27,4.27,0,1,1,4.26-4.26A4.27,4.27,0,0,1,188.62,44.55Zm0-7.78a3.52,3.52,0,1,0,3.51,3.52A3.53,3.53,0,0,0,188.62,36.77Z"/></g></g></svg>