<svg xmlns="http://www.w3.org/2000/svg" viewBox="0 0 150.72 163.61"><defs><style>.cls-1{isolation:isolate;}.cls-2{fill:#803319;}.cls-3{fill:#52260f;}.cls-4{fill:#ae4625;}.cls-5{fill:#d5e7eb;}.cls-6{fill:#ecf0ed;}.cls-7{fill:#ab4624;}.cls-8{fill:#622b0f;}.cls-9{fill:#642c10;}.cls-10{fill:#763217;}.cls-11{fill:#562912;}.cls-12{fill:#ec9b21;}.cls-13{fill:#eeac1f;}.cls-14{fill:#f0be5d;}.cls-15{fill:#6c8930;}.cls-16{fill:#88ab3e;}.cls-17{fill:#ffd14f;}.cls-18,.cls-51{fill:#f9c941;}.cls-19,.cls-49,.cls-50{fill:#25b1ca;}.cls-20,.cls-52,.cls-54{fill:#ad5e26;}.cls-21{fill:#461808;}.cls-22{fill:#fbb040;}.cls-23{fill:#e5731f;}.cls-24{fill:#70121b;}.cls-25,.cls-47{fill:#f7a484;}.cls-26{fill:#c92030;}.cls-27{fill:#be1e2d;}.cls-28{fill:#26b7d1;}.cls-29{fill:#9c1925;}.cls-30{fill:#4a160b;}.cls-31,.cls-48{fill:#f7941e;}.cls-32{fill:#23a8bf;}.cls-33{fill:#fff;}.cls-34{fill:#961824;}.cls-35{fill:#db7228;}.cls-36{fill:#d16d27;}.cls-37,.cls-53{fill:#f09356;}.cls-38{fill:#e38b51;}.cls-39{fill:#f37d4c;}.cls-40{fill:#d15727;}.cls-41{fill:#cdc8c9;}.cls-42{fill:#a39fa0;}.cls-43{fill:#46bbd1;}.cls-44{fill:#1a7795;}.cls-45{fill:#603913;}.cls-46{fill:#231f20;}.cls-47{opacity:0.48;}.cls-47,.cls-48,.cls-49,.cls-50,.cls-51,.cls-52,.cls-53,.cls-54{mix-blend-mode:multiply;}.cls-48,.cls-51{opacity:0.38;}.cls-49{opacity:0.3;}.cls-50{opacity:0.33;}.cls-52{opacity:0.16;}.cls-53{opacity:0.27;}.cls-54{opacity:0.25;}</style></defs><title>Untitled-2</title><g class="cls-1"><g id="Layer_1" data-name="Layer 1"><rect class="cls-2" x="74.78" y="1.77" width="63.7" height="130.57"/><rect class="cls-3" x="81.67" y="9.98" width="23.14" height="64.04"/><polygon class="cls-4" points="83.24 72.61 81.67 74.02 104.81 74.02 104.81 9.98 103.25 11.39 83.24 72.61"/><rect class="cls-5" x="83.24" y="11.39" width="20.01" height="61.22"/><polygon class="cls-6" points="83.24 45.01 103.25 23.86 103.25 16.59 83.24 37.73 83.24 45.01"/><polygon class="cls-6" points="83.24 52.89 103.25 31.75 103.25 27.21 83.24 48.36 83.24 52.89"/><rect class="cls-3" x="108.44" y="9.98" width="23.14" height="64.04"/><polygon class="cls-4" points="110.01 72.61 108.44 74.02 131.58 74.02 131.58 9.98 130.02 11.39 110.01 72.61"/><rect class="cls-5" x="110.01" y="11.39" width="20.01" height="61.22"/><polygon class="cls-6" points="110.01 45.01 130.02 23.86 130.02 16.59 110.01 37.73 110.01 45.01"/><polygon class="cls-6" points="110.01 52.89 130.02 31.75 130.02 27.21 110.01 48.36 110.01 52.89"/><polygon class="cls-3" points="82.49 103.17 82.49 124.08 85.59 120.88 85.59 103.17 85.59 85.46 82.49 82.25 82.49 103.17"/><polygon class="cls-7" points="82.49 82.25 85.59 85.46 93.28 85.46 101.77 85.46 104.87 82.25 84.67 82.25 82.49 82.25"/><polygon class="cls-8" points="94.08 120.88 85.59 120.88 82.49 124.08 102.69 124.08 104.87 124.08 101.77 120.88 94.08 120.88"/><polygon class="cls-9" points="101.77 103.17 101.77 120.88 104.87 124.08 104.87 103.17 104.87 82.25 101.77 85.46 101.77 103.17"/><rect class="cls-10" x="84.21" y="84.03" width="18.94" height="38.27"/><polygon class="cls-3" points="108.82 103.17 108.82 124.08 111.92 120.88 111.92 103.17 111.92 85.46 108.82 82.25 108.82 103.17"/><polygon class="cls-7" points="108.82 82.25 111.92 85.46 119.61 85.46 128.1 85.46 131.2 82.25 111 82.25 108.82 82.25"/><polygon class="cls-8" points="120.41 120.88 111.92 120.88 108.82 124.08 129.02 124.08 131.2 124.08 128.1 120.88 120.41 120.88"/><polygon class="cls-9" points="128.1 103.17 128.1 120.88 131.2 124.08 131.2 103.17 131.2 82.25 128.1 85.46 128.1 103.17"/><rect class="cls-10" x="110.54" y="84.03" width="18.94" height="38.27"/><polygon class="cls-4" points="76.85 131.7 77.32 131.7 77.32 4.61 135.93 4.61 135.93 131.7 136.41 131.7 136.41 4.14 76.85 4.14 76.85 131.7"/><polygon class="cls-11" points="76.63 132.18 77.1 132.18 77.1 4.14 136.15 4.14 136.15 132.18 136.63 132.18 136.63 3.67 76.63 3.67 76.63 132.18"/><path class="cls-12" d="M281.53,90.79a1.62,1.62,0,0,0-1.61,1.62v10.1a1.62,1.62,0,1,0,3.23,0V92.41A1.62,1.62,0,0,0,281.53,90.79Z" transform="translate(-147.14 -18.19)"/><path class="cls-13" d="M281.53,92.17a3,3,0,1,0,3,3A2.95,2.95,0,0,0,281.53,92.17Z" transform="translate(-147.14 -18.19)"/><path class="cls-14" d="M280.49,93.33c-.35-.16-.86.2-1.15.81s-.24,1.23.11,1.4.86-.2,1.15-.81S280.84,93.5,280.49,93.33Z" transform="translate(-147.14 -18.19)"/><path class="cls-15" d="M297.61,177.26,287,156.8c-.4-.78-1.83-1.39-3.21-1.39h-60a3.87,3.87,0,0,0-3.21,1.39l-10.66,20.46a1.94,1.94,0,0,0-.24,1h0v2h0c.07.9.95,1.55,2.36,1.55H295.5c1.33,0,2.18-.57,2.33-1.39h0v-2.25h0A1.94,1.94,0,0,0,297.61,177.26Z" transform="translate(-147.14 -18.19)"/><path class="cls-16" d="M287,156.8c-.4-.78-1.83-1.39-3.21-1.39h-60a3.87,3.87,0,0,0-3.21,1.39l-10.66,20.46c-.73,1.4.21,2.57,2.12,2.57H295.5c1.9,0,2.84-1.17,2.11-2.57Z" transform="translate(-147.14 -18.19)"/><path class="cls-15" d="M276.63,157.19s0,0,0,0H231a.06.06,0,0,1,0,0c-.84,2.37-5.08,4.43-9.4,4.43h0l-4,8.41h0c4.86,0,7.8,2.77,6.48,6.48l-.06.15h59.58a.94.94,0,0,1-.06-.15c-1.33-3.71,1.62-6.48,6.47-6.48l-4-8.41C281.71,161.62,277.47,159.56,276.63,157.19ZM282.49,176h-57.4c.93-3.59-1.9-6.27-6.49-6.52l3.43-7.45c4.28-.21,8.33-2.19,9.44-4.51h44.62c1.12,2.31,5.14,4.29,9.42,4.5l3.43,7.46C284.37,169.77,281.56,172.44,282.49,176Z" transform="translate(-147.14 -18.19)"/><polygon class="cls-15" points="88.37 149.66 88.91 143.92 87.26 143.92 84.76 149.61 85.51 143.92 83.83 143.92 82.75 151.3 85.36 151.3 87.16 147.18 86.74 151.3 89.27 151.3 92.16 143.92 90.66 143.92 88.37 149.66"/><polygon class="cls-15" points="91.56 151.3 96.75 151.3 96.9 150.15 93.67 150.15 94.05 147.9 96.55 147.9 96.69 146.85 94.23 146.85 94.57 144.88 97.58 144.88 97.71 143.92 93.02 143.92 91.56 151.3"/><polygon class="cls-15" points="100.49 143.92 98.77 143.92 97.93 151.3 102.96 151.3 103.02 150.15 99.93 150.15 100.49 143.92"/><path class="cls-15" d="M254.62,166.57v1.09c0,.56-.37.77-1,.77s-1-.21-1-.77l.06-4c0-.49.36-.68.91-.68s.91.19.91.68v.76h1.68l0-.69c0-1.1-.94-1.71-2.62-1.71s-2.59.61-2.63,1.71l-.15,3.84c0,1.26.89,2,2.76,2s2.82-.74,2.77-2l0-1Z" transform="translate(-147.14 -18.19)"/><path class="cls-15" d="M262.52,163.75c-.14-1.1-1.14-1.71-2.82-1.71s-2.58.61-2.53,1.71l.19,3.84c.06,1.26,1.12,2,3,2s2.8-.74,2.64-2Zm-2.27,4.69c-.6,0-1-.22-1-.78l-.29-4c0-.49.3-.68.85-.68s.92.19,1,.68l.39,4C261.2,168.22,260.84,168.44,260.25,168.44Z" transform="translate(-147.14 -18.19)"/><polygon class="cls-15" points="121.09 143.92 120.9 149 118.66 143.92 116.27 143.92 117.3 151.3 118.96 151.3 118.09 145.93 120.38 151.3 122.17 151.3 122.29 145.86 123.49 151.3 125.29 151.3 123.48 143.92 121.09 143.92"/><polygon class="cls-15" points="128.24 150.15 127.59 147.9 130.09 147.9 129.75 146.85 127.29 146.85 126.73 144.88 129.74 144.88 129.42 143.92 124.73 143.92 126.67 151.3 131.86 151.3 131.48 150.15 128.24 150.15"/><path class="cls-17" d="M188.69,84.91c.07-3,.11-5.83.11-5.83a6.12,6.12,0,0,0,.71.11s-.3-4.12-.71-6.62c0,0,1.57.58,3.07,1.16,1.32,4.08,1.58,12.29,1.62,15.81l0-.05s0,.09.05.27c0,.89,0,1.43,0,1.43-1,1.13-5.11.81-5.11.81C188.52,91.34,188.62,88,188.69,84.91Z" transform="translate(-147.14 -18.19)"/><path class="cls-18" d="M193.5,89.76c.36,2.08,2.69,15.79,2.38,17.7a73.58,73.58,0,0,1-7.64,2.3,49,49,0,0,1-13.79-.16c-3.89-.55-5.82-1.17-6.89-1.29.13-3.49-.44-10.37-.44-10.37A33,33,0,0,0,170,89.1c.12,1.5.2,3.13.22,4.9,0,0,5.62.11,6.38-1.08,0,0-.64-3.54-1.8-7.69a41.49,41.49,0,0,0,9,.68,13.4,13.4,0,0,0,4.81-1c-.07,3.11-.17,6.43-.29,7.09,0,0,4.13.32,5.11-.81C193.51,91.19,193.51,90.65,193.5,89.76Z" transform="translate(-147.14 -18.19)"/><path class="cls-19" d="M223,100.23c-17.46,3.52-28.78-9.77-29.55-10.69,0-3.52-.3-11.73-1.62-15.81,1.17.45,2.29.9,2.61,1.08.73.4,13.14,13,15.9,14.11s14,5.09,14,5.09l.11,0Z" transform="translate(-147.14 -18.19)"/><path class="cls-20" d="M174.36,91.24a1,1,0,1,1-1-1A1,1,0,0,1,174.36,91.24Z" transform="translate(-147.14 -18.19)"/><path class="cls-21" d="M158.24,36.69s2.57.27,6.34.38c-.15.27-3.3,6-1.14,12.16-.12-.08-2.55-1.78-4.27-.83C157.45,40.16,158.24,36.69,158.24,36.69Z" transform="translate(-147.14 -18.19)"/><path class="cls-22" d="M193.49,89.54a1.55,1.55,0,0,1,0,.22c0-.18-.05-.27-.05-.27Z" transform="translate(-147.14 -18.19)"/><path class="cls-23" d="M165,37.08h-.44c-3.77-.11-6.34-.38-6.34-.38-1-13.47,5.31-18.6,20.34-18.49h.55S163,19.44,165,37.08Z" transform="translate(-147.14 -18.19)"/><path class="cls-17" d="M167,75.4a29.05,29.05,0,0,0,3.14-1.28h0c2,2.46,3.61,7.07,4.73,11.1s1.8,7.69,1.8,7.69c-.76,1.19-6.38,1.08-6.38,1.08,0-1.77-.1-3.4-.22-4.9-.75-9.4-3.07-13.7-3.07-13.7Z" transform="translate(-147.14 -18.19)"/><polygon class="cls-24" points="101.14 130.24 87.52 143.33 81.57 143.33 81.57 130.9 82.25 130.24 88.48 130.24 89.43 130.24 93.27 130.24 94.23 130.24 101.14 130.24"/><path class="cls-25" d="M233,96.43s5.94-.51,5.56,4.1-4.83,5.84-11.32,2.07l-.22,0,1.76-8.43.23,0s4.5-.77,6-1.91S236.66,94.78,233,96.43Z" transform="translate(-147.14 -18.19)"/><path class="cls-26" d="M241.37,136v12.41h-1V136a.65.65,0,0,0-.64-.65h.95A.65.65,0,0,1,241.37,136Z" transform="translate(-147.14 -18.19)"/><path class="cls-27" d="M240.41,136v12.41h-4.79v-6l2.87-2.76c.33,0,.58-.6.58-1.35s-.25-1.35-.58-1.35c-.16,0-.31.16-.41.41l-2.46,2.36V136a.65.65,0,0,1,.65-.65h3.5A.65.65,0,0,1,240.41,136Z" transform="translate(-147.14 -18.19)"/><path class="cls-26" d="M238.08,137.4c.1-.25.25-.41.41-.41.33,0,.58.6.58,1.35s-.25,1.35-.58,1.35l-2.87,2.76-6.23,6-.68.65-.49.47v-.45a.65.65,0,0,0-.65-.64h-1l9.06-8.71Z" transform="translate(-147.14 -18.19)"/><polygon class="cls-28" points="81.83 74.96 81.63 75.93 79.87 84.35 79.73 85 75.4 84.24 75.9 82.04 77.3 75.84 77.89 73.21 81.83 74.96"/><polygon class="cls-29" points="81.57 130.9 81.57 143.33 81.08 143.33 81.08 131.37 81.57 130.9"/><polygon class="cls-29" points="75.33 136.23 75.33 143.33 67.94 143.33 75.33 136.23"/><path class="cls-30" d="M202.83,168.56a6.18,6.18,0,0,1,1.38,7.71s-10.78,2.27-15.53-1.06l-.44,1.82H185.4s-1.46-3.36,0-8.87l.79-4.34a22.31,22.31,0,0,0,2.71-.09s-.48,2.48,0,3.53,4,1.71,5.91,1.71S200.89,167.18,202.83,168.56Z" transform="translate(-147.14 -18.19)"/><path class="cls-20" d="M167.56,108.31c1.07.12,3,.74,6.89,1.29a49,49,0,0,0,13.79.16,73.58,73.58,0,0,0,7.64-2.3,5.32,5.32,0,0,1,1.2-.29c.89,0,2.92,6.81,2.27,8.19a4.32,4.32,0,0,1-1.22,1.26c-2.4,1.87-8.11,4.62-16.06,4.17h0c-.07-1.13-.7-2.4-2.7-3.38l-.22-.11c-4.15-1.9-11.1-3-13.23-3.24V114s-.16-4.71.57-5.43A1.17,1.17,0,0,1,167.56,108.31Z" transform="translate(-147.14 -18.19)"/><path class="cls-18" d="M186.19,163.82a6.15,6.15,0,0,1-2.5-.53s-1-22.25.44-35.17c0,0-10,33.14-14.52,36.82a15.88,15.88,0,0,1-2.21.11,12.88,12.88,0,0,1-2.9-.37,7.12,7.12,0,0,1-2.15-.93,192.7,192.7,0,0,1,2-31.54c3.06,1.95,8.69,1.75,11.16.75.3-.13.62-.24.93-.37h0c2.39-1,4.91-2.37,4.23-8.65q.3-.19.6-.42a4.78,4.78,0,0,0,.81-2.73h0c8,.45,13.66-2.3,16.06-4.17,0,0,2.87,28.67-6,46.67,0,0-1.46.29-3.21.44A22.31,22.31,0,0,1,186.19,163.82Z" transform="translate(-147.14 -18.19)"/><path class="cls-31" d="M190.26,32.15s15.52,4.05,2.33,8.43c-.44.14-.87.28-1.29.4-15.85,4.66-25.94-3.61-26.28-3.9C172.56,37.27,184.44,36.74,190.26,32.15Z" transform="translate(-147.14 -18.19)"/><path class="cls-25" d="M163.44,49.23c-2.16-6.18,1-11.89,1.14-12.16H165c.34.29,10.43,8.56,26.28,3.9h0c-.37,1-.55,5,.53,7a12.9,12.9,0,0,1,1.25,5.9c0,1.25-.72,8.47-9.37,11.12a22.14,22.14,0,0,1-4.85.88,20,20,0,0,1-2.55,0c-10.93-.58-12.43-11-12.43-11-4.22,1.89-7.3-1.57-5.9-5.14a2.79,2.79,0,0,1,1.19-1.48h0C160.89,47.45,163.32,49.15,163.44,49.23Zm20.95,7.84a26,26,0,0,1,.25-3.24c-4.11,3.46-9.57,1.84-9.57,1.84a3.52,3.52,0,0,0-.56,2.53c.15,1.61,1.11,3.47,4.07,4.12,5.25,1.13,6.65-1.84,6.65-1.84C184.54,60.09,184.37,58.56,184.39,57.07Z" transform="translate(-147.14 -18.19)"/><path class="cls-22" d="M179.13,18.21c14.41.43,11.13,13.94,11.13,13.94-5.82,4.59-17.7,5.12-25.24,4.93h0C163,19.44,179.13,18.21,179.13,18.21Z" transform="translate(-147.14 -18.19)"/><path class="cls-28" d="M188.8,72.57c.41,2.5.71,6.62.71,6.62a6.12,6.12,0,0,1-.71-.11A19.86,19.86,0,0,1,183.88,77l-.22-.13-.09-.16.14-.08c1.65-1.13,1.52-5.84,1.52-5.84a12.45,12.45,0,0,1-1.11-3.19s3.67,2,4.28,3.36A8.2,8.2,0,0,1,188.8,72.57Z" transform="translate(-147.14 -18.19)"/><path class="cls-32" d="M183.88,77l-.22-.13-.09,0c-.2,1.88-2.75,4.48-2.75,4.48-3.17-.81-8.84-6.65-8.84-6.65s.16-.69.4-1.56c0,0-1.06.52-2.27,1.07h0c2,2.46,3.61,7.07,4.73,11.1a41.49,41.49,0,0,0,9,.68,13.4,13.4,0,0,0,4.81-1c.07-3,.11-5.83.11-5.83A19.86,19.86,0,0,1,183.88,77Z" transform="translate(-147.14 -18.19)"/><path class="cls-25" d="M176.46,69.78c0-.57,0-1.15,0-1.69,0-1.16-.11-2.09-.11-2.09v0a20,20,0,0,0,2.55,0,22.14,22.14,0,0,0,4.85-.88,21.4,21.4,0,0,0,.41,2.5,12.45,12.45,0,0,0,1.11,3.19s.13,4.71-1.52,5.84l-.14.08c-1.8.82-7.21-3.43-8-5.35C175.34,70.81,176.38,69.85,176.46,69.78Z" transform="translate(-147.14 -18.19)"/><path class="cls-33" d="M184.64,53.83a26,26,0,0,0-.25,3.24,12.52,12.52,0,0,1-9.88,1.13,3.52,3.52,0,0,1,.56-2.53S180.53,57.29,184.64,53.83Z" transform="translate(-147.14 -18.19)"/><path class="cls-34" d="M184.39,57.07c0,1.49.15,3,.84,3.41,0,0-1.4,3-6.65,1.84-3-.65-3.92-2.51-4.07-4.12A12.52,12.52,0,0,0,184.39,57.07Z" transform="translate(-147.14 -18.19)"/><path class="cls-28" d="M183.57,76.67l.09.16-.09,0c-.2,1.88-2.75,4.48-2.75,4.48-3.17-.81-8.84-6.65-8.84-6.65s.16-.69.4-1.56a11,11,0,0,1,1.38-3.52,15.94,15.94,0,0,1,2.66-1.44c0,.54,0,1.12,0,1.69-.08.07-1.12,1-.9,1.54C176.36,73.24,181.77,77.49,183.57,76.67Z" transform="translate(-147.14 -18.19)"/><path class="cls-35" d="M182.07,120.79a4.78,4.78,0,0,1-.81,2.73q-.3.23-.6.42a13.13,13.13,0,0,1-2.1,1.09,15,15,0,0,1-1.79.59h0c2.56-1.58,2.6-8.2,2.6-8.2C181.37,118.39,182,119.66,182.07,120.79Z" transform="translate(-147.14 -18.19)"/><path class="cls-36" d="M180.66,123.94c.68,6.28-1.84,7.68-4.23,8.65,2-1.27,2.13-7.56,2.13-7.56A13.13,13.13,0,0,0,180.66,123.94Z" transform="translate(-147.14 -18.19)"/><path class="cls-37" d="M179.15,117.3l.22.11s0,6.62-2.6,8.2h0c-6.44,1.6-13-1.82-13.71-3.85-.85-2.52.36-7.14,1.9-7.79h.32l.64.08C168.05,114.35,175,115.4,179.15,117.3Z" transform="translate(-147.14 -18.19)"/><path class="cls-38" d="M178.56,125s-.15,6.29-2.13,7.56h0c-.31.13-.63.24-.93.37-2.47,1-8.1,1.2-11.16-.75-.15-.1-.3-.2-.44-.31-2.91-2.27-.84-10.13-.84-10.13.68,2,7.27,5.45,13.71,3.85A15,15,0,0,0,178.56,125Z" transform="translate(-147.14 -18.19)"/><path class="cls-19" d="M170,89.1a33,33,0,0,1-2.92,8.84s-7.87,14.17-8.12,19.47a18.4,18.4,0,0,1-7.75-.12c-1-7.46,2.92-21.08,6.39-30.72s7.89-10.87,9.1-11.11l.23-.06h0S169.29,79.7,170,89.1Z" transform="translate(-147.14 -18.19)"/><path class="cls-30" d="M167.4,165.05h0l-.65,4.43c1.46,5.51,0,8.86,0,8.86h-2.84l-.44-1.81c-4.75,3.33-15.53,1.06-15.53,1.06a6.19,6.19,0,0,1,1.38-7.71c1.94-1.38,6.16.41,8,.41s5.43-.65,5.91-1.71,1.24-3.9,1.24-3.9A12.88,12.88,0,0,0,167.4,165.05Z" transform="translate(-147.14 -18.19)"/><path class="cls-28" d="M151.25,117.29a18.4,18.4,0,0,0,7.75.12,9.07,9.07,0,0,0,1.15-.37l-.33,5.35s-.95.32-2.32.62a16.84,16.84,0,0,1-6,.38,5.89,5.89,0,0,1-2-.68l.6-5.67S150.56,117.16,151.25,117.29Z" transform="translate(-147.14 -18.19)"/><path class="cls-25" d="M157.5,123c5.08,5.5,1.13,7.76,1.13,6.62a4.72,4.72,0,0,0-1.13-2.43c-.73,1.3,0,5.27,0,5.27-1.79,1.05-5.64,1.3-6.85-1.22s.85-7.73.85-7.73l0-.13A16.84,16.84,0,0,0,157.5,123Z" transform="translate(-147.14 -18.19)"/><path class="cls-39" d="M230.55,155.63h3.17a.73.73,0,0,1,.73.73v.54a0,0,0,0,1,0,0h-4.62a0,0,0,0,1,0,0v-.54a.73.73,0,0,1,.73-.73Z" transform="translate(-124.32 -47.65) rotate(7.63)"/><path class="cls-39" d="M229.29,160.06l-.82,6.14a2.31,2.31,0,0,0,4.58.61l.82-6.14Z" transform="translate(-147.14 -18.19)"/><path class="cls-40" d="M234.25,157.17l-4.4-.59a2.53,2.53,0,0,1-.47,3.49l4.4.59A2.52,2.52,0,0,1,234.25,157.17Z" transform="translate(-147.14 -18.19)"/><rect class="cls-41" x="231.8" y="146.28" width="2.08" height="9.37" transform="translate(-125.01 -47.8) rotate(7.64)"/><polygon class="cls-42" points="87.74 123.83 86.92 123.72 86.09 123.61 84.82 126.32 85.29 127.99 86.32 128.13 87.36 128.27 88.25 126.78 87.74 123.83"/><path class="cls-43" d="M238.23,159.61,234,157.67l.38-.84a.35.35,0,0,1,.46-.17l3.57,1.65a.35.35,0,0,1,.17.46Z" transform="translate(-147.14 -18.19)"/><path class="cls-43" d="M232.57,160.85l-2.6,5.62a2.31,2.31,0,0,0,4.2,1.94l2.59-5.62Z" transform="translate(-147.14 -18.19)"/><path class="cls-44" d="M238.16,159.55l-4-1.86a2.54,2.54,0,0,1-1.48,3.2l4,1.86A2.54,2.54,0,0,1,238.16,159.55Z" transform="translate(-147.14 -18.19)"/><rect class="cls-41" x="237.6" y="148.53" width="2.08" height="9.37" transform="translate(-60.99 -104.08) rotate(24.77)"/><path class="cls-42" d="M243.12,146.09a1.14,1.14,0,0,0-.65-1.17h0a1.12,1.12,0,0,0-1.31.27l-.39.42a4.32,4.32,0,0,0-1.11,2.77v.14l.94.44,1,.44.1-.1a4.23,4.23,0,0,0,1.39-2.64Z" transform="translate(-147.14 -18.19)"/><path class="cls-41" d="M242.52,145.81c.14-.45.12-.81-.05-.89h0c-.18-.08-.47.14-.72.54l-.29.47a10.63,10.63,0,0,0-1.19,2.73l0,.13.37.17.37.17.08-.11a10.56,10.56,0,0,0,1.3-2.68Z" transform="translate(-147.14 -18.19)"/><path class="cls-26" d="M228.22,149.56v12h-.95V149.11a.65.65,0,0,0-.65-.64h.95a.65.65,0,0,1,.65.64Z" transform="translate(-147.14 -18.19)"/><path class="cls-27" d="M227.27,149.11v12.41h-4.8V149.11a.65.65,0,0,1,.65-.64h3.5A.65.65,0,0,1,227.27,149.11Z" transform="translate(-147.14 -18.19)"/><polygon class="cls-26" points="101.14 130.24 101.14 144.41 87.52 157.49 87.52 143.33 101.14 130.24"/><polygon class="cls-27" points="87.52 143.33 87.52 157.49 67.94 157.49 67.94 143.33 75.33 143.33 76.29 143.33 80.13 143.33 81.08 143.33 81.57 143.33 87.52 143.33"/><path class="cls-45" d="M172.91,47a1.13,1.13,0,1,1-1.11-1.37A1.26,1.26,0,0,1,172.91,47Z" transform="translate(-147.14 -18.19)"/><path class="cls-45" d="M186.35,45.66a1.13,1.13,0,1,1-1.11-1.36A1.26,1.26,0,0,1,186.35,45.66Z" transform="translate(-147.14 -18.19)"/><path class="cls-45" d="M168.09,44.6H168a.32.32,0,0,1-.22-.4c.6-2,3-2.65,3.11-2.68a.33.33,0,0,1,.39.24.32.32,0,0,1-.24.39s-2.15.56-2.64,2.23A.32.32,0,0,1,168.09,44.6Z" transform="translate(-147.14 -18.19)"/><path class="cls-46" d="M170.72,122.62a1.11,1.11,0,1,1-1.11-1.11A1.11,1.11,0,0,1,170.72,122.62Z" transform="translate(-147.14 -18.19)"/><path class="cls-45" d="M181.21,52.32h-.32a.32.32,0,0,1-.3-.34.33.33,0,0,1,.35-.3,3.63,3.63,0,0,0,2.34-.56.85.85,0,0,0,.23-.71c-.14-1.54-2.59-1.68-2.61-1.68a.32.32,0,1,1,0-.64c.12,0,3,.16,3.23,2.26a1.51,1.51,0,0,1-.42,1.23A3.83,3.83,0,0,1,181.21,52.32Z" transform="translate(-147.14 -18.19)"/><path class="cls-47" d="M178.86,65.94a20,20,0,0,1-2.55,0v0s.07.93.11,2.09c0,.54,0,1.12,0,1.69-.08.07-1.12,1-.9,1.54a11.34,11.34,0,0,0,3.33,3.49v-.36a17.9,17.9,0,0,1,.47-5,8,8,0,0,1,2.48-4A23.3,23.3,0,0,1,178.86,65.94Z" transform="translate(-147.14 -18.19)"/><path class="cls-47" d="M172.46,65.28a28.81,28.81,0,0,1-5.14-12.7A49.39,49.39,0,0,1,167,41.51a14.17,14.17,0,0,1,.51-2.79A17.77,17.77,0,0,1,165,37.08h-.44c-.15.27-3.3,6-1.14,12.16-.12-.08-2.55-1.78-4.27-.83h0A2.79,2.79,0,0,0,158,49.88c-1.4,3.57,1.68,7,5.9,5.14C163.88,55,165,62.83,172.46,65.28Z" transform="translate(-147.14 -18.19)"/><path class="cls-48" d="M191.3,41l.25-.07a63,63,0,0,1-6.61-.72c-2.78-.43-6.14-1.45-8.3-3.57a82.09,82.09,0,0,1-11.62.46C165.36,37.37,175.45,45.64,191.3,41Z" transform="translate(-147.14 -18.19)"/><path class="cls-48" d="M176,29.82a25.25,25.25,0,0,1,4.7-11.51c-.48,0-1-.08-1.52-.1,0,0-16.17,1.23-14.12,18.87h0a85.72,85.72,0,0,0,11-.39A17.12,17.12,0,0,1,176,29.82Z" transform="translate(-147.14 -18.19)"/><path class="cls-49" d="M177.28,85.61A5.68,5.68,0,0,1,177,82a3,3,0,0,1,1.33-2,46.26,46.26,0,0,1-6.3-5.38s.16-.69.4-1.56c0,0-1.06.52-2.27,1.07h0c2,2.46,3.61,7.07,4.73,11.1C174.84,85.23,175.81,85.43,177.28,85.61Z" transform="translate(-147.14 -18.19)"/><path class="cls-50" d="M178.46,79.74a10.29,10.29,0,0,1-1.46-2.5,9.19,9.19,0,0,1-1.06-3.07,4.93,4.93,0,0,1,.2-1.93,4,4,0,0,1-.58-.92c-.22-.51.82-1.47.9-1.54,0-.57,0-1.15,0-1.69a15.94,15.94,0,0,0-2.66,1.44,11,11,0,0,0-1.38,3.52c-.24.87-.4,1.56-.4,1.56a42.58,42.58,0,0,0,7.18,5.93C178.92,80.26,178.66,80,178.46,79.74Z" transform="translate(-147.14 -18.19)"/><path class="cls-50" d="M185.7,75.47c0-1.6-.37-3.11-.41-4.7l.17-.16-.29,0,.06.12s.13,4.71-1.52,5.84l-.14.08.09.16.22.13c.34.19.92.52,1.62.87A10.46,10.46,0,0,0,185.7,75.47Z" transform="translate(-147.14 -18.19)"/><path class="cls-51" d="M190.42,92c-1.09,0-2,0-2,0,.12-.66.22-4,.29-7.09a7.7,7.7,0,0,1-1,.39,16.27,16.27,0,0,1,0,2.42,32.08,32.08,0,0,0-.27,4.69,8,8,0,0,0,2.53-.21A4,4,0,0,0,190.42,92Z" transform="translate(-147.14 -18.19)"/><path class="cls-51" d="M173.51,109.46a10,10,0,0,1-4-6.22,19.57,19.57,0,0,1-.05-5.82A2.55,2.55,0,0,1,171.44,95a14.58,14.58,0,0,0,3.16-1.26,28.66,28.66,0,0,1-4.34.26c0-1.77-.1-3.4-.22-4.9a33,33,0,0,1-2.92,8.84s.57,6.88.44,10.37C168.54,108.42,170.24,109,173.51,109.46Z" transform="translate(-147.14 -18.19)"/><path class="cls-51" d="M174.18,91.42a1,1,0,1,1-1-1A1,1,0,0,1,174.18,91.42Z" transform="translate(-147.14 -18.19)"/><path class="cls-20" d="M174.36,91.24a1,1,0,1,1-1-1A1,1,0,0,1,174.36,91.24Z" transform="translate(-147.14 -18.19)"/><path class="cls-52" d="M173.74,92a1,1,0,0,1-1-1,1,1,0,0,1,.36-.77,1,1,0,0,0,.27,2A1,1,0,0,0,174,92,.75.75,0,0,1,173.74,92Z" transform="translate(-147.14 -18.19)"/><path class="cls-51" d="M192.24,89.85a1,1,0,1,1-1-1A1,1,0,0,1,192.24,89.85Z" transform="translate(-147.14 -18.19)"/><path class="cls-20" d="M192.42,89.66a1,1,0,1,1-1-1A1,1,0,0,1,192.42,89.66Z" transform="translate(-147.14 -18.19)"/><path class="cls-52" d="M191.8,90.47a1,1,0,0,1-1-1,1,1,0,0,1,.36-.77,1,1,0,0,0,.27,2,1,1,0,0,0,.64-.24A1.09,1.09,0,0,1,191.8,90.47Z" transform="translate(-147.14 -18.19)"/><path class="cls-49" d="M223,100.23l.45-2c-1.33-.07-2.68-.25-4-.38a53.06,53.06,0,0,1-8.85-1.46c-4-1.1-7.07-3.34-10.11-6-4.34-3.82-6.28-9.57-5.92-15.43a1.13,1.13,0,0,0-.17-.12c-.32-.18-1.44-.63-2.61-1.08,1.32,4.08,1.58,12.29,1.62,15.81C194.26,90.46,205.58,103.75,223,100.23Z" transform="translate(-147.14 -18.19)"/><path class="cls-49" d="M183.66,76.83l-.09,0a3.43,3.43,0,0,1-.31,1.06c.43.41.78.9,1.25,1.27a7.09,7.09,0,0,0,2.67,1.15,12,12,0,0,0,1.59.42c0-1,0-1.6,0-1.6A19.86,19.86,0,0,1,183.88,77Z" transform="translate(-147.14 -18.19)"/><path class="cls-49" d="M158.87,107c-1,1.86-1.08,3.69-1.56,5.69a40.33,40.33,0,0,0-1.2,5.11,13.46,13.46,0,0,0,2.89-.37c.25-5.3,8.12-19.47,8.12-19.47A33,33,0,0,0,170,89.1c-.75-9.4-3.07-13.7-3.07-13.7h0l-.23.06a5.58,5.58,0,0,0-1,.28,33.88,33.88,0,0,1,.4,7.2c-.07,2.58.42,5.19.13,7.76C165.56,97,161.76,101.61,158.87,107Z" transform="translate(-147.14 -18.19)"/><path class="cls-50" d="M155.08,123.42a23.35,23.35,0,0,0,2.42-.41c1.37-.3,2.32-.62,2.32-.62l.33-5.35a9.07,9.07,0,0,1-1.15.37,14.17,14.17,0,0,1-3.71.37,4.67,4.67,0,0,1,.89,3.34A5,5,0,0,1,155.08,123.42Z" transform="translate(-147.14 -18.19)"/><path class="cls-50" d="M223.46,98.35l-.42,1.88-.5,2.21,4.33.75.14-.64.49-2.37A7.55,7.55,0,0,1,223.46,98.35Z" transform="translate(-147.14 -18.19)"/><path class="cls-47" d="M231.81,101.45a10.27,10.27,0,0,1-3.12-1.61,8.72,8.72,0,0,1-.92-1l-.76,3.67.22,0c5.65,3.28,9.75,2.77,11-.45A11.27,11.27,0,0,1,231.81,101.45Z" transform="translate(-147.14 -18.19)"/><path class="cls-47" d="M156.15,133a6.3,6.3,0,0,1-3.56-7,22.33,22.33,0,0,1,.79-2.43,11.24,11.24,0,0,1-1.86-.13l0,.13s-2.05,5.22-.85,7.73C151.61,133.24,154.21,133.5,156.15,133Z" transform="translate(-147.14 -18.19)"/><path class="cls-47" d="M153.7,123.52h-.23l0,.13A.86.86,0,0,0,153.7,123.52Z" transform="translate(-147.14 -18.19)"/><path class="cls-53" d="M168.14,125.67c.44,0,.87-.08,1.31-.11-3.4-.83-6-2.57-6.39-3.79,0,0-2.07,7.86.84,10.13.14.11.29.21.44.31a8.38,8.38,0,0,0,2.28,1C165,131.84,164,130,165,127.8A3.93,3.93,0,0,1,168.14,125.67Z" transform="translate(-147.14 -18.19)"/><path class="cls-53" d="M168.46,114.45c-1.09-.18-2-.31-2.54-.39l-.64-.08H165c-1.54.65-2.75,5.27-1.9,7.79.27.8,1.46,1.82,3.21,2.66a13.51,13.51,0,0,1-.36-4C166,118.54,166.82,115.78,168.46,114.45Z" transform="translate(-147.14 -18.19)"/><path class="cls-54" d="M179.15,114.85a6,6,0,0,1-1.42-3.65A3.62,3.62,0,0,1,178,110q-1.74-.13-3.57-.39c-3.89-.55-5.82-1.17-6.89-1.29a1.17,1.17,0,0,0-1.06.24c-.73.72-.57,5.43-.57,5.43v.08c2.13.29,9.08,1.34,13.23,3.24l.22.11c2,1,2.63,2.25,2.7,3.38h0a29.55,29.55,0,0,0,4.55-.09A15.3,15.3,0,0,1,179.15,114.85Z" transform="translate(-147.14 -18.19)"/><path class="cls-51" d="M171.3,133.69a12.9,12.9,0,0,1-7-1.48,192.7,192.7,0,0,0-2,31.54,7.12,7.12,0,0,0,2.15.93c.31.08.64.14,1,.19.41-2.88.75-5.78,1.11-8.67a141.1,141.1,0,0,1,2.71-15.7C169.77,138.44,170.73,136,171.3,133.69Z" transform="translate(-147.14 -18.19)"/><path class="cls-51" d="M187.55,132.29c.2-4,1-7.91,1.18-11.87a28.68,28.68,0,0,1-4.32.41v.41c-.13,3.24-.89,6.37-1.12,9.57.53-1.68.84-2.69.84-2.69-1.43,12.92-.44,35.17-.44,35.17a6.15,6.15,0,0,0,2.5.53h.49a80.73,80.73,0,0,0,.28-10.68C187.08,146.21,187.22,139.23,187.55,132.29Z" transform="translate(-147.14 -18.19)"/></g></g></svg>