<svg id="visual" viewBox="0 0 1536 900" width="1536" height="900" xmlns="http://www.w3.org/2000/svg" xmlns:xlink="http://www.w3.org/1999/xlink" version="1.1"><path d="M896 0L872.5 30C849 60 802 120 782.5 180C763 240 771 300 798.8 360C826.7 420 874.3 480 883.7 540C893 600 864 660 859.3 720C854.7 780 874.3 840 884.2 870L894 900L0 900L0 870C0 840 0 780 0 720C0 660 0 600 0 540C0 480 0 420 0 360C0 300 0 240 0 180C0 120 0 60 0 30L0 0Z" fill="#fa541c" stroke-linecap="round" stroke-linejoin="miter"></path></svg>